<?xml version="1.0" encoding="UTF-8"?>
<svg version="1.1" xmlns="http://www.w3.org/2000/svg" width="512" height="512">
<path d="M0 0 C4.59760264 1.18157218 6.56886317 4.03476471 9.4453125 7.6640625 C10.26322266 8.64052734 10.26322266 8.64052734 11.09765625 9.63671875 C15.0703125 14.46563675 15.0703125 14.46563675 15.0703125 16.7890625 C16.33756511 16.78214905 16.33756511 16.78214905 17.63041878 16.77509594 C38.18669322 16.66467638 58.74291655 16.58193492 79.29942513 16.53000164 C89.24041519 16.50421955 99.1812073 16.46906888 109.12207031 16.41186523 C117.78649619 16.36203047 126.45077871 16.32977152 135.11534393 16.31862003 C139.70327811 16.31210138 144.29080215 16.29678073 148.87860489 16.26041222 C153.19769863 16.22645151 157.51621366 16.21600961 161.83542824 16.22352409 C163.41969638 16.22214957 165.00398406 16.21221711 166.58813667 16.19303513 C168.75438097 16.16809342 170.91845095 16.17415829 173.08474731 16.18778992 C174.2959833 16.18318095 175.50721928 16.17857199 176.75515938 16.17382336 C181.77122086 17.10472376 184.49765226 19.80358498 187.66259766 23.79931641 C188.05753418 24.44819824 188.4524707 25.09708008 188.859375 25.765625 C189.54966797 26.8803418 189.54966797 26.8803418 190.25390625 28.01757812 C190.72957031 28.80841797 191.20523437 29.59925781 191.6953125 30.4140625 C192.74972455 32.12516977 193.80441998 33.83610244 194.859375 35.546875 C195.65843262 36.85446777 195.65843262 36.85446777 196.47363281 38.18847656 C198.96572624 42.2474642 201.51931216 46.26694341 204.0703125 50.2890625 C205.07064359 51.87218668 206.07064277 53.45552062 207.0703125 55.0390625 C207.5653125 55.8228125 208.0603125 56.6065625 208.5703125 57.4140625 C214.0703125 66.12239583 219.5703125 74.83072917 225.0703125 83.5390625 C225.56619873 84.32394043 226.06208496 85.10881836 226.57299805 85.91748047 C227.56505236 87.48878579 228.55611351 89.06071863 229.54614258 90.63330078 C232.15958855 94.78155935 234.79330487 98.91506614 237.45703125 103.03125 C238.28557617 104.31999023 238.28557617 104.31999023 239.13085938 105.63476562 C240.1896438 107.28077503 241.25444869 108.9229325 242.32617188 110.56054688 C246.85319841 117.6236884 246.85319841 117.6236884 247.0703125 121.7890625 C246.7403125 122.1190625 246.4103125 122.4490625 246.0703125 122.7890625 C232.8703125 122.7890625 219.6703125 122.7890625 206.0703125 122.7890625 C206.0703125 198.0290625 206.0703125 273.2690625 206.0703125 350.7890625 C220.5903125 350.7890625 235.1103125 350.7890625 250.0703125 350.7890625 C255.0703125 353.7890625 255.0703125 353.7890625 256.0703125 354.7890625 C256.65872922 361.96774649 256.65872922 361.96774649 254.56571198 364.88919401 C251.08111489 367.54218656 247.92382509 367.34184722 243.71813965 367.29242706 C242.86378232 367.29824083 242.00942499 367.30405459 241.12917805 367.31004453 C238.24664385 367.32472222 235.36495083 367.31072316 232.48242188 367.29699707 C230.40291659 367.30160291 228.32341455 367.30795368 226.24391937 367.31590605 C220.51419806 367.33266597 214.78474187 367.32432275 209.05501938 367.31196117 C202.8817944 367.30294021 196.70861619 367.3168657 190.53540039 367.32788086 C179.13592565 367.34467136 167.73655947 367.34317151 156.33708739 367.33223499 C145.80699121 367.32218185 135.27692617 367.31954171 124.74682617 367.32432556 C124.04896285 367.3246311 123.35109953 367.32493664 122.63208884 367.32525144 C119.7993976 367.32649675 116.96670638 367.32777034 114.13401517 367.3290905 C87.5487331 367.34133282 60.96350513 367.33022264 34.37823141 367.30870291 C10.74691695 367.28971977 -12.8843113 367.29141826 -36.515625 367.31054688 C-63.05156528 367.33195476 -89.58745774 367.34046468 -116.12340546 367.32809782 C-118.95100402 367.32681491 -121.77860259 367.32556355 -124.60620117 367.32432556 C-125.30245332 367.32400925 -125.99870547 367.32369294 -126.71605617 367.32336705 C-137.24081161 367.31881275 -147.76553254 367.32414645 -158.2902832 367.33424377 C-170.2546606 367.34566487 -182.21893613 367.3424694 -194.18330956 367.3211208 C-200.29209552 367.31058121 -206.40070615 367.30653802 -212.50949097 367.31971741 C-218.09547384 367.33158694 -223.68111793 367.32516889 -229.26706982 367.3038072 C-231.29392249 367.29931798 -233.32080346 367.30165893 -235.34763813 367.31131035 C-238.09134401 367.32337889 -240.83387155 367.31109711 -243.57751465 367.29242706 C-244.77292264 367.30647406 -244.77292264 367.30647406 -245.99248028 367.32080483 C-249.56391746 367.27183945 -251.54225176 367.08523997 -254.42069244 364.88479948 C-256.96244998 361.35473141 -256.40398883 359.05777449 -255.9296875 354.7890625 C-254.11805483 352.11474761 -253.05207673 351.82985891 -249.9296875 350.7890625 C-247.19103463 350.71855136 -244.47941162 350.69548485 -241.7421875 350.7265625 C-240.99259766 350.73107422 -240.24300781 350.73558594 -239.47070312 350.74023438 C-237.62366367 350.75199896 -235.77666537 350.76993385 -233.9296875 350.7890625 C-233.99929687 349.23445312 -233.99929687 349.23445312 -234.0703125 347.6484375 C-234.10784025 346.27867471 -234.14423934 344.90888068 -234.1796875 343.5390625 C-234.21320313 342.85714844 -234.24671875 342.17523438 -234.28125 341.47265625 C-234.34512021 338.1833404 -234.14098161 336.12290719 -232.3671875 333.3203125 C-229.01373988 331.21365951 -226.60576422 331.39365225 -222.6796875 331.5390625 C-221.41640625 331.57515625 -220.153125 331.61125 -218.8515625 331.6484375 C-217.88734375 331.69484375 -216.923125 331.74125 -215.9296875 331.7890625 C-216.25195312 331.12390625 -216.57421875 330.45875 -216.90625 329.7734375 C-219.33813532 322.68198566 -219.1814338 312.61653662 -216.2421875 305.7265625 C-215.14453125 303.69140625 -215.14453125 303.69140625 -213.9296875 301.7890625 C-213.49785156 301.10972656 -213.06601563 300.43039062 -212.62109375 299.73046875 C-209.44528872 295.04686311 -209.44528872 295.04686311 -206.9296875 293.7890625 C-206.4346875 209.1440625 -206.4346875 209.1440625 -205.9296875 122.7890625 C-219.1296875 122.7890625 -232.3296875 122.7890625 -245.9296875 122.7890625 C-246.9296875 118.7890625 -246.9296875 118.7890625 -245.11328125 115.234375 C-244.210897 113.78610189 -243.2943841 112.34657735 -242.3671875 110.9140625 C-241.873396 110.1295874 -241.37960449 109.3451123 -240.87084961 108.53686523 C-239.2359074 105.94636815 -237.5831876 103.36774655 -235.9296875 100.7890625 C-234.78548025 98.9862975 -233.64226237 97.18290419 -232.5 95.37890625 C-230.14351623 91.66229105 -227.77981434 87.95041626 -225.41015625 84.2421875 C-222.19236248 79.20533163 -218.99396829 74.15650952 -215.8046875 69.1015625 C-215.31677734 68.32876953 -214.82886719 67.55597656 -214.32617188 66.75976562 C-211.87146655 62.87070393 -209.42023736 58.97948662 -206.97265625 55.0859375 C-204.49332122 51.14403457 -202.00418089 47.20848057 -199.5078125 43.27734375 C-198.40887109 41.54460693 -197.3127264 39.81009454 -196.21875 38.07421875 C-194.48530461 35.32767084 -192.74004679 32.58895455 -190.9921875 29.8515625 C-190.46052979 29.004729 -189.92887207 28.15789551 -189.38110352 27.28540039 C-188.87248779 26.49383545 -188.36387207 25.70227051 -187.83984375 24.88671875 C-187.39777588 24.19070557 -186.95570801 23.49469238 -186.50024414 22.77758789 C-183.68835548 19.21737755 -181.31391649 17.00249703 -176.73758221 16.29687119 C-175.52542443 16.30055836 -174.31326666 16.30424553 -173.06437683 16.30804443 C-172.38631857 16.30462673 -171.7082603 16.30120903 -171.00965482 16.29768777 C-168.74452764 16.29111504 -166.48059359 16.31307286 -164.21557617 16.33496094 C-162.58924386 16.33608956 -160.9629095 16.33545527 -159.33657837 16.33319092 C-154.92567932 16.3320434 -150.51521548 16.35555874 -146.10441756 16.38348675 C-141.49332496 16.4084941 -136.88222234 16.41084188 -132.27107239 16.41558838 C-123.54110675 16.42802011 -114.81134151 16.46084441 -106.08146411 16.50098634 C-96.14202507 16.54569788 -86.20257645 16.56768954 -76.26306188 16.58776808 C-55.81849191 16.62957685 -35.37410233 16.69993278 -14.9296875 16.7890625 C-14.64448242 16.19125977 -14.35927734 15.59345703 -14.06542969 14.97753906 C-12.45988908 11.88380175 -10.35375347 9.24370409 -8.1796875 6.5390625 C-7.76203125 5.98476562 -7.344375 5.43046875 -6.9140625 4.859375 C-4.77931358 2.21697237 -3.30475011 0.89007936 0 0 Z " fill="#FED4B2" transform="translate(255.9296875,72.2109375)"/>
<path d="M0 0 C4.59760264 1.18157218 6.56886317 4.03476471 9.4453125 7.6640625 C10.26322266 8.64052734 10.26322266 8.64052734 11.09765625 9.63671875 C15.0703125 14.46563675 15.0703125 14.46563675 15.0703125 16.7890625 C16.33756511 16.78214905 16.33756511 16.78214905 17.63041878 16.77509594 C38.18669322 16.66467638 58.74291655 16.58193492 79.29942513 16.53000164 C89.24041519 16.50421955 99.1812073 16.46906888 109.12207031 16.41186523 C117.78649619 16.36203047 126.45077871 16.32977152 135.11534393 16.31862003 C139.70327811 16.31210138 144.29080215 16.29678073 148.87860489 16.26041222 C153.19769863 16.22645151 157.51621366 16.21600961 161.83542824 16.22352409 C163.41969638 16.22214957 165.00398406 16.21221711 166.58813667 16.19303513 C168.75438097 16.16809342 170.91845095 16.17415829 173.08474731 16.18778992 C174.2959833 16.18318095 175.50721928 16.17857199 176.75515938 16.17382336 C181.77122086 17.10472376 184.49765226 19.80358498 187.66259766 23.79931641 C188.05753418 24.44819824 188.4524707 25.09708008 188.859375 25.765625 C189.54966797 26.8803418 189.54966797 26.8803418 190.25390625 28.01757812 C190.72957031 28.80841797 191.20523437 29.59925781 191.6953125 30.4140625 C192.74972455 32.12516977 193.80441998 33.83610244 194.859375 35.546875 C195.65843262 36.85446777 195.65843262 36.85446777 196.47363281 38.18847656 C198.96572624 42.2474642 201.51931216 46.26694341 204.0703125 50.2890625 C205.07064359 51.87218668 206.07064277 53.45552062 207.0703125 55.0390625 C207.5653125 55.8228125 208.0603125 56.6065625 208.5703125 57.4140625 C214.0703125 66.12239583 219.5703125 74.83072917 225.0703125 83.5390625 C225.56619873 84.32394043 226.06208496 85.10881836 226.57299805 85.91748047 C227.56505236 87.48878579 228.55611351 89.06071863 229.54614258 90.63330078 C232.15958855 94.78155935 234.79330487 98.91506614 237.45703125 103.03125 C238.28557617 104.31999023 238.28557617 104.31999023 239.13085938 105.63476562 C240.1896438 107.28077503 241.25444869 108.9229325 242.32617188 110.56054688 C246.85319841 117.6236884 246.85319841 117.6236884 247.0703125 121.7890625 C246.0703125 122.7890625 246.0703125 122.7890625 243.72959805 122.91211033 C242.68336301 122.91118854 241.63712797 122.91026674 240.55918884 122.90931702 C238.76491203 122.91137901 238.76491203 122.91137901 236.93438721 122.91348267 C235.59680151 122.90994307 234.25921606 122.90630825 232.92163086 122.90258789 C231.52248639 122.90230602 230.12334177 122.90246375 228.72419739 122.9030304 C224.91444791 122.90331838 221.10472964 122.89742148 217.29498744 122.89045644 C213.31779941 122.88422309 209.34061074 122.88361912 205.36341858 122.88243103 C197.82692711 122.87931766 190.29045007 122.87110419 182.75396496 122.86108154 C174.17611422 122.84992058 165.5982628 122.84441 157.0204066 122.83938611 C139.37036704 122.82892158 121.72034093 122.81132203 104.0703125 122.7890625 C104.77607422 123.69398438 104.77607422 123.69398438 105.49609375 124.6171875 C106.11871094 125.41640625 106.74132812 126.215625 107.3828125 127.0390625 C107.99769531 127.82796875 108.61257813 128.616875 109.24609375 129.4296875 C109.84808594 130.20828125 110.45007813 130.986875 111.0703125 131.7890625 C111.66199219 132.48515625 112.25367188 133.18125 112.86328125 133.8984375 C113.26160156 134.52234375 113.65992188 135.14625 114.0703125 135.7890625 C113.7403125 136.7790625 113.4103125 137.7690625 113.0703125 138.7890625 C85.0894487 141.2140707 85.0894487 141.2140707 78.72265625 136.05859375 C76.06671682 133.20075742 74.03530797 130.00367583 72.12939453 126.609375 C70.60089785 123.98224931 68.67681564 121.77354646 66.6953125 119.4765625 C65.98375 118.60128906 65.2721875 117.72601563 64.5390625 116.82421875 C56.7476954 107.24527534 48.89254457 97.72060936 40.89624023 88.31201172 C37.40614353 84.20049658 33.98091991 80.04004941 30.57421875 75.859375 C27.45688282 72.03686947 24.32839477 68.22366798 21.1953125 64.4140625 C20.59968506 63.68977051 20.00405762 62.96547852 19.39038086 62.21923828 C15.12375438 57.04177199 10.81285337 51.90411993 6.44580078 46.81103516 C4.49899375 44.5308759 2.73705267 42.28917275 1.0703125 39.7890625 C-2.64532284 41.02760761 -3.52427341 42.47923428 -5.9296875 45.5390625 C-6.72246094 46.53292969 -7.51523438 47.52679688 -8.33203125 48.55078125 C-8.96407471 49.34427979 -8.96407471 49.34427979 -9.60888672 50.15380859 C-11.85147465 52.93030655 -14.17492681 55.63737851 -16.4921875 58.3515625 C-19.69777015 62.11933468 -22.85659261 65.91155831 -25.9296875 69.7890625 C-29.00281558 73.66660857 -32.16242136 77.45806111 -35.3671875 81.2265625 C-39.43937236 86.01573508 -43.45450357 90.84523213 -47.42578125 95.71875 C-66.40520166 118.99148705 -66.40520166 118.99148705 -73.52441406 127.02148438 C-75.04791604 128.85957301 -75.04791604 128.85957301 -76.48339844 131.36914062 C-79.30365649 135.69833631 -81.20571121 138.38884937 -86.38232422 139.59057617 C-90.44540959 139.77336148 -94.37660769 139.66630913 -98.4296875 139.4140625 C-99.83838292 139.36382141 -101.2472514 139.31820798 -102.65625 139.27734375 C-106.08518249 139.15991456 -109.50518097 138.99593325 -112.9296875 138.7890625 C-112.9296875 134.7890625 -112.9296875 134.7890625 -103.9296875 122.7890625 C-150.7896875 122.7890625 -197.6496875 122.7890625 -245.9296875 122.7890625 C-246.9296875 118.7890625 -246.9296875 118.7890625 -245.11328125 115.234375 C-244.210897 113.78610189 -243.2943841 112.34657735 -242.3671875 110.9140625 C-241.873396 110.1295874 -241.37960449 109.3451123 -240.87084961 108.53686523 C-239.2359074 105.94636815 -237.5831876 103.36774655 -235.9296875 100.7890625 C-234.78548025 98.9862975 -233.64226237 97.18290419 -232.5 95.37890625 C-230.14351623 91.66229105 -227.77981434 87.95041626 -225.41015625 84.2421875 C-222.19236248 79.20533163 -218.99396829 74.15650952 -215.8046875 69.1015625 C-215.07282227 67.94237305 -215.07282227 67.94237305 -214.32617188 66.75976562 C-211.87146655 62.87070393 -209.42023736 58.97948662 -206.97265625 55.0859375 C-204.49332122 51.14403457 -202.00418089 47.20848057 -199.5078125 43.27734375 C-198.40887109 41.54460693 -197.3127264 39.81009454 -196.21875 38.07421875 C-194.48530461 35.32767084 -192.74004679 32.58895455 -190.9921875 29.8515625 C-190.46052979 29.004729 -189.92887207 28.15789551 -189.38110352 27.28540039 C-188.87248779 26.49383545 -188.36387207 25.70227051 -187.83984375 24.88671875 C-187.39777588 24.19070557 -186.95570801 23.49469238 -186.50024414 22.77758789 C-183.68835548 19.21737755 -181.31391649 17.00249703 -176.73758221 16.29687119 C-175.52542443 16.30055836 -174.31326666 16.30424553 -173.06437683 16.30804443 C-172.38631857 16.30462673 -171.7082603 16.30120903 -171.00965482 16.29768777 C-168.74452764 16.29111504 -166.48059359 16.31307286 -164.21557617 16.33496094 C-162.58924386 16.33608956 -160.9629095 16.33545527 -159.33657837 16.33319092 C-154.92567932 16.3320434 -150.51521548 16.35555874 -146.10441756 16.38348675 C-141.49332496 16.4084941 -136.88222234 16.41084188 -132.27107239 16.41558838 C-123.54110675 16.42802011 -114.81134151 16.46084441 -106.08146411 16.50098634 C-96.14202507 16.54569788 -86.20257645 16.56768954 -76.26306188 16.58776808 C-55.81849191 16.62957685 -35.37410233 16.69993278 -14.9296875 16.7890625 C-14.64448242 16.19125977 -14.35927734 15.59345703 -14.06542969 14.97753906 C-12.45988908 11.88380175 -10.35375347 9.24370409 -8.1796875 6.5390625 C-7.76203125 5.98476562 -7.344375 5.43046875 -6.9140625 4.859375 C-4.77931358 2.21697237 -3.30475011 0.89007936 0 0 Z " fill="#B27630" transform="translate(255.9296875,72.2109375)"/>
<path d="M0 0 C3.66164353 1.48906837 5.4524916 3.47545136 7.875 6.5625 C9.050625 8.03783203 9.050625 8.03783203 10.25 9.54296875 C10.68441406 10.09130371 11.11882812 10.63963867 11.56640625 11.20458984 C14.29804271 14.62564818 17.09003785 17.99733207 19.875 21.375 C20.47513916 22.10420654 21.07527832 22.83341309 21.69360352 23.5847168 C25.8135152 28.58361706 29.97906982 33.54113433 34.17407227 38.47705078 C37.66416897 42.58856592 41.08939259 46.74901309 44.49609375 50.9296875 C52.30238682 60.5018347 60.15047933 70.03697094 68.14990234 79.44848633 C72.50234833 84.57565794 76.79424833 89.7515724 81 95 C81.52623113 95.53077526 82.05246225 96.06155052 82.59463978 96.60840988 C84.67281372 100.14496955 84.40319293 103.61891344 84.36076355 107.60528564 C84.36332682 108.48258355 84.3658901 109.35988145 84.36853105 110.26376414 C84.37347979 113.20890623 84.35695796 116.1535378 84.34057617 119.09863281 C84.33973014 121.20757027 84.34020458 123.31650861 84.34190369 125.42544556 C84.34276598 131.15650797 84.32510226 136.88738279 84.30418181 142.61840153 C84.28545404 148.60551571 84.28366765 154.59263399 84.28010559 160.57977295 C84.27077366 171.91987403 84.24614431 183.25988857 84.21605712 194.59995151 C84.18254885 207.50909725 84.16603609 220.41824709 84.15097082 233.32742548 C84.11959578 259.88500939 84.06456932 286.44247462 84 313 C69.48 313 54.96 313 40 313 C39.67 272.74 39.34 232.48 39 191 C36.04790615 189.52395308 33.39858839 189.8563574 30.10351562 189.83886719 C29.39442551 189.83390228 28.68533539 189.82893738 27.95475769 189.82382202 C25.60524533 189.80919656 23.25580043 189.80239885 20.90625 189.796875 C19.27722165 189.79112517 17.64819333 189.78536742 16.01916504 189.77960205 C12.60277999 189.76909187 9.18641848 189.76324889 5.77001953 189.75976562 C1.38477518 189.75427173 -3.0001601 189.73022496 -7.38530731 189.70179367 C-10.74982627 189.68320657 -14.11427008 189.67796387 -17.47883606 189.67642975 C-19.09603063 189.67339528 -20.71322364 189.66534015 -22.33036804 189.65224457 C-24.58832638 189.63526059 -26.84552 189.63704468 -29.10351562 189.64355469 C-31.03306091 189.63808624 -31.03306091 189.63808624 -33.00158691 189.63250732 C-33.99106323 189.75377991 -34.98053955 189.87505249 -36 190 C-38.16542378 193.24813567 -38.25493252 194.16173759 -38.2784729 197.91642761 C-38.28963638 198.93025009 -38.30079987 199.94407257 -38.31230164 200.98861694 C-38.31446182 202.09991974 -38.31662201 203.21122253 -38.31884766 204.35620117 C-38.33391609 206.11250099 -38.33391609 206.11250099 -38.34928894 207.90428162 C-38.37490204 211.11475372 -38.39174437 214.32512931 -38.40471697 217.5356729 C-38.42033848 220.8909648 -38.44713179 224.24616686 -38.4727478 227.60139465 C-38.51955303 233.95488552 -38.55628864 240.30839325 -38.58942068 246.66196853 C-38.62762979 253.89532955 -38.67704309 261.1286004 -38.72740483 268.36188543 C-38.83075062 283.24119645 -38.91852321 298.12055015 -39 313 C-53.19 313 -67.38 313 -82 313 C-82.24855264 285.3223597 -82.45107953 257.64562648 -82.56993389 229.9671526 C-82.62659311 217.11482021 -82.70380398 204.26323176 -82.82983398 191.41137695 C-82.93966233 180.20631373 -83.01048486 169.00178939 -83.03497344 157.79620284 C-83.04928308 151.86559578 -83.08277866 145.93653 -83.16303062 140.00641823 C-83.23805266 134.41714485 -83.2606574 128.83003785 -83.24418449 123.24030876 C-83.24719505 121.19608889 -83.26886895 119.15179184 -83.31126022 117.10800934 C-83.5075624 107.15003095 -83.61624066 99.24826702 -76.71101379 91.53153992 C-74.85580778 89.62923681 -72.93565359 87.82321949 -71 86 C-69.43117727 84.14766193 -67.88464876 82.27587394 -66.375 80.375 C-65.64796875 79.48296875 -64.9209375 78.5909375 -64.171875 77.671875 C-63.45515625 76.79015625 -62.7384375 75.9084375 -62 75 C-57.2202825 69.11991588 -52.40526403 63.27559389 -47.5 57.5 C-43.44999489 52.73078305 -39.45648144 47.92087884 -35.50390625 43.0703125 C-27.678934 33.47526072 -19.81208349 23.9179632 -11.78637695 14.48999023 C-7.75476726 9.74107703 -3.85475355 4.89299663 0 0 Z " fill="#FEFEFE" transform="translate(255,111)"/>
<path d="M0 0 C33.66 0 67.32 0 102 0 C99.90589254 4.18821492 97.39867029 7.36734793 94.4609375 10.9765625 C92.80487458 12.85429994 92.80487458 12.85429994 93 15 C107.85 15.495 107.85 15.495 123 16 C123 86.29 123 156.58 123 229 C73.17 229 23.34 229 -28 229 C-28 213 -28 213 -24 209 C-20.546875 208.609375 -20.546875 208.609375 -16.75 208.75 C-15.48671875 208.78609375 -14.2234375 208.8221875 -12.921875 208.859375 C-11.95765625 208.90578125 -10.9934375 208.9521875 -10 209 C-10.32226562 208.33484375 -10.64453125 207.6696875 -10.9765625 206.984375 C-13.40844782 199.89292316 -13.2517463 189.82747412 -10.3125 182.9375 C-9.21484375 180.90234375 -9.21484375 180.90234375 -8 179 C-7.56816406 178.32066406 -7.13632812 177.64132812 -6.69140625 176.94140625 C-3.51560122 172.25780061 -3.51560122 172.25780061 -1 171 C-0.505 86.355 -0.505 86.355 0 0 Z " fill="#FDD4B2" transform="translate(50,195)"/>
<path d="M0 0 C21.27925284 -0.11680065 42.55845283 -0.20497222 63.8379612 -0.25906086 C73.71841777 -0.28484269 83.59867517 -0.31999287 93.47900391 -0.37719727 C102.09069208 -0.42703282 110.70223601 -0.45929117 119.31406438 -0.47044247 C123.874054 -0.47696099 128.43363095 -0.49228078 132.99348831 -0.52865028 C137.28631816 -0.56261225 141.57856575 -0.57305264 145.87151718 -0.56553841 C147.44611018 -0.56691287 149.02072284 -0.5768446 150.59519958 -0.59602737 C152.74831091 -0.62097113 154.89923493 -0.61490356 157.05239868 -0.60127258 C158.25626032 -0.60588155 159.46012196 -0.61049051 160.70046425 -0.61523914 C165.7034199 0.31762365 168.43536926 3.02465969 171.59228516 7.01025391 C171.98722168 7.65913574 172.3821582 8.30801758 172.7890625 8.9765625 C173.24925781 9.71970703 173.70945312 10.46285156 174.18359375 11.22851562 C174.65925781 12.01935547 175.13492188 12.81019531 175.625 13.625 C176.67941205 15.33610727 177.73410748 17.04703994 178.7890625 18.7578125 C179.32176758 19.62954102 179.85447266 20.50126953 180.40332031 21.39941406 C182.89541374 25.4584017 185.44899966 29.47788091 188 33.5 C189.00033109 35.08312418 190.00033027 36.66645812 191 38.25 C191.495 39.03375 191.99 39.8175 192.5 40.625 C198 49.33333333 203.5 58.04166667 209 66.75 C209.49588623 67.53487793 209.99177246 68.31975586 210.50268555 69.12841797 C211.49473986 70.69972329 212.48580101 72.27165613 213.47583008 73.84423828 C216.08927605 77.99249685 218.72299237 82.12600364 221.38671875 86.2421875 C222.21526367 87.53092773 222.21526367 87.53092773 223.06054688 88.84570312 C224.1193313 90.49171253 225.18413619 92.13387 226.25585938 93.77148438 C230.78288591 100.8346259 230.78288591 100.8346259 231 105 C229.26842961 106.73157039 226.90894821 106.20747526 224.54512024 106.27261353 C222.76857056 106.32414833 222.76857056 106.32414833 220.95613098 106.37672424 C218.98878242 106.42541908 218.98878242 106.42541908 216.98168945 106.47509766 C215.59540287 106.51248578 214.20912164 106.55007286 212.82284546 106.58784485 C200.11987204 106.92413519 187.41434164 107.15316676 174.70858479 107.35408974 C166.16963709 107.49084514 157.63384678 107.65959109 149.09741211 107.91015625 C141.64808489 108.12879452 134.20037667 108.2861843 126.74828118 108.37114179 C122.80703508 108.4180502 118.87149376 108.49386661 114.9326725 108.6427803 C89.1106343 109.58640505 89.1106343 109.58640505 82.07650757 103.35516357 C78.93536745 99.90150126 76.51514034 96.19836983 74.25613976 92.12491989 C72.28475233 88.79006775 69.7645407 85.99955348 67.1875 83.125 C66.28836051 82.07312963 65.39246815 81.01847411 64.5 79.9609375 C63.675 78.98382813 62.85 78.00671875 62 77 C59.82390142 74.36536636 57.66248987 71.71930778 55.50390625 69.0703125 C47.68971525 59.48848079 39.83306826 49.94429692 31.82592773 40.52294922 C28.34359404 36.42057931 24.9253781 32.26992627 21.52734375 28.09765625 C18.28017257 24.11773856 15.0156324 20.15227403 11.75 16.1875 C11.15920654 15.46981445 10.56841309 14.75212891 9.9597168 14.01269531 C9.390354 13.32143555 8.82099121 12.63017578 8.234375 11.91796875 C7.68845703 11.2532959 7.14253906 10.58862305 6.58007812 9.90380859 C5.55413501 8.66766761 4.51691929 7.44076485 3.46679688 6.22509766 C0 2.20122407 0 2.20122407 0 0 Z " fill="#B27630" transform="translate(272,89)"/>
<path d="M0 0 C0.70748383 -0.00350464 1.41496765 -0.00700928 2.14389038 -0.01062012 C4.48868549 -0.01944128 6.8331802 -0.01358644 9.17797852 -0.00683594 C10.8046118 -0.00818263 12.43124469 -0.0101232 14.05787659 -0.01263428 C17.47010117 -0.01558618 20.88222116 -0.01128637 24.29443359 -0.00195312 C28.67056083 0.00943245 33.04644251 0.00288811 37.42256069 -0.00909805 C40.7828405 -0.01632261 44.14306203 -0.01402583 47.50334358 -0.00884247 C49.1169036 -0.00750715 50.73046889 -0.00914958 52.34402275 -0.01380157 C54.59928281 -0.01887562 56.85414463 -0.01114406 59.109375 0 C61.03558937 0.00238678 61.03558937 0.00238678 63.00071716 0.00482178 C66.11938477 0.25878906 66.11938477 0.25878906 69.11938477 2.25878906 C69.48852825 4.41020393 69.48852825 4.41020393 69.48014832 7.13088989 C69.48427231 8.16016602 69.4883963 9.18944214 69.49264526 10.24990845 C69.48185944 11.383508 69.47107361 12.51710754 69.45996094 13.68505859 C69.46061806 15.47040009 69.46061806 15.47040009 69.46128845 17.29180908 C69.45955344 20.56033451 69.4444824 23.82847729 69.42356658 27.09692621 C69.40484435 30.51087953 69.40305287 33.92483994 69.39949036 37.33883667 C69.39015674 43.80579855 69.36552529 50.27260874 69.33544189 56.73950374 C69.29865372 64.822726 69.28220605 72.90597277 69.26586914 80.98925781 C69.23662847 95.41255314 69.17653597 109.83551734 69.11938477 124.25878906 C43.37938477 124.25878906 17.63938477 124.25878906 -8.88061523 124.25878906 C-8.96094257 93.85042946 -8.96094257 93.85042946 -8.98112297 78.87294197 C-8.99222279 70.75983476 -9.00633328 62.6467685 -9.03149414 54.53369141 C-9.05139972 48.11212285 -9.06432492 41.69058513 -9.06879222 35.26898658 C-9.07140443 31.86733616 -9.07756332 28.46577397 -9.09207535 25.06415176 C-9.10650503 21.27106655 -9.10859675 17.47816665 -9.10766602 13.68505859 C-9.11485657 12.55145905 -9.12204712 11.4178595 -9.12945557 10.24990845 C-9.12670624 9.22063232 -9.12395691 8.1913562 -9.12112427 7.13088989 C-9.12296785 6.23306353 -9.12481144 5.33523716 -9.12671089 4.41020393 C-8.51942004 -0.8988478 -4.31950667 0.00535564 0 0 Z " fill="#775436" transform="translate(225.880615234375,299.7412109375)"/>
<path d="M0 0 C4.22616284 2.85286428 6.92767727 5.24080928 10.01953125 9.36328125 C10.01953125 28.17328125 10.01953125 46.98328125 10.01953125 66.36328125 C-39.81046875 66.36328125 -89.64046875 66.36328125 -140.98046875 66.36328125 C-140.98046875 50.36328125 -140.98046875 50.36328125 -136.98046875 46.36328125 C-133.52734375 45.97265625 -133.52734375 45.97265625 -129.73046875 46.11328125 C-128.4671875 46.149375 -127.20390625 46.18546875 -125.90234375 46.22265625 C-124.938125 46.2690625 -123.97390625 46.31546875 -122.98046875 46.36328125 C-123.30273438 45.698125 -123.625 45.03296875 -123.95703125 44.34765625 C-126.38891657 37.25620441 -126.23221505 27.19075537 -123.29296875 20.30078125 C-122.56001623 18.96675693 -121.79055088 17.65192675 -120.98046875 16.36328125 C-120.64144531 15.74195313 -120.30242187 15.120625 -119.953125 14.48046875 C-115.63465999 7.38035901 -107.79331385 3.51549896 -99.98046875 1.36328125 C-90.25171703 0.37196295 -81.65522813 1.09508616 -73.6953125 7.08203125 C-70.64097785 9.69844859 -67.81407973 12.51233932 -64.98046875 15.36328125 C-63.99046875 15.03328125 -63.00046875 14.70328125 -61.98046875 14.36328125 C-59.83633652 14.26823497 -57.68920105 14.23340899 -55.54296875 14.23828125 C-54.40988281 14.23570312 -53.27679688 14.233125 -52.109375 14.23046875 C-49.52825692 14.34002932 -47.4310247 14.60463248 -44.98046875 15.36328125 C-44.70203125 14.37328125 -44.70203125 14.37328125 -44.41796875 13.36328125 C-41.34840585 6.95723694 -36.21437948 1.73998289 -29.98046875 -1.63671875 C-19.89792698 -4.9894382 -9.3410682 -5.49930217 0 0 Z " fill="#775436" transform="translate(162.98046875,357.63671875)"/>
<path d="M0 0 C4.01112541 1.55477109 6.07181964 4.14228789 8.75 7.4375 C9.54921875 8.40558594 10.3484375 9.37367187 11.171875 10.37109375 C13 13 13 13 13 16 C11.28553297 18.19320128 9.54633249 20.24791564 7.6875 22.3125 C3.49081358 27.08024862 -0.56276683 31.90457804 -4.4375 36.9375 C-8.87096607 42.66846743 -13.53638774 48.15720902 -18.30664062 53.60961914 C-22.14649229 58.00136387 -25.88518078 62.45961532 -29.55859375 66.9921875 C-32.68566962 70.84474497 -35.84291239 74.672026 -39 78.5 C-40.68120823 80.5386381 -42.36015341 82.57502317 -44.00180149 84.6457243 C-46 87 -46 87 -48.28360653 89.09879017 C-55.71401454 96.50312091 -56.1505908 102.91171902 -56.1832428 113.01280212 C-56.16084066 115.00358015 -56.13757287 116.99434859 -56.11352539 118.98510742 C-56.12085783 121.1049464 -56.13214338 123.22477482 -56.14706421 125.34457397 C-56.17626917 131.07358638 -56.15044945 136.80116413 -56.11447453 142.53008819 C-56.08626757 148.52657467 -56.10904399 154.52286658 -56.12632751 160.5193634 C-56.15131974 171.86293649 -56.13070419 183.20594615 -56.09355396 194.54946738 C-56.05347555 207.468516 -56.06446684 220.38736493 -56.07967007 233.30644834 C-56.10979143 259.87114584 -56.07422083 286.43540675 -56 313 C-64.58 313 -73.16 313 -82 313 C-82.2549142 285.32260246 -82.45108012 257.64548882 -82.56993389 229.9671526 C-82.62659311 217.11482021 -82.70380398 204.26323176 -82.82983398 191.41137695 C-82.93966233 180.20631373 -83.01048486 169.00178939 -83.03497344 157.79620284 C-83.04928308 151.86559578 -83.08277866 145.93653 -83.16303062 140.00641823 C-83.23805266 134.41714485 -83.2606574 128.83003785 -83.24418449 123.24030876 C-83.24719505 121.19608889 -83.26886895 119.15179184 -83.31126022 117.10800934 C-83.5075624 107.15003095 -83.61624066 99.24826702 -76.71101379 91.53153992 C-74.85580778 89.62923681 -72.93565359 87.82321949 -71 86 C-69.43117727 84.14766193 -67.88464876 82.27587394 -66.375 80.375 C-65.64796875 79.48296875 -64.9209375 78.5909375 -64.171875 77.671875 C-63.45515625 76.79015625 -62.7384375 75.9084375 -62 75 C-57.2202825 69.11991588 -52.40526403 63.27559389 -47.5 57.5 C-43.44999489 52.73078305 -39.45648144 47.92087884 -35.50390625 43.0703125 C-27.678934 33.47526072 -19.81208349 23.9179632 -11.78637695 14.48999023 C-7.75476726 9.74107703 -3.85475355 4.89299663 0 0 Z " fill="#E4E4E4" transform="translate(255,111)"/>
<path d="M0 0 C4.59917269 1.06664105 6.41426048 3.73712426 9.2578125 7.3515625 C9.76957031 7.96902344 10.28132813 8.58648437 10.80859375 9.22265625 C13.05532819 11.96609804 15.13138801 14.72441012 17.08984375 17.68359375 C19.71822195 21.59852036 22.67943498 25.16869448 25.6953125 28.7890625 C26.62186646 29.90788818 26.62186646 29.90788818 27.56713867 31.04931641 C31.78065188 36.1281289 36.03245387 41.17377822 40.30566406 46.20239258 C43.79641523 50.31410702 47.22184335 54.47513166 50.62890625 58.65625 C53.74624224 62.47875559 56.8747419 66.29194737 60.0078125 70.1015625 C60.60996582 70.83383057 61.21211914 71.56609863 61.83251953 72.32055664 C65.45672655 76.71872865 69.11941438 81.08035442 72.8203125 85.4140625 C77.09771924 90.42408974 81.1734167 95.57029995 85.21508789 100.77148438 C88.38672175 104.83245189 91.70848105 108.706636 95.171875 112.5234375 C98.18325963 115.90674613 101.03022853 119.41765622 103.875 122.94140625 C105.40191386 124.82495224 106.94951843 126.69188214 108.515625 128.54296875 C109.62550781 129.87134766 109.62550781 129.87134766 110.7578125 131.2265625 C111.43070313 132.020625 112.10359375 132.8146875 112.796875 133.6328125 C113.23773438 134.32375 113.67859375 135.0146875 114.1328125 135.7265625 C113.8028125 136.7165625 113.4728125 137.7065625 113.1328125 138.7265625 C85.1519487 141.1515707 85.1519487 141.1515707 78.78515625 135.99609375 C76.12921682 133.13825742 74.09780797 129.94117583 72.19189453 126.546875 C70.66339785 123.91974931 68.73931564 121.71104646 66.7578125 119.4140625 C66.04625 118.53878906 65.3346875 117.66351563 64.6015625 116.76171875 C56.8101954 107.18277534 48.95504457 97.65810936 40.95874023 88.24951172 C37.46864353 84.13799658 34.04341991 79.97754941 30.63671875 75.796875 C27.51938282 71.97436947 24.39089477 68.16116798 21.2578125 64.3515625 C20.66218506 63.62727051 20.06655762 62.90297852 19.45288086 62.15673828 C15.18625438 56.97927199 10.87535337 51.84161993 6.50830078 46.74853516 C4.56149375 44.4683759 2.79955267 42.22667275 1.1328125 39.7265625 C-2.58282284 40.96510761 -3.46177341 42.41673428 -5.8671875 45.4765625 C-7.05634766 46.96736328 -7.05634766 46.96736328 -8.26953125 48.48828125 C-8.69089355 49.01728027 -9.11225586 49.5462793 -9.54638672 50.09130859 C-11.78897465 52.86780655 -14.11242681 55.57487851 -16.4296875 58.2890625 C-19.63527015 62.05683468 -22.79409261 65.84905831 -25.8671875 69.7265625 C-28.94031558 73.60410857 -32.09992136 77.39556111 -35.3046875 81.1640625 C-39.37687236 85.95323508 -43.39200357 90.78273213 -47.36328125 95.65625 C-66.34270166 118.92898705 -66.34270166 118.92898705 -73.46191406 126.95898438 C-74.98541604 128.79707301 -74.98541604 128.79707301 -76.42089844 131.30664062 C-79.24115649 135.63583631 -81.14321121 138.32634937 -86.31982422 139.52807617 C-90.38290959 139.71086148 -94.31410769 139.60380913 -98.3671875 139.3515625 C-99.77588292 139.30132141 -101.1847514 139.25570798 -102.59375 139.21484375 C-106.02268249 139.09741456 -109.44268097 138.93343325 -112.8671875 138.7265625 C-112.8671875 134.02324839 -112.21362554 133.48052802 -109.2421875 130.0390625 C-108.42234375 129.07355469 -107.6025 128.10804688 -106.7578125 127.11328125 C-106.29826172 126.57751465 -105.83871094 126.04174805 -105.36523438 125.48974609 C-103.13754231 122.86777867 -100.96380926 120.20242661 -98.78442383 117.5402832 C-93.47836907 111.06040567 -88.11678761 104.63110364 -82.69311523 98.24951172 C-79.20301853 94.13799658 -75.77779491 89.97754941 -72.37109375 85.796875 C-64.55690275 76.21504329 -56.70025576 66.67085942 -48.69311523 57.24951172 C-45.2089259 53.14495577 -41.78815826 48.99279641 -38.390625 44.81640625 C-36.40445227 42.38442076 -34.40907441 39.96119779 -32.40625 37.54296875 C-31.79177002 36.80014648 -31.17729004 36.05732422 -30.54418945 35.29199219 C-29.33578984 33.83184925 -28.1260729 32.37279511 -26.91479492 30.91503906 C-23.57877641 26.87972423 -20.37371095 22.77676139 -17.25366211 18.57250977 C-15.32203479 16.00074815 -13.29070201 13.51827176 -11.2421875 11.0390625 C-7.96811535 7.07020427 -7.96811535 7.07020427 -4.96875 2.89453125 C-2.8671875 0.7265625 -2.8671875 0.7265625 0 0 Z " fill="#775436" transform="translate(255.8671875,72.2734375)"/>
<path d="M0 0 C0.33 0 0.66 0 1 0 C1 39.6 1 79.2 1 120 C18.17546875 119.9278125 35.3509375 119.855625 53.046875 119.78125 C64.01171834 119.73557652 74.97656185 119.68994991 85.94140625 119.64453125 C91.71370448 119.62061941 97.48600267 119.59669619 103.25830078 119.57275391 C103.98143491 119.56975497 104.70456903 119.56675604 105.44961631 119.56366622 C117.01561368 119.515684 128.58160828 119.46706403 140.14760193 119.41819459 C152.08074255 119.36778858 164.01388601 119.31810008 175.94703221 119.26903296 C182.62298239 119.24156315 189.29893085 119.21377468 195.9748764 119.18519592 C198.53686012 119.17427825 201.09884386 119.16336813 203.66082764 119.15246582 C204.90889749 119.1471209 206.15696735 119.14177598 207.4428575 119.13626909 C213.50680376 119.11079706 219.57074058 119.0878281 225.63471603 119.07053375 C227.94849398 119.06387541 230.2622719 119.05720996 232.5760498 119.05053711 C233.69822348 119.04737724 234.82039715 119.04421737 235.97657609 119.04096174 C242.64214278 119.01948846 249.30707745 118.97504214 255.97236705 118.91087484 C260.1153618 118.87268718 264.25838522 118.84573052 268.40147829 118.82074833 C270.31357393 118.80631622 272.22563804 118.78657438 274.13761854 118.76110744 C276.73249485 118.72690275 279.32687528 118.71098033 281.92193604 118.69934082 C282.67452021 118.68455342 283.42710439 118.66976603 284.20249414 118.65453053 C289.07677652 118.6578161 292.49219709 119.49219709 296 123 C296.58841672 130.17868399 296.58841672 130.17868399 294.49539948 133.10013151 C291.01080239 135.75312406 287.85351259 135.55278472 283.64782715 135.50336456 C282.79346982 135.50917833 281.93911249 135.51499209 281.05886555 135.52098203 C278.17633135 135.53565972 275.29463833 135.52166066 272.41210938 135.50793457 C270.33260409 135.51254041 268.25310205 135.51889118 266.17360687 135.52684355 C260.44388556 135.54360347 254.71442937 135.53526025 248.98470688 135.52289867 C242.8114819 135.51387771 236.63830369 135.5278032 230.46508789 135.53881836 C219.06561315 135.55560886 207.66624697 135.55410901 196.26677489 135.54317249 C185.73667871 135.53311935 175.20661367 135.53047921 164.67651367 135.53526306 C163.97865035 135.5355686 163.28078703 135.53587414 162.56177634 135.53618894 C159.7290851 135.53743425 156.89639388 135.53870784 154.06370267 135.540028 C127.4784206 135.55227032 100.89319263 135.54116014 74.30791891 135.51964041 C50.67660445 135.50065727 27.0453762 135.50235576 3.4140625 135.52148438 C-23.12187778 135.54289226 -49.65777024 135.55140218 -76.19371796 135.53903532 C-79.02131652 135.53775241 -81.84891509 135.53650105 -84.67651367 135.53526306 C-85.37276582 135.53494675 -86.06901797 135.53463044 -86.78636867 135.53430455 C-97.31112411 135.52975025 -107.83584504 135.53508395 -118.3605957 135.54518127 C-130.3249731 135.55660237 -142.28924863 135.5534069 -154.25362206 135.5320583 C-160.36240802 135.52151871 -166.47101865 135.51747552 -172.57980347 135.53065491 C-178.16578634 135.54252444 -183.75143043 135.53610639 -189.33738232 135.5147447 C-191.36423499 135.51025548 -193.39111596 135.51259643 -195.41795063 135.52224785 C-198.16165651 135.53431639 -200.90418405 135.52203461 -203.64782715 135.50336456 C-204.84323514 135.51741156 -204.84323514 135.51741156 -206.06279278 135.53174233 C-209.63422996 135.48277695 -211.61256426 135.29617747 -214.49100494 133.09573698 C-217.03276248 129.56566891 -216.47430133 127.26871199 -216 123 C-214.18836733 120.32568511 -213.12238923 120.04079641 -210 119 C-207.21330595 118.91795206 -204.45298218 118.89425889 -201.66682434 118.91770935 C-200.80671507 118.92093848 -199.9466058 118.92416761 -199.06043261 118.92749459 C-196.16760391 118.93959435 -193.27486899 118.95896211 -190.38208008 118.97827148 C-188.31270045 118.98841166 -186.2433186 118.99810561 -184.17393494 119.00738525 C-178.54616229 119.03389242 -172.91844129 119.06666661 -167.29070878 119.10053515 C-161.41303703 119.13485228 -155.53533758 119.16344857 -149.65763855 119.19264221 C-138.52293416 119.24882074 -127.38826447 119.31017148 -116.25359792 119.37336355 C-101.21045914 119.45843981 -86.16727975 119.53556071 -71.12410069 119.61311817 C-47.41602853 119.73555935 -23.70802838 119.86865918 0 120 C0 80.4 0 40.8 0 0 Z " fill="#C6A07E" transform="translate(216,304)"/>
<path d="M0 0 C0.75414185 -0.0038269 1.50828369 -0.00765381 2.28527832 -0.01159668 C3.8720026 -0.01430594 5.45877229 -0.00701395 7.04541016 0.00976562 C9.46228413 0.03119268 11.87618628 0.00993381 14.29296875 -0.015625 C15.84115234 -0.01298154 17.38933409 -0.00785619 18.9375 0 C19.65329224 -0.00809692 20.36908447 -0.01619385 21.10656738 -0.02453613 C26.20685204 0.069908 29.10215847 1.23626546 32.96875 4.53125 C36.70446749 9.14984675 37.55091464 12.75838368 37.48632812 18.55273438 C37.4933374 19.33401199 37.50034668 20.11528961 37.50756836 20.92024231 C37.52509568 23.48886224 37.51354495 26.05636992 37.5 28.625 C37.50269644 30.41809296 37.50658013 32.21118449 37.51159668 34.00427246 C37.51748458 37.75673383 37.50895174 41.50881356 37.49023438 45.26123047 C37.46744511 50.06315237 37.48057201 54.86417992 37.50452423 59.66606903 C37.51900145 63.36707253 37.51436743 67.06786516 37.50401306 70.76887512 C37.50135109 72.53904833 37.50459688 74.30924088 37.51393127 76.07939148 C37.52412884 78.55669623 37.50855245 81.03256724 37.48632812 83.50976562 C37.49442505 84.23617752 37.50252197 84.96258942 37.51086426 85.71101379 C37.42701489 90.77443013 36.13115468 93.62145971 32.96875 97.53125 C28.44980137 101.38215221 24.71479431 102.1278518 18.9375 102.0625 C18.18335815 102.0663269 17.42921631 102.07015381 16.65222168 102.07409668 C15.0654974 102.07680594 13.47872771 102.06951395 11.89208984 102.05273438 C9.47521587 102.03130732 7.06131372 102.05256619 4.64453125 102.078125 C3.09634766 102.07548154 1.54816591 102.07035619 0 102.0625 C-1.07368835 102.07464539 -1.07368835 102.07464539 -2.16906738 102.08703613 C-7.26935204 101.992592 -10.16465847 100.82623454 -14.03125 97.53125 C-17.76696749 92.91265325 -18.61341464 89.30411632 -18.54882812 83.50976562 C-18.5558374 82.72848801 -18.56284668 81.94721039 -18.57006836 81.14225769 C-18.58759568 78.57363776 -18.57604495 76.00613008 -18.5625 73.4375 C-18.56519644 71.64440704 -18.56908013 69.85131551 -18.57409668 68.05822754 C-18.57998458 64.30576617 -18.57145174 60.55368644 -18.55273438 56.80126953 C-18.52994511 51.99934763 -18.54307201 47.19832008 -18.56702423 42.39643097 C-18.58150145 38.69542747 -18.57686743 34.99463484 -18.56651306 31.29362488 C-18.56385109 29.52345167 -18.56709688 27.75325912 -18.57643127 25.98310852 C-18.58662884 23.50580377 -18.57105245 21.02993276 -18.54882812 18.55273438 C-18.55692505 17.82632248 -18.56502197 17.09991058 -18.57336426 16.35148621 C-18.48951489 11.28806987 -17.19365468 8.44104029 -14.03125 4.53125 C-9.51230137 0.68034779 -5.77729431 -0.0653518 0 0 Z " fill="#7A5739" transform="translate(390.03125,236.46875)"/>
<path d="M0 0 C0.75414185 -0.0038269 1.50828369 -0.00765381 2.28527832 -0.01159668 C3.8720026 -0.01430594 5.45877229 -0.00701395 7.04541016 0.00976562 C9.46228413 0.03119268 11.87618628 0.00993381 14.29296875 -0.015625 C15.84115234 -0.01298154 17.38933409 -0.00785619 18.9375 0 C19.65329224 -0.00809692 20.36908447 -0.01619385 21.10656738 -0.02453613 C26.20685204 0.069908 29.10215847 1.23626546 32.96875 4.53125 C36.70446749 9.14984675 37.55091464 12.75838368 37.48632812 18.55273438 C37.4933374 19.33401199 37.50034668 20.11528961 37.50756836 20.92024231 C37.52509568 23.48886224 37.51354495 26.05636992 37.5 28.625 C37.50269644 30.41809296 37.50658013 32.21118449 37.51159668 34.00427246 C37.51748458 37.75673383 37.50895174 41.50881356 37.49023438 45.26123047 C37.46744511 50.06315237 37.48057201 54.86417992 37.50452423 59.66606903 C37.51900145 63.36707253 37.51436743 67.06786516 37.50401306 70.76887512 C37.50135109 72.53904833 37.50459688 74.30924088 37.51393127 76.07939148 C37.52412884 78.55669623 37.50855245 81.03256724 37.48632812 83.50976562 C37.49442505 84.23617752 37.50252197 84.96258942 37.51086426 85.71101379 C37.42701489 90.77443013 36.13115468 93.62145971 32.96875 97.53125 C28.44980137 101.38215221 24.71479431 102.1278518 18.9375 102.0625 C18.18335815 102.0663269 17.42921631 102.07015381 16.65222168 102.07409668 C15.0654974 102.07680594 13.47872771 102.06951395 11.89208984 102.05273438 C9.47521587 102.03130732 7.06131372 102.05256619 4.64453125 102.078125 C3.09634766 102.07548154 1.54816591 102.07035619 0 102.0625 C-1.07368835 102.07464539 -1.07368835 102.07464539 -2.16906738 102.08703613 C-7.26935204 101.992592 -10.16465847 100.82623454 -14.03125 97.53125 C-17.76696749 92.91265325 -18.61341464 89.30411632 -18.54882812 83.50976562 C-18.5558374 82.72848801 -18.56284668 81.94721039 -18.57006836 81.14225769 C-18.58759568 78.57363776 -18.57604495 76.00613008 -18.5625 73.4375 C-18.56519644 71.64440704 -18.56908013 69.85131551 -18.57409668 68.05822754 C-18.57998458 64.30576617 -18.57145174 60.55368644 -18.55273438 56.80126953 C-18.52994511 51.99934763 -18.54307201 47.19832008 -18.56702423 42.39643097 C-18.58150145 38.69542747 -18.57686743 34.99463484 -18.56651306 31.29362488 C-18.56385109 29.52345167 -18.56709688 27.75325912 -18.57643127 25.98310852 C-18.58662884 23.50580377 -18.57105245 21.02993276 -18.54882812 18.55273438 C-18.55692505 17.82632248 -18.56502197 17.09991058 -18.57336426 16.35148621 C-18.48951489 11.28806987 -17.19365468 8.44104029 -14.03125 4.53125 C-9.51230137 0.68034779 -5.77729431 -0.0653518 0 0 Z " fill="#7A5739" transform="translate(103.03125,236.46875)"/>
<path d="M0 0 C8.43311689 5.09079553 13.75563025 11.93201185 16.1875 21.5 C16.7704738 26.6248106 16.68126005 31.78366403 16.59912109 36.93334961 C16.5623055 39.32513599 16.55810483 41.71537977 16.55859375 44.10742188 C16.54877076 45.64063832 16.53711734 47.17384437 16.5234375 48.70703125 C16.52121185 49.41543655 16.51898621 50.12384186 16.51669312 50.85371399 C16.44090778 54.82167736 16.04255298 57.9688342 14.1875 61.5 C10.12825146 65.24699865 7.08440448 66.61518284 1.61181641 66.66113281 C0.68720612 66.67074036 -0.23740417 66.6803479 -1.19003296 66.69024658 C-2.68538071 66.6966214 -2.68538071 66.6966214 -4.2109375 66.703125 C-5.2380484 66.70882507 -6.2651593 66.71452515 -7.32339478 66.72039795 C-9.49716156 66.72984633 -11.67094266 66.73638129 -13.84472656 66.74023438 C-17.1675721 66.74994178 -20.48979959 66.78096785 -23.8125 66.8125 C-25.92447549 66.81903 -28.03645541 66.82428049 -30.1484375 66.828125 C-31.14128754 66.8404718 -32.13413757 66.8528186 -33.15707397 66.86553955 C-39.34481378 66.84559141 -42.71623803 66.04335805 -47.5625 62.0625 C-50.55839076 58.31763655 -50.00337666 53.38389981 -50.05078125 48.8046875 C-50.058853 48.05720245 -50.06692474 47.30971741 -50.07524109 46.5395813 C-50.08904837 44.95772597 -50.09978548 43.37584127 -50.10766602 41.79394531 C-50.11914567 40.19196715 -50.13953358 38.59002603 -50.16918945 36.98828125 C-50.37962329 25.60839536 -49.85832664 16.69786579 -42.8125 7.25 C-31.86903293 -4.03760125 -14.24401205 -6.52178665 0 0 Z " fill="#7A573A" transform="translate(272.8125,179.5)"/>
<path d="M0 0 C4.22616284 2.85286428 6.92767727 5.24080928 10.01953125 9.36328125 C10.01953125 21.90328125 10.01953125 34.44328125 10.01953125 47.36328125 C-18.03046875 47.36328125 -46.08046875 47.36328125 -74.98046875 47.36328125 C-77.93604411 41.45213052 -77.68045012 35.86727483 -76.98046875 29.36328125 C-74.8752326 23.38591432 -70.13767925 18.89511498 -64.98046875 15.36328125 C-61.63508085 14.24815195 -59.06288063 14.23029053 -55.54296875 14.23828125 C-54.40988281 14.23570312 -53.27679688 14.233125 -52.109375 14.23046875 C-49.52825692 14.34002932 -47.4310247 14.60463248 -44.98046875 15.36328125 C-44.70203125 14.37328125 -44.70203125 14.37328125 -44.41796875 13.36328125 C-41.34840585 6.95723694 -36.21437948 1.73998289 -29.98046875 -1.63671875 C-19.89792698 -4.9894382 -9.3410682 -5.49930217 0 0 Z " fill="#5DC447" transform="translate(162.98046875,357.63671875)"/>
<path d="M0 0 C1.07878418 0.01047363 2.15756836 0.02094727 3.26904297 0.03173828 C5.01894531 0.04140625 5.01894531 0.04140625 6.80419922 0.05126953 C8.02751953 0.06802734 9.25083984 0.08478516 10.51123047 0.10205078 C11.74228516 0.11107422 12.97333984 0.12009766 14.24169922 0.12939453 C17.29006862 0.1530253 20.33805429 0.18597024 23.38623047 0.22705078 C22.39623047 0.72205078 22.39623047 0.72205078 21.38623047 1.22705078 C21.38845108 2.01804169 21.39067169 2.80903259 21.39295959 3.62399292 C21.42011877 13.78333681 21.43810102 23.9426766 21.44873047 34.10205078 C21.44958649 34.91441193 21.4504425 35.72677307 21.45132446 36.56375122 C21.47821463 65.46422861 21.13806496 94.33512529 20.38623047 123.22705078 C12.13623047 123.22705078 3.88623047 123.22705078 -4.61376953 123.22705078 C-4.65887924 107.48514955 -4.695737 91.74329933 -4.71739388 76.00135231 C-4.72771585 68.69244705 -4.7417937 61.38358473 -4.76464844 54.07470703 C-4.78455421 47.70587619 -4.79747926 41.33707643 -4.80194652 34.96821535 C-4.80455869 31.59451028 -4.81071738 28.22089417 -4.82522964 24.84721756 C-4.83965962 21.08526492 -4.84175104 17.32349911 -4.84082031 13.56152344 C-4.84801086 12.43727463 -4.85520142 11.31302582 -4.86260986 10.15470886 C-4.85986053 9.13384689 -4.85711121 8.11298492 -4.85427856 7.06118774 C-4.85612215 6.17073572 -4.85796574 5.2802837 -4.85986519 4.36284828 C-4.47094405 0.98750717 -3.29442665 0.28617754 0 0 Z " fill="#6A4B30" transform="translate(221.61376953125,299.77294921875)"/>
<path d="M0 0 C19.38415355 -0.3742801 38.76757118 -0.65615299 58.15459251 -0.82899475 C67.15718966 -0.91139467 76.15753814 -1.02365343 85.15869141 -1.20703125 C93.00720032 -1.36684993 100.85408091 -1.46980666 108.70417178 -1.50541592 C112.85926983 -1.52622636 117.00971141 -1.57485355 121.163311 -1.69168091 C146.37770952 -2.37428155 146.37770952 -2.37428155 152.41407013 1.58233643 C156.56431133 5.77016959 158.66167799 10.30854282 160 16 C159.55637169 18.23973083 159.55637169 18.23973083 159 20 C140.59840309 20.52922261 122.19724951 20.95881499 103.79071617 21.27195835 C95.24277798 21.41966959 86.69777899 21.59914858 78.15234375 21.85522461 C70.69831409 22.07851254 63.24582265 22.24035903 55.78895152 22.33047146 C51.84425737 22.38023506 47.90539396 22.45932658 43.96323776 22.61221504 C18.12012922 23.58346307 18.12012922 23.58346307 10.94024658 17.25631714 C7.25074753 13.23270288 4.43220603 8.87313622 2 4 C1.62648092 3.2562893 1.25296185 2.5125786 0.86812401 1.74633121 C0.58164309 1.17004191 0.29516216 0.59375261 0 0 Z " fill="#C59F7B" transform="translate(343,175)"/>
<path d="M0 0 C4.17692086 0.10048939 8.3540503 0.10945471 12.53199339 0.12840652 C20.43113443 0.17800638 28.32670377 0.30910346 36.22427642 0.46999836 C45.22020287 0.64926386 54.21630625 0.73691166 63.21357608 0.81712532 C81.70996974 0.98406648 100.20304549 1.26521723 118.69669676 1.62230301 C117.35213826 4.39092623 115.99944174 6.63975249 113.98185301 8.96995926 C113.19971434 9.87778152 113.19971434 9.87778152 112.40177488 10.80394363 C111.8597241 11.42462723 111.31767332 12.04531082 110.75919676 12.68480301 C109.95192137 13.62162918 109.95192137 13.62162918 109.12833738 14.57738113 C107.66278254 16.27063007 106.19735486 17.96007154 104.69669676 19.62230301 C104.08850363 20.40314868 104.08850363 20.40314868 103.46802378 21.19976902 C100.94103972 23.22916318 99.16045525 22.97632008 95.94506407 22.94510269 C94.14666327 22.93866745 94.14666327 22.93866745 92.31193113 22.9321022 C90.33640257 22.90189735 90.33640257 22.90189735 88.32096434 22.87108231 C86.92153417 22.86037508 85.52209328 22.85099791 84.12264585 22.84285355 C80.32107863 22.81694999 76.51992975 22.77239871 72.71858382 22.72455573 C68.74683514 22.67772055 64.77495993 22.64795566 60.80306578 22.61639786 C53.28066543 22.55402714 45.75850593 22.47625362 38.23631114 22.39297754 C29.67302451 22.29892346 21.10961103 22.22199244 12.54614365 22.1465162 C-5.07054814 21.99086262 -22.68696484 21.81365195 -40.30330324 21.62230301 C-41.74950108 17.04676923 -40.54699416 13.65375311 -38.47761965 9.46995926 C-30.96200225 -3.65583944 -13.12442839 -0.36914782 0 0 Z " fill="#C6A07D" transform="translate(50.303303241729736,173.3776969909668)"/>
<path d="M0 0 C21.27925284 -0.11680065 42.55845283 -0.20497222 63.8379612 -0.25906086 C73.71841777 -0.28484269 83.59867517 -0.31999287 93.47900391 -0.37719727 C102.09069208 -0.42703282 110.70223601 -0.45929117 119.31406438 -0.47044247 C123.874054 -0.47696099 128.43363095 -0.49228078 132.99348831 -0.52865028 C137.28631816 -0.56261225 141.57856575 -0.57305264 145.87151718 -0.56553841 C147.44611018 -0.56691287 149.02072284 -0.5768446 150.59519958 -0.59602737 C152.74831091 -0.62097113 154.89923493 -0.61490356 157.05239868 -0.60127258 C158.25626032 -0.60588155 159.46012196 -0.61049051 160.70046425 -0.61523914 C164.84188003 0.15697892 167.24946732 1.93607781 170 5 C172.1171875 8.11328125 172.1171875 8.11328125 173.875 11.3125 C174.76832031 12.91544922 174.76832031 12.91544922 175.6796875 14.55078125 C176.11539063 15.35902344 176.55109375 16.16726562 177 17 C155.77276322 17.23380027 134.5457393 17.41004011 113.31747532 17.51812172 C103.4603167 17.56964447 93.60395895 17.63986212 83.74731445 17.75439453 C75.15427114 17.85419637 66.56180789 17.91861222 57.9682011 17.94088495 C53.41930402 17.95390142 48.87206606 17.98439601 44.32370186 18.05730057 C40.03778867 18.1254385 35.75420926 18.14606662 31.46780586 18.13107681 C29.89921355 18.13381671 28.33053919 18.15356266 26.76241684 18.19205475 C14.96628912 18.4672837 14.96628912 18.4672837 10.1499157 14.87321091 C7.84929592 12.35544163 5.91720471 9.81659499 4 7 C2.89413213 5.66221465 2.89413213 5.66221465 1.7659235 4.29740334 C0 2 0 2 0 0 Z " fill="#C59F7C" transform="translate(272,89)"/>
<path d="M0 0 C0.67482914 -0.00427212 1.34965827 -0.00854425 2.04493678 -0.01294583 C4.29339164 -0.02114483 6.53995726 0.0062535 8.78823853 0.03364563 C10.40486609 0.03505679 12.02149686 0.03426279 13.63812256 0.03143311 C18.0180748 0.03000018 22.39734057 0.05936959 26.77713346 0.09430289 C31.35751064 0.12558716 35.93790405 0.12849876 40.51837158 0.13442993 C49.18815212 0.1499623 57.85761693 0.19098253 66.52725852 0.24117738 C76.39899106 0.29708974 86.27073878 0.3245621 96.14259028 0.34965456 C116.44603589 0.40189893 136.74919738 0.48982942 157.05239868 0.60127258 C154.16923228 7.01395529 149.74467162 13.37942467 144.05239868 17.60127258 C138.58501449 19.38536292 133.41485708 19.25879772 127.74893188 19.07710266 C126.1315694 19.07342877 124.51418529 19.0755076 122.89683533 19.08285522 C118.5361871 19.0865632 114.1802528 19.01052764 109.82069421 18.91939378 C105.25390507 18.83773826 100.68698964 18.83046048 96.11958313 18.81506348 C87.48450177 18.77476876 78.85157786 18.66824911 70.21744365 18.53752011 C60.38213151 18.39185929 50.54671248 18.32064936 40.71058905 18.25547945 C20.48999127 18.11984936 0.27133125 17.89141475 -19.94760132 17.60127258 C-18.92114302 15.69716207 -17.87563872 13.80331372 -16.82260132 11.91377258 C-16.24252319 10.8580304 -15.66244507 9.80228821 -15.06478882 8.71455383 C-11.02254297 2.77051335 -7.48018396 -0.02863776 0 0 Z " fill="#C59F7C" transform="translate(82.94760131835938,88.39872741699219)"/>
<path d="M0 0 C21.26177904 -0.233666 42.52334622 -0.40997438 63.78614902 -0.51812172 C73.6590576 -0.5696729 83.53116814 -0.63994506 93.40356445 -0.75439453 C102.00904035 -0.85410914 110.61393833 -0.91859155 119.21997589 -0.94088495 C123.77663117 -0.95391616 128.33163328 -0.98450498 132.88775826 -1.05730057 C137.17858937 -1.12530047 141.46709074 -1.14609431 145.7584095 -1.13107681 C147.33106666 -1.13382285 148.90380351 -1.15365133 150.47599411 -1.19205475 C162.27994521 -1.46618702 162.27994521 -1.46618702 166.49503899 2.12678909 C169.52816746 6.25611371 171.20853696 9.93190883 172 15 C151.34638725 15.3276279 130.69320527 15.57420265 110.03751755 15.72537041 C100.44567545 15.79743982 90.85545151 15.8956155 81.26464844 16.05615234 C72.9011992 16.19607775 64.53892204 16.2861027 56.17433476 16.31723893 C51.74811569 16.33543101 47.32524825 16.37789583 42.90010834 16.48022079 C13.7819945 17.12865408 13.7819945 17.12865408 7.10021973 11.82525635 C4.3004036 8.95936441 0 4.25840781 0 0 Z " fill="#B27630" transform="translate(285,106)"/>
<path d="M0 0 C1.61662656 0.00254009 3.2332635 0.00111088 4.84988403 -0.00398254 C9.23046759 -0.00656218 13.6088277 0.04629919 17.98889494 0.10918307 C22.56919255 0.16549378 27.14954272 0.17073535 31.73013306 0.18141174 C40.40025306 0.2093711 49.06935018 0.28320612 57.73901999 0.37355715 C67.61065238 0.47419838 77.48233396 0.52364889 87.35435176 0.56881607 C107.65819188 0.66285777 127.96111155 0.82113233 148.26416016 1.02172852 C146.84460041 2.95977994 145.41018042 4.87970132 143.93850136 6.77873898 C142.26039111 8.9362658 142.26039111 8.9362658 141.07008934 11.08363438 C139.6307188 13.3109137 138.5048848 14.57907231 136.26416016 16.02172852 C131.14590818 17.04074602 126.08511891 16.90717172 120.89550781 16.81640625 C119.31828907 16.81443055 117.74106389 16.81554238 116.16384888 16.81950378 C111.89104655 16.82150971 107.61962382 16.78039884 103.34714174 16.73148608 C98.87890934 16.68768333 94.4106442 16.68361156 89.94223022 16.67530823 C81.48479248 16.65356402 73.02798923 16.59613826 64.5708307 16.5258618 C54.94097668 16.44758017 45.31109211 16.40912228 35.68099904 16.37399375 C15.87503214 16.30085438 -3.93036386 16.17775474 -23.73583984 16.02172852 C-19.23223469 1.98660899 -14.35240871 -0.31475487 0 0 Z " fill="#B27630" transform="translate(78.73583984375,104.978271484375)"/>
<path d="M0 0 C19.827557 -0.23369952 39.65483422 -0.40999027 59.48348331 -0.51812172 C68.69054795 -0.56966609 77.89675644 -0.63992435 87.10327148 -0.75439453 C95.12863295 -0.85413106 103.1533744 -0.91859653 111.1793384 -0.94088495 C115.42864429 -0.95391277 119.67617664 -0.98447716 123.92491341 -1.05730057 C127.92687561 -1.12533657 131.92633977 -1.14608791 135.92882538 -1.13107681 C137.39506312 -1.13382134 138.86138689 -1.15363033 140.32712364 -1.19205475 C151.34609638 -1.46667602 151.34609638 -1.46667602 155.398283 2.12678909 C158.32053306 6.16544758 160.22389673 10.35916416 162 15 C142.65022308 15.32770523 123.30101257 15.57423879 103.94903183 15.72537041 C94.96247092 15.79742434 85.97763849 15.89556772 76.9921875 16.05615234 C69.15611458 16.1961284 61.32129365 16.28611399 53.48400521 16.31723893 C49.33714206 16.33542336 45.19385885 16.37783105 41.04814911 16.48022079 C13.78582904 17.12862637 13.78582904 17.12862637 7.23449707 11.82525635 C4.48198252 8.98716155 0 4.19682432 0 0 Z " fill="#B27630" transform="translate(330,160)"/>
<path d="M0 0 C1.50840059 0.00282345 3.0168149 0.00123209 4.52520752 -0.00442505 C8.60645538 -0.00728716 12.68474683 0.05137363 16.7653091 0.12131453 C21.03459351 0.183955 25.30395061 0.18971155 29.57362366 0.2015686 C37.65242443 0.23261369 45.72986719 0.3146223 53.80807072 0.4150635 C63.00738197 0.52695378 72.20675912 0.58184851 81.40658176 0.63201785 C100.3252904 0.73646096 119.2427361 0.91227893 138.16040039 1.13525391 C136.74136049 3.07259561 135.30751504 4.99243586 133.83832741 6.89226437 C132.1595406 9.05416879 132.1595406 9.05416879 130.93405724 11.19715977 C128.74792634 14.51179982 127.18633051 15.91984561 123.23399734 16.74969292 C119.38128431 17.00068434 115.56611986 17.00194801 111.7097168 16.92993164 C110.23101903 16.92795572 108.75231439 16.9290682 107.27362061 16.93302917 C103.26936623 16.9350343 99.26658536 16.89393744 95.2626729 16.84501147 C91.07471763 16.80119476 86.886727 16.79713588 82.69857788 16.78883362 C74.77235907 16.76709342 66.84681766 16.7096734 58.92089689 16.63938719 C49.89563237 16.56109281 40.87033518 16.52264452 31.84481549 16.48751915 C13.28296002 16.41438891 -5.2782653 16.29129744 -23.83959961 16.13525391 C-18.80704672 2.9855389 -14.12322636 -0.37024163 0 0 Z " fill="#B27630" transform="translate(43.839599609375,158.86474609375)"/>
<path d="M0 0 C4.91324352 2.90714409 9.13608725 6.13922556 11.7578125 11.2734375 C12.0053125 12.294375 12.0053125 12.294375 12.2578125 13.3359375 C11.78730469 13.69945312 11.31679687 14.06296875 10.83203125 14.4375 C10.20941406 14.94023437 9.58679688 15.44296875 8.9453125 15.9609375 C8.02298828 16.69183594 8.02298828 16.69183594 7.08203125 17.4375 C3.77869176 20.8752366 2.3728069 24.10659264 1.9296875 28.84375 C1.95546875 30.03742188 1.98125 31.23109375 2.0078125 32.4609375 C2.02328125 33.65976562 2.03875 34.85859375 2.0546875 36.09375 C2.16946615 39.49651863 2.16946615 39.49651863 3.2578125 43.3359375 C-12.2521875 43.3359375 -27.7621875 43.3359375 -43.7421875 43.3359375 C-46.39622496 38.02786259 -47.26323843 35.1427386 -47.1796875 29.5234375 C-47.17283936 28.81711182 -47.16599121 28.11078613 -47.15893555 27.38305664 C-46.97945677 21.53151074 -45.83309851 17.25283225 -42.7421875 12.3359375 C-42.40316406 11.71460938 -42.06414063 11.09328125 -41.71484375 10.453125 C-33.45545502 -3.12636821 -13.67859464 -6.36528662 0 0 Z " fill="#327D0E" transform="translate(84.7421875,361.6640625)"/>
<path d="M0 0 C2.80845063 2.54056764 4.67675985 5.42973578 6.6875 8.625 C7.62142578 10.09839844 7.62142578 10.09839844 8.57421875 11.6015625 C10 14 10 14 10 15 C-10.57525025 15.25720031 -31.1502347 15.45105315 -51.72676754 15.56993389 C-61.28136435 15.62660521 -70.83496118 15.70383566 -80.38891602 15.82983398 C-88.71827213 15.93962964 -97.046904 16.01047619 -105.37696368 16.03497344 C-109.78631404 16.04928993 -114.19359291 16.08281759 -118.60227776 16.16303062 C-122.7570191 16.238007 -126.90884773 16.26067019 -131.06420135 16.24418449 C-132.58444908 16.24719749 -134.10479957 16.26890769 -135.62446022 16.31126022 C-147.08449973 16.61483596 -147.08449973 16.61483596 -151.96270943 12.50232887 C-158 5.25320479 -158 5.25320479 -158 3 C-105.86 2.67 -53.72 2.34 0 2 C0 1.34 0 0.68 0 0 Z " fill="#C59E7B" transform="translate(456,118)"/>
<path d="M0 0 C0.33 0.66 0.66 1.32 1 2 C79.21 2.495 79.21 2.495 159 3 C157.68 4.98 156.36 6.96 155 9 C154.40524368 10.09970123 153.81048737 11.19940247 153.19770813 12.33242798 C151.20722819 14.63041061 150.05719795 14.98984663 147.01424217 15.53001022 C142.94180065 15.74358922 138.91227605 15.74248678 134.83666992 15.68115234 C133.26945053 15.67945933 131.70222639 15.68041101 130.13500977 15.68380737 C125.88502374 15.68552842 121.63605441 15.65026169 117.38630462 15.60836363 C112.94340534 15.57084737 108.50048257 15.56733058 104.05744934 15.56021118 C95.6460989 15.5415649 87.23521654 15.49233102 78.82407218 15.43211424 C69.2474211 15.36504218 59.67074762 15.33205838 50.09392011 15.30194163 C30.39568552 15.23923164 10.69787225 15.13370097 -9 15 C-8.21647115 13.57332377 -7.43091814 12.14775912 -6.64453125 10.72265625 C-6.20729736 9.92867432 -5.77006348 9.13469238 -5.31958008 8.31665039 C-3.67964818 5.43759141 -1.88535419 2.72328939 0 0 Z " fill="#C59F7C" transform="translate(55,118)"/>
<path d="M0 0 C0.33 0.66 0.66 1.32 1 2 C76.24 2.495 76.24 2.495 153 3 C152.34 4.32 151.68 5.64 151 7 C150.67433233 7.69586967 150.34866467 8.39173935 150.01312828 9.10869598 C148.56036971 11.60729907 147.28630998 13.21036397 145 15 C140.08893219 16.18009671 135.20058217 16.01248304 130.18212891 15.90820312 C128.66402303 15.90594504 127.14590842 15.90721613 125.62780762 15.91174316 C121.51595439 15.91403521 117.40597454 15.86706168 113.29455614 15.8111515 C108.99451269 15.76108216 104.69442449 15.75643713 100.39413452 15.74694824 C92.25533156 15.7221001 84.11739003 15.65647486 75.97896612 15.57615232 C66.7118943 15.48667936 57.44478096 15.44273383 48.17738461 15.40258884 C29.11776832 15.31900658 10.05895346 15.1783269 -9 15 C-8.06652642 13.24784894 -7.1280468 11.49836437 -6.1875 9.75 C-5.66542969 8.77546875 -5.14335938 7.8009375 -4.60546875 6.796875 C-3.21034812 4.36644588 -1.73804039 2.19212301 0 0 Z " fill="#C59F7C" transform="translate(38,145)"/>
<path d="M0 0 C20.08827203 -0.2570617 40.17620999 -0.45098491 60.26578617 -0.56993389 C69.5940101 -0.62663473 78.92121166 -0.7039214 88.2487793 -0.82983398 C96.3796173 -0.93953954 104.50971494 -1.01045475 112.64127249 -1.03497344 C116.9466213 -1.0493053 121.24985233 -1.08292995 125.55452156 -1.16303062 C129.60914116 -1.23786509 133.66077788 -1.26069905 137.71602249 -1.24418449 C139.20163779 -1.24720385 140.68735565 -1.26899994 142.17237282 -1.31126022 C146.65866977 -1.43263704 150.71315413 -1.38788399 155 0 C157.90051791 2.92142637 162 7.58347365 162 12 C142.05932855 12.23376779 122.11893572 12.41002372 102.17717743 12.51812172 C92.91745659 12.56965161 83.65858788 12.6398822 74.39941406 12.75439453 C66.32753121 12.85417538 58.25626551 12.91860705 50.18378305 12.94088495 C45.91041554 12.95390524 41.63881327 12.98442184 37.36601257 13.05730057 C33.34024875 13.12540657 29.31696896 13.14607379 25.29068375 13.13107681 C23.81680397 13.13381821 22.34283744 13.15358516 20.86945724 13.19205475 C9.77773533 13.46734454 9.77773533 13.46734454 5.29554749 9.76774216 C0 3.34044573 0 3.34044573 0 0 Z " fill="#C59E7B" transform="translate(321,148)"/>
<path d="M0 0 C8.25 0 16.5 0 25 0 C25 23.43 25 46.86 25 71 C16.75 71 8.5 71 0 71 C0 47.57 0 24.14 0 0 Z " fill="#5BB2DD" transform="translate(387,252)"/>
<path d="M0 0 C8.25 0 16.5 0 25 0 C25 23.43 25 46.86 25 71 C16.75 71 8.5 71 0 71 C0 47.57 0 24.14 0 0 Z " fill="#5BB2DD" transform="translate(100,252)"/>
<path d="M0 0 C1.90265625 0.00193359 1.90265625 0.00193359 3.84375 0.00390625 C8.9999699 0.61538105 12.28943809 2.12878442 15.8125 5.9375 C18.55175695 9.99565845 18.61932861 13.06587683 18.59765625 17.85546875 C18.59515869 18.9849292 18.59266113 20.11438965 18.59008789 21.27807617 C18.58098389 22.71256104 18.57187988 24.1470459 18.5625 25.625 C18.541875 30.183125 18.52125 34.74125 18.5 39.4375 C6.62 39.4375 -5.26 39.4375 -17.5 39.4375 C-17.5825 34.961875 -17.665 30.48625 -17.75 25.875 C-17.78641602 24.47693115 -17.82283203 23.0788623 -17.86035156 21.63842773 C-17.96575353 9.82745749 -17.96575353 9.82745749 -13.5 4.4375 C-9.05032275 0.58152968 -5.82351696 -0.08877312 0 0 Z " fill="#E1AE04" transform="translate(255.5,191.5625)"/>
<path d="M0 0 C5.95734787 1.34040327 9.90925737 4.62778426 14 9 C15.5 11.9375 15.5 11.9375 16 14 C15.52949219 14.36351562 15.05898437 14.72703125 14.57421875 15.1015625 C13.95160156 15.60429687 13.32898438 16.10703125 12.6875 16.625 C11.76517578 17.35589844 11.76517578 17.35589844 10.82421875 18.1015625 C7.50695065 21.5537944 6.11243665 24.78595194 5.671875 29.54296875 C5.69765625 30.74566406 5.7234375 31.94835937 5.75 33.1875 C5.76546875 34.39792969 5.7809375 35.60835938 5.796875 36.85546875 C5.86789766 40.02771983 5.86789766 40.02771983 7 43 C-0.26 43 -7.52 43 -15 43 C-18.11134317 35.22164208 -18.67097273 24.9379674 -15.4375 17 C-12.24227438 11.06438515 -7.61152923 5.74868551 -2 2 C-1.34 2 -0.68 2 0 2 C0 1.34 0 0.68 0 0 Z " fill="#368C0E" transform="translate(81,361)"/>
<path d="M0 0 C4.17692086 0.10048939 8.3540503 0.10945471 12.53199339 0.12840652 C20.43113443 0.17800638 28.32670377 0.30910346 36.22427642 0.46999836 C45.22020287 0.64926386 54.21630625 0.73691166 63.21357608 0.81712532 C81.70996974 0.98406648 100.20304549 1.26521723 118.69669676 1.62230301 C118.36669676 2.28230301 118.03669676 2.94230301 117.69669676 3.62230301 C117.07108382 3.60939791 116.44547089 3.59649281 115.80089998 3.58319664 C100.55151627 3.27350207 85.30310211 3.04210592 70.05138063 2.8969326 C62.67540951 2.8248526 55.30154178 2.72666815 47.92692137 2.56615067 C41.49611529 2.42624362 35.06683236 2.33620762 28.6345467 2.30506408 C25.2302337 2.28686471 21.83027605 2.24439033 18.42736578 2.14208221 C5.02747285 1.12196813 5.02747285 1.12196813 -7.35196733 4.99879074 C-11.95919756 9.67882316 -14.30330324 15.0395947 -14.30330324 21.62230301 C-22.88330324 21.62230301 -31.46330324 21.62230301 -40.30330324 21.62230301 C-41.73605703 15.89128784 -40.03143823 12.18365647 -37.21266031 7.260746 C-29.28485442 -3.41557266 -11.94700896 -0.33603081 0 0 Z " fill="#B5906E" transform="translate(50.303303241729736,173.3776969909668)"/>
<path d="M0 0 C3.98842343 0.38350225 5.41254711 1.55386524 8.25 4.3125 C10.70286296 7.99179445 10.48228878 9.78627907 10.4453125 14.16796875 C10.4424826 14.82960526 10.43965271 15.49124176 10.43673706 16.17292786 C10.42555918 18.28213737 10.40045981 20.39091925 10.375 22.5 C10.36496707 23.93163448 10.35584176 25.36327564 10.34765625 26.79492188 C10.32733071 30.30107778 10.28817991 33.8063113 10.25 37.3125 C4.64 37.3125 -0.97 37.3125 -6.75 37.3125 C-6.8315417 33.18709419 -6.89076732 29.06332846 -6.9375 24.9375 C-6.96263672 23.78121094 -6.98777344 22.62492187 -7.01367188 21.43359375 C-7.07440802 14.26672848 -6.51072031 7.98476687 -3.75 1.3125 C-2.75 0.3125 -2.75 0.3125 0 0 Z " fill="#FEC402" transform="translate(262.75,192.6875)"/>
<path d="M0 0 C0.66330322 0.01546875 1.32660645 0.0309375 2.01000977 0.046875 C6.987578 0.19229391 11.88416331 0.62080362 16.8125 1.3125 C16.4825 1.9725 16.1525 2.6325 15.8125 3.3125 C15.58009495 6.02676141 15.39341198 8.71883767 15.25 11.4375 C15.105625 14.03625 14.96125 16.635 14.8125 19.3125 C6.2325 19.3125 -2.3475 19.3125 -11.1875 19.3125 C-11.27 16.92 -11.3525 14.5275 -11.4375 12.0625 C-11.47391602 11.31581055 -11.51033203 10.56912109 -11.54785156 9.79980469 C-11.60169303 6.57105372 -11.3618753 4.58689106 -9.62109375 1.84765625 C-6.27792994 -0.26127373 -3.9287039 -0.11613906 0 0 Z " fill="#6A4B30" transform="translate(33.1875,403.6875)"/>
<path d="M0 0 C0.33 0.66 0.66 1.32 1 2 C79.21 2.495 79.21 2.495 159 3 C159 3.33 159 3.66 159 4 C158.31069869 3.9959358 157.62139738 3.9918716 156.91120815 3.98768425 C140.12634436 3.89216184 123.34234721 3.85194891 106.55724239 3.87302971 C98.43993532 3.88189551 90.32345245 3.87215364 82.20629883 3.81835938 C75.12993822 3.77151017 68.05453481 3.75982593 60.97806841 3.7900821 C57.23187806 3.80487873 53.4875515 3.8022613 49.74155998 3.75750351 C45.55549594 3.70814744 41.37345956 3.73732542 37.18725586 3.77294922 C35.95007309 3.7463472 34.71289032 3.71974518 33.43821716 3.69233704 C26.92641256 3.73804548 26.92641256 3.73804548 21.74405003 7.26825905 C19.84614898 9.95046095 19.84614898 9.95046095 18.37831879 12.74477386 C17 15 17 15 13.81860352 16.13525391 C12.23970337 16.05670166 12.23970337 16.05670166 10.62890625 15.9765625 C9.47841797 15.94433594 8.32792969 15.91210938 7.14257812 15.87890625 C5.37043945 15.75322266 5.37043945 15.75322266 3.5625 15.625 C1.74975586 15.55732422 1.74975586 15.55732422 -0.09960938 15.48828125 C-3.07154273 15.37081353 -6.03317407 15.20689163 -9 15 C-8.21647115 13.57332377 -7.43091814 12.14775912 -6.64453125 10.72265625 C-6.20729736 9.92867432 -5.77006348 9.13469238 -5.31958008 8.31665039 C-3.67964818 5.43759141 -1.88535419 2.72328939 0 0 Z " fill="#B6906C" transform="translate(55,118)"/>
<path d="M0 0 C0.33 0.66 0.66 1.32 1 2 C76.24 2.495 76.24 2.495 153 3 C152.67 3.66 152.34 4.32 152 5 C151.34677482 4.99078207 150.69354963 4.98156414 150.02052975 4.97206688 C134.11232735 4.75104279 118.20466024 4.58565906 102.29530239 4.48187828 C94.60149878 4.43035362 86.90872113 4.36013602 79.21557617 4.24560547 C72.50865632 4.14580496 65.80247948 4.08138905 59.09483773 4.05911505 C55.54401871 4.04609701 51.99532484 4.01560431 48.44518852 3.94269943 C44.47795247 3.861893 40.51277834 3.86010858 36.54467773 3.86474609 C35.37295013 3.82879333 34.20122253 3.79284058 32.99398804 3.75579834 C26.72736173 3.78422742 26.72736173 3.78422742 21.78324986 7.26265907 C19.88754685 9.94755725 19.88754685 9.94755725 18.40090942 12.74154663 C17 15 17 15 13.81860352 16.13525391 C12.23970337 16.05670166 12.23970337 16.05670166 10.62890625 15.9765625 C9.47841797 15.94433594 8.32792969 15.91210938 7.14257812 15.87890625 C5.37043945 15.75322266 5.37043945 15.75322266 3.5625 15.625 C1.74975586 15.55732422 1.74975586 15.55732422 -0.09960938 15.48828125 C-3.07154273 15.37081353 -6.03317407 15.20689163 -9 15 C-8.06652642 13.24784894 -7.1280468 11.49836437 -6.1875 9.75 C-5.66542969 8.77546875 -5.14335938 7.8009375 -4.60546875 6.796875 C-3.21034812 4.36644588 -1.73804039 2.19212301 0 0 Z " fill="#B6906C" transform="translate(38,145)"/>
<path d="M0 0 C1.26070312 0.02255859 2.52140625 0.04511719 3.8203125 0.06835938 C6.92309499 0.12712419 10.02343199 0.20924149 13.125 0.3125 C12.34543945 0.91102783 11.56587891 1.50955566 10.76269531 2.1262207 C7.74479634 4.62763548 5.97940636 7.20282897 3.875 10.5 C0.15550847 16.28199153 0.15550847 16.28199153 -0.875 17.3125 C-2.80167507 17.39998207 -4.73151861 17.41947334 -6.66015625 17.41015625 C-7.82998047 17.40693359 -8.99980469 17.40371094 -10.20507812 17.40039062 C-12.05262695 17.38782227 -12.05262695 17.38782227 -13.9375 17.375 C-15.79084961 17.36823242 -15.79084961 17.36823242 -17.68164062 17.36132812 C-20.74614117 17.34949608 -23.81054721 17.33301173 -26.875 17.3125 C-25.8485417 15.40838949 -24.8030374 13.51454114 -23.75 11.625 C-23.16992188 10.56925781 -22.58984375 9.51351562 -21.9921875 8.42578125 C-15.78878683 -0.69619353 -10.59976102 -0.35884608 0 0 Z " fill="#B39071" transform="translate(89.875,88.6875)"/>
<path d="M0 0 C1.98 0 3.96 0 6 0 C6 22.77 6 45.54 6 69 C4.02 69 2.04 69 0 69 C0 46.23 0 23.46 0 0 Z " fill="#64CBFF" transform="translate(405,253)"/>
<path d="M0 0 C1.98 0 3.96 0 6 0 C6 22.77 6 45.54 6 69 C4.02 69 2.04 69 0 69 C0 46.23 0 23.46 0 0 Z " fill="#64CBFF" transform="translate(118,253)"/>
<path d="M0 0 C3.625 0.25 3.625 0.25 5.5 1.5625 C8.29910536 5.76115803 7.84423156 10.28666272 7.875 15.125 C7.895625 15.92808594 7.91625 16.73117187 7.9375 17.55859375 C7.96884886 22.3157828 7.65368157 25.34942526 4.625 29.25 C3.625 30.25 3.625 30.25 0.25 30.5 C-3.375 30.25 -3.375 30.25 -5.25 28.9375 C-8.04910536 24.73884197 -7.59423156 20.21333728 -7.625 15.375 C-7.645625 14.57191406 -7.66625 13.76882813 -7.6875 12.94140625 C-7.71884886 8.1842172 -7.40368157 5.15057474 -4.375 1.25 C-3.375 0.25 -3.375 0.25 0 0 Z " fill="#09375D" transform="translate(235.375,348.75)"/>
</svg>
