<?xml version="1.0" encoding="UTF-8"?>
<svg version="1.1" xmlns="http://www.w3.org/2000/svg" width="512" height="512">
<path d="M0 0 C1.01790619 0.00215515 2.03581238 0.0043103 3.08456421 0.00653076 C17.69363523 0.05620146 32.02575853 0.30709809 46.375 3.3125 C47.34985352 3.51117676 48.32470703 3.70985352 49.32910156 3.91455078 C97.7109774 14.03517194 141.69928269 35.9516877 177.375 70.3125 C178.3640332 71.26068604 178.3640332 71.26068604 179.37304688 72.22802734 C188.86130305 81.37247479 197.6012044 90.66984009 205.375 101.3125 C206.23306152 102.46355017 207.09113451 103.61459177 207.94921875 104.765625 C213.98736829 112.95680614 219.34595521 121.47054105 224.375 130.3125 C224.73948242 130.94430176 225.10396484 131.57610352 225.47949219 132.22705078 C247.08534998 169.97532572 256.85198095 212.74189997 256.6875 255.9375 C256.68534485 256.95540619 256.6831897 257.97331238 256.68096924 259.02206421 C256.63129854 273.63113523 256.38040191 287.96325853 253.375 302.3125 C253.07698486 303.77478027 253.07698486 303.77478027 252.77294922 305.26660156 C242.65232806 353.6484774 220.7358123 397.63678269 186.375 433.3125 C185.74287598 433.97185547 185.11075195 434.63121094 184.45947266 435.31054688 C175.31502521 444.79880305 166.01765991 453.5387044 155.375 461.3125 C154.22394983 462.17056152 153.07290823 463.02863451 151.921875 463.88671875 C143.73224019 469.92427396 135.22961724 475.30707302 126.375 480.3125 C125.66778809 480.7146875 124.96057617 481.116875 124.23193359 481.53125 C101.09654164 494.5566741 75.92537591 503.30551461 49.9375 508.625 C49.21860596 508.77235596 48.49971191 508.91971191 47.7590332 509.0715332 C33.08339502 511.86090125 18.55831162 512.66142619 3.64770508 512.62817383 C0.70811513 512.6250221 -2.2304558 512.64854926 -5.16992188 512.67382812 C-18.54306192 512.71848737 -31.43916711 511.51301542 -44.625 509.3125 C-46.33055054 509.03031616 -46.33055054 509.03031616 -48.07055664 508.74243164 C-91.33802759 500.97044532 -132.38793216 480.98345309 -165.625 452.3125 C-166.37007813 451.67828125 -167.11515625 451.0440625 -167.8828125 450.390625 C-181.38779833 438.57948485 -194.05918743 425.82889772 -204.625 411.3125 C-205.48149066 410.16255169 -206.33826433 409.01281411 -207.1953125 407.86328125 C-213.23534209 399.67315742 -218.61867614 391.16870382 -223.625 382.3125 C-224.0271875 381.60528809 -224.429375 380.89807617 -224.84375 380.16943359 C-237.8691741 357.03404164 -246.61801461 331.86287591 -251.9375 305.875 C-252.08485596 305.15610596 -252.23221191 304.43721191 -252.3840332 303.6965332 C-255.35789088 288.05024391 -255.99800362 272.57681954 -255.9375 256.6875 C-255.93534485 255.66959381 -255.9331897 254.65168762 -255.93096924 253.60293579 C-255.88129854 238.99386477 -255.63040191 224.66174147 -252.625 210.3125 C-252.42632324 209.33764648 -252.22764648 208.36279297 -252.02294922 207.35839844 C-241.90232806 158.9765226 -219.9858123 114.98821731 -185.625 79.3125 C-184.99287598 78.65314453 -184.36075195 77.99378906 -183.70947266 77.31445312 C-174.56502521 67.82619695 -165.26765991 59.0862956 -154.625 51.3125 C-153.47394983 50.45443848 -152.32290823 49.59636549 -151.171875 48.73828125 C-142.98224019 42.70072604 -134.47961724 37.31792698 -125.625 32.3125 C-124.91778809 31.9103125 -124.21057617 31.508125 -123.48193359 31.09375 C-100.34654164 18.0683259 -75.17537591 9.31948539 -49.1875 4 C-48.46860596 3.85264404 -47.74971191 3.70528809 -47.0090332 3.5534668 C-31.36274391 0.57960912 -15.88931954 -0.06050362 0 0 Z M-32.625 106.3125 C-33.4257681 107.45271797 -34.17837362 108.62682688 -34.91015625 109.8125 C-35.35810547 110.534375 -35.80605469 111.25625 -36.26757812 112 C-36.73615234 112.763125 -37.20472656 113.52625 -37.6875 114.3125 C-38.15994141 115.075625 -38.63238281 115.83875 -39.11914062 116.625 C-40.29097754 118.51887784 -41.4594208 120.41476673 -42.625 122.3125 C-39.30604906 125.81281438 -36.02388952 128.56612853 -31.9375 131.125 C-30.98488281 131.72957031 -30.03226562 132.33414063 -29.05078125 132.95703125 C-26.79714573 134.47509662 -26.79714573 134.47509662 -24.625 134.3125 C-24.625 134.9725 -24.625 135.6325 -24.625 136.3125 C-26.35556641 136.48072266 -26.35556641 136.48072266 -28.12109375 136.65234375 C-32.53200687 137.20964435 -36.51456261 138.37085869 -40.6875 139.875 C-41.4192041 140.13748535 -42.1509082 140.3999707 -42.90478516 140.67041016 C-59.30547155 146.76714859 -72.93778618 156.32783548 -85.625 168.3125 C-86.37523437 168.99828125 -87.12546875 169.6840625 -87.8984375 170.390625 C-108.96919902 190.35239907 -122.04045017 220.85718181 -122.828125 249.74609375 C-122.98682192 261.91622669 -122.60532766 273.48212456 -119.625 285.3125 C-119.45871094 285.97652832 -119.29242188 286.64055664 -119.12109375 287.32470703 C-113.52676528 308.78517265 -102.02151022 327.54721109 -86.625 343.3125 C-85.97015625 344.02921875 -85.3153125 344.7459375 -84.640625 345.484375 C-72.66640814 358.27734173 -55.99036415 367.45947564 -39.625 373.3125 C-38.65891677 371.46235947 -37.7025093 369.60716527 -36.75 367.75 C-36.21632813 366.71746094 -35.68265625 365.68492187 -35.1328125 364.62109375 C-33.56740177 361.18611218 -32.57170293 357.95684672 -31.625 354.3125 C-32.20354736 354.05146484 -32.78209473 353.79042969 -33.37817383 353.52148438 C-54.87105381 343.75335426 -54.87105381 343.75335426 -63.625 336.3125 C-64.4809375 335.59320313 -65.336875 334.87390625 -66.21875 334.1328125 C-85.67003043 317.20082442 -99.4971395 292.85827468 -101.53515625 266.76171875 C-102.6345138 236.79227592 -95.22719674 210.03836629 -75.25 187.1875 C-60.02498551 170.81294583 -41.59587196 160.70667439 -19.625 156.3125 C-25.235 161.9225 -30.845 167.5325 -36.625 173.3125 C-34.59486589 177.37276821 -32.20104446 179.96707376 -29 183.0625 C-28.484375 183.56910156 -27.96875 184.07570313 -27.4375 184.59765625 C-26.17116661 185.84053902 -24.8986856 187.07715276 -23.625 188.3125 C-19.23844756 186.6952891 -16.60167029 183.25449958 -13.5625 179.875 C-8.38636398 174.2168756 -3.07386789 168.71863901 2.3671875 163.31640625 C2.97769455 162.70992752 3.5882016 162.10344879 4.21720886 161.47859192 C6.70363445 159.01174111 9.19224992 156.54724472 11.68997192 154.09182739 C13.46269939 152.34909194 15.22967846 150.6006918 16.99609375 148.8515625 C17.81066544 148.05722557 17.81066544 148.05722557 18.64169312 147.24684143 C19.92442574 145.97282783 21.15539087 144.6470663 22.375 143.3125 C22.375 142.6525 22.375 141.9925 22.375 141.3125 C20.84729525 140.03950487 20.84729525 140.03950487 18.80859375 138.80078125 C18.02411865 138.29756348 17.23964355 137.7943457 16.43139648 137.27587891 C15.56716064 136.73108887 14.7029248 136.18629883 13.8125 135.625 C11.97888121 134.45226912 10.14555982 133.27907315 8.3125 132.10546875 C7.34441406 131.48849121 6.37632812 130.87151367 5.37890625 130.23583984 C0.33351944 127.00538168 -4.674944 123.71857323 -9.6875 120.4375 C-15.36044066 116.72680724 -21.04210946 113.03002663 -26.74609375 109.3671875 C-28.11205688 108.48909424 -28.11205688 108.48909424 -29.50561523 107.59326172 C-31.35492427 106.22629926 -31.35492427 106.22629926 -32.625 106.3125 Z M40.375 139.3125 C39.40891677 141.16264053 38.4525093 143.01783473 37.5 144.875 C36.96632813 145.90753906 36.43265625 146.94007813 35.8828125 148.00390625 C34.31740177 151.43888782 33.32170293 154.66815328 32.375 158.3125 C32.95354736 158.57353516 33.53209473 158.83457031 34.12817383 159.10351562 C55.62105381 168.87164574 55.62105381 168.87164574 64.375 176.3125 C65.2309375 177.03179687 66.086875 177.75109375 66.96875 178.4921875 C87.95080925 196.75669089 99.53953154 220.82195819 102.375 248.3125 C103.65459652 277.17781678 95.07758254 303.61565515 76 325.4375 C60.77498551 341.81205417 42.34587196 351.91832561 20.375 356.3125 C25.985 350.7025 31.595 345.0925 37.375 339.3125 C35.34486589 335.25223179 32.95104446 332.65792624 29.75 329.5625 C29.234375 329.05589844 28.71875 328.54929687 28.1875 328.02734375 C26.92116661 326.78446098 25.6486856 325.54784724 24.375 324.3125 C19.98844756 325.9297109 17.35167029 329.37050042 14.3125 332.75 C9.13636398 338.4081244 3.82386789 343.90636099 -1.6171875 349.30859375 C-2.22769455 349.91507248 -2.8382016 350.52155121 -3.46720886 351.14640808 C-5.95363445 353.61325889 -8.44224992 356.07775528 -10.93997192 358.53317261 C-12.71269939 360.27590806 -14.47967846 362.0243082 -16.24609375 363.7734375 C-16.78914154 364.30299545 -17.33218933 364.83255341 -17.89169312 365.37815857 C-19.17442574 366.65217217 -20.40539087 367.9779337 -21.625 369.3125 C-21.625 369.9725 -21.625 370.6325 -21.625 371.3125 C-20.04787461 372.61836667 -20.04787461 372.61836667 -17.953125 373.89453125 C-16.75357178 374.66458496 -16.75357178 374.66458496 -15.52978516 375.45019531 C-14.65370605 376.00288086 -13.77762695 376.55556641 -12.875 377.125 C-11.03372252 378.3031797 -9.19258049 379.48157111 -7.3515625 380.66015625 C-6.4018457 381.2648877 -5.45212891 381.86961914 -4.47363281 382.49267578 C-0.04702771 385.32057383 4.35030889 388.19298806 8.75 391.0625 C16.60719739 396.17367141 24.48272023 401.25569161 32.375 406.3125 C35.23634241 402.84976925 37.74074534 399.30563724 40.125 395.5 C40.73859375 394.52417969 41.3521875 393.54835938 41.984375 392.54296875 C42.44328125 391.80691406 42.9021875 391.07085937 43.375 390.3125 C38.86872656 385.18467161 33.31369374 381.63090053 27.375 378.3125 C26.715 378.3125 26.055 378.3125 25.375 378.3125 C25.375 377.6525 25.375 376.9925 25.375 376.3125 C27.10556641 376.14427734 27.10556641 376.14427734 28.87109375 375.97265625 C33.28200687 375.41535565 37.26456261 374.25414131 41.4375 372.75 C42.1692041 372.48751465 42.9009082 372.2250293 43.65478516 371.95458984 C60.05547155 365.85785141 73.68778618 356.29716452 86.375 344.3125 C87.12523437 343.62671875 87.87546875 342.9409375 88.6484375 342.234375 C109.80074541 322.19534645 122.78507753 291.87784139 123.578125 262.87890625 C123.73682192 250.70877331 123.35532766 239.14287544 120.375 227.3125 C120.12556641 226.31645752 120.12556641 226.31645752 119.87109375 225.30029297 C114.27676528 203.83982735 102.77151022 185.07778891 87.375 169.3125 C86.39273438 168.23742187 86.39273438 168.23742187 85.390625 167.140625 C73.41640814 154.34765827 56.74036415 145.16552436 40.375 139.3125 Z " fill="#FBB03F" transform="translate(255.625,-0.3125)"/>
</svg>
