<?xml version="1.0" encoding="UTF-8"?>
<svg version="1.1" xmlns="http://www.w3.org/2000/svg" width="512" height="512">
<path d="M0 0 C0.89114502 0.00149048 1.78229004 0.00298096 2.70043945 0.0045166 C23.26218458 0.06608972 43.03428267 1.91919352 62.9375 7.3125 C63.2675 6.3225 63.5975 5.3325 63.9375 4.3125 C70.67037352 3.76326419 76.185175 5.7433366 82.5 7.9375 C83.56178467 8.29996826 84.62356934 8.66243652 85.7175293 9.03588867 C108.67263486 16.97791796 108.67263486 16.97791796 111.9375 21.3125 C111.9375 22.3025 111.9375 23.2925 111.9375 24.3125 C113.06542969 23.81621094 114.19335938 23.31992188 115.35546875 22.80859375 C136.02924186 13.82948084 156.77267365 7.50503999 178.9375 3.3125 C179.88834473 3.13170898 180.83918945 2.95091797 181.81884766 2.76464844 C209.48216983 -2.20931083 240.33291735 -1.6907064 267.9375 3.3125 C269.3615918 3.55395752 269.3615918 3.55395752 270.81445312 3.80029297 C287.40406308 6.65763644 303.13806994 11.56051172 318.9375 17.3125 C319.76217773 17.60833984 320.58685547 17.90417969 321.43652344 18.20898438 C332.04146649 22.07639407 332.04146649 22.07639407 334.76953125 25.83984375 C336.3502667 30.53975618 336.26181485 34.76918152 336.125 39.6875 C336.11146484 40.61433594 336.09792969 41.54117188 336.08398438 42.49609375 C336.04883881 44.76883998 335.99964132 47.04035847 335.9375 49.3125 C336.53425537 49.30524902 337.13101074 49.29799805 337.74584961 49.29052734 C347.54762651 49.22091951 354.6144524 50.30853944 361.9375 57.3125 C366.38112394 62.41770567 368.05786282 66.5626186 368.07172108 73.24891281 C368.07617892 74.24819455 368.08063676 75.24747629 368.08522969 76.27703929 C368.08495315 77.92059362 368.08495315 77.92059362 368.08467102 79.59735107 C368.08834771 80.76302022 368.0920244 81.92868937 368.0958125 83.12968183 C368.10493047 86.366056 368.10954708 89.60240036 368.11220181 92.83878517 C368.11610884 96.32902436 368.1256868 99.81924892 368.13441467 103.30947876 C368.15416632 111.73802581 368.16424298 120.16657403 368.17314246 128.59513843 C368.17752691 132.56494466 368.18289326 136.53474957 368.18813133 140.50455475 C368.20514121 153.7016459 368.21963577 166.89873622 368.22688007 180.09583664 C368.22878994 183.51962027 368.23071028 186.94340389 368.23266602 190.3671875 C368.23314976 191.21814284 368.2336335 192.06909817 368.2341319 192.94584003 C368.24243371 206.73332367 368.26777425 220.52072059 368.30024669 234.30816635 C368.33331753 248.46512872 368.3513288 262.62204701 368.35452431 276.7790482 C368.35668923 284.72704908 368.36543535 292.67492344 368.39098549 300.62288666 C368.41269272 307.39100059 368.42074279 314.15895727 368.41101871 320.92710206 C368.4064742 324.37929816 368.40836848 327.83116979 368.42778015 331.28332138 C368.44542881 335.02906034 368.43842626 338.77397531 368.42524719 342.51971436 C368.44170106 344.14988436 368.44170106 344.14988436 368.45848733 345.81298709 C368.39103606 353.74997075 366.76700267 359.03623376 361.5625 365.0625 C355.11456466 370.58930172 350.52758494 372.46320287 342.1568346 372.44672108 C341.35210397 372.44907331 340.54737333 372.45142554 339.71825692 372.45384905 C336.99874748 372.46055106 334.27928569 372.46008046 331.55976868 372.45967102 C329.59947534 372.46296889 327.63918267 372.4666943 325.67889088 372.4708125 C320.27396369 372.48084927 314.8690476 372.48455198 309.4641124 372.48720181 C303.64186703 372.49109988 297.81963049 372.50067853 291.99739075 372.50941467 C277.92803311 372.52919278 263.85867474 372.53924683 249.78930667 372.54814246 C243.1681177 372.55252301 236.54692953 372.55789041 229.9257412 372.56313133 C207.92300362 372.58014467 185.92026654 372.59466467 163.91752338 372.60188007 C162.49432632 372.60235483 161.07112925 372.60283072 159.64793218 372.60330774 C158.94214857 372.60354411 158.23636495 372.60378049 157.50919395 372.60402403 C153.93329401 372.60522524 150.35739407 372.60644068 146.78149414 372.60766602 C145.71701855 372.60802624 145.71701855 372.60802624 144.63103841 372.60839374 C121.62011983 372.61628747 98.60925277 372.63972054 75.59835669 372.67222196 C51.27486381 372.70651467 26.95140108 372.72623069 2.62788361 372.72952431 C-10.63314124 372.73159824 -23.89409353 372.74047589 -37.15509605 372.76598549 C-48.44670566 372.78765615 -59.73822115 372.7957608 -71.02984919 372.78601871 C-76.79281802 372.78146353 -82.55559248 372.783431 -88.31853485 372.80278015 C-93.59326719 372.82033748 -98.86766231 372.81947456 -104.14239786 372.80388286 C-106.05159405 372.80149548 -107.96081314 372.80588856 -109.86997422 372.81771151 C-112.46460298 372.83278535 -115.0580299 372.82318958 -117.6526289 372.80748463 C-118.39442368 372.81770683 -119.13621846 372.82792904 -119.90049186 372.83846101 C-126.66520572 372.74905283 -131.72206026 370.33378887 -136.8125 365.9375 C-141.30439577 360.69695494 -144.18386202 356.47225748 -144.19392776 349.49634171 C-144.19968948 347.99948062 -144.19968948 347.99948062 -144.2055676 346.47237992 C-144.20470112 345.37308207 -144.20383463 344.27378422 -144.20294189 343.14117432 C-144.20591302 341.97565403 -144.20888414 340.81013374 -144.2119453 339.60929465 C-144.2191327 336.3687284 -144.22180517 333.12819442 -144.22254276 329.8876214 C-144.22439239 326.39465903 -144.2319393 322.90170817 -144.23867798 319.40875244 C-144.25226593 311.76820948 -144.25828681 304.12767176 -144.26268864 296.48711872 C-144.26545043 291.71687267 -144.26968768 286.94662865 -144.27419281 282.17638397 C-144.28638637 268.97075147 -144.29668532 255.76512059 -144.3000679 242.55948257 C-144.30028747 241.71411205 -144.30050703 240.86874153 -144.30073325 239.99775372 C-144.30095153 239.15035112 -144.30116981 238.30294851 -144.3013947 237.42986703 C-144.30183817 235.71268479 -144.30228473 233.99550255 -144.30273438 232.27832031 C-144.3029558 231.42653717 -144.30317723 230.57475402 -144.30340537 229.69715926 C-144.30735316 215.89602056 -144.3248062 202.09493466 -144.3480939 188.29381636 C-144.37180629 174.12672001 -144.38426971 159.95965015 -144.38543582 145.79253364 C-144.38635267 137.83730936 -144.39210755 129.88215388 -144.41025543 121.92694855 C-144.42565496 115.15257699 -144.4307778 108.37829549 -144.42251733 101.60390976 C-144.41861019 98.14784909 -144.4195433 94.69196976 -144.43357468 91.2359314 C-144.44623501 87.48771746 -144.440449 83.73997062 -144.42999268 79.99176025 C-144.43804908 78.90138529 -144.44610548 77.81101033 -144.45440602 76.6875937 C-144.39860766 68.14966308 -142.6141795 62.30597984 -136.80078125 55.88671875 C-130.73531375 50.39372234 -123.80458569 49.27106232 -115.8671875 49.296875 C-114.51729736 49.30025879 -114.51729736 49.30025879 -113.14013672 49.30371094 C-112.4545166 49.30661133 -111.76889648 49.30951172 -111.0625 49.3125 C-111.08344727 48.67223877 -111.10439453 48.03197754 -111.12597656 47.37231445 C-111.20939284 44.45670425 -111.26123969 41.54134548 -111.3125 38.625 C-111.34601563 37.61759766 -111.37953125 36.61019531 -111.4140625 35.57226562 C-111.46985628 31.34588668 -111.48671423 28.19832475 -109.64453125 24.3515625 C-105.91088232 21.40305306 -101.95974483 19.95068018 -97.5 18.375 C-96.55962891 18.03291504 -95.61925781 17.69083008 -94.65039062 17.33837891 C-91.79423303 16.31029662 -88.92978913 15.30904856 -86.0625 14.3125 C-85.27891113 14.03229004 -84.49532227 13.75208008 -83.68798828 13.46337891 C-73.47330809 9.83184284 -63.10344321 7.29963472 -52.5 5.0625 C-51.34177734 4.81612793 -50.18355469 4.56975586 -48.99023438 4.31591797 C-32.6866584 1.0192055 -16.60338572 -0.06913546 0 0 Z " fill="#FED687" transform="translate(144.0625,69.6875)"/>
<path d="M0 0 C0.89114502 0.00149048 1.78229004 0.00298096 2.70043945 0.0045166 C23.61851599 0.06715677 42.41888978 2.48459171 62.9375 7.3125 C63.2675 56.1525 63.5975 104.9925 63.9375 155.3125 C68.55821049 156.73747958 68.55821049 156.73747958 71.1574707 155.32446289 C71.88538818 154.8164917 72.61330566 154.30852051 73.36328125 153.78515625 C74.15927734 153.24052734 74.95527344 152.69589844 75.77539062 152.13476562 C76.59201172 151.55404297 77.40863281 150.97332031 78.25 150.375 C79.08595703 149.79814453 79.92191406 149.22128906 80.78320312 148.62695312 C82.84427783 147.20186719 84.89473185 145.76364851 86.9375 144.3125 C87.63875 144.75980469 88.34 145.20710937 89.0625 145.66796875 C91.03256352 146.9233489 93.0053644 148.17444067 94.98046875 149.421875 C96.74945406 150.55290392 98.50679499 151.70298417 100.23828125 152.890625 C100.90214844 153.33921875 101.56601563 153.7878125 102.25 154.25 C102.82363281 154.65089844 103.39726562 155.05179688 103.98828125 155.46484375 C106.50028203 156.71129331 106.50028203 156.71129331 111.9375 156.3125 C111.9375 211.0925 111.9375 265.8725 111.9375 322.3125 C106.80571252 320.60190417 101.89338123 318.94048762 96.91699219 316.9152832 C65.75286781 304.28694371 33.89338112 298.874364 0.375 299 C-0.5855127 299.00115814 -1.54602539 299.00231628 -2.53564453 299.00350952 C-21.89287529 299.04956943 -40.27364036 300.41909878 -59.0625 305.3125 C-60.58012145 305.68348453 -62.09829972 306.05220342 -63.6171875 306.41796875 C-73.56330234 308.88520445 -83.08021922 311.96771539 -92.58935547 315.80932617 C-97.79053056 317.82805806 -101.49920206 318.98148938 -107.0625 317.3125 C-109.23778559 315.67381276 -109.97524561 314.81451661 -110.44611019 312.10540545 C-110.45017708 311.2374171 -110.45424397 310.36942874 -110.4584341 309.47513771 C-110.47035744 308.47251353 -110.48228078 307.46988935 -110.49456543 306.43688262 C-110.49244633 305.33232958 -110.49032723 304.22777654 -110.48814392 303.0897522 C-110.50234756 301.33322974 -110.50234756 301.33322974 -110.51683813 299.54122198 C-110.54006097 296.2853326 -110.54980751 293.02972001 -110.55387604 289.77376032 C-110.56146685 286.26442049 -110.58619779 282.75519595 -110.60870361 279.2459259 C-110.64994921 272.36854359 -110.67482518 265.49119462 -110.69368111 258.61371805 C-110.70921815 253.02456044 -110.73019493 247.43544859 -110.75506783 241.84632492 C-110.75859161 241.05164633 -110.76211539 240.25696774 -110.76574596 239.43820798 C-110.77291463 237.8239422 -110.78008997 236.20967646 -110.78727192 234.59541075 C-110.85390652 219.4467738 -110.90138751 204.29812126 -110.94289208 189.14939766 C-110.98143851 175.28538256 -111.04288269 161.42158127 -111.11532312 147.55770536 C-111.18948 133.3296396 -111.2488253 119.10158476 -111.29183203 104.8733896 C-111.31623013 96.88241664 -111.34642298 88.89156768 -111.39192009 80.90068436 C-111.43047145 74.0973627 -111.45495179 67.29416824 -111.46121489 60.49073721 C-111.46479157 57.01864411 -111.47484813 53.54688917 -111.50232124 50.07489586 C-111.52865779 46.31276615 -111.53039042 42.55141527 -111.52574158 38.78921509 C-111.53923753 37.68912349 -111.55273349 36.5890319 -111.56663841 35.4556042 C-111.52024375 28.06985794 -111.52024375 28.06985794 -109.16356754 24.1706295 C-107.03478883 22.28799296 -105.40288556 21.26009645 -102.74609375 20.28515625 C-101.4921582 19.81408447 -101.4921582 19.81408447 -100.21289062 19.33349609 C-99.31763672 19.01719238 -98.42238281 18.70088867 -97.5 18.375 C-96.55962891 18.03291504 -95.61925781 17.69083008 -94.65039062 17.33837891 C-91.79423303 16.31029662 -88.92978913 15.30904856 -86.0625 14.3125 C-85.27891113 14.03229004 -84.49532227 13.75208008 -83.68798828 13.46337891 C-73.47330809 9.83184284 -63.10344321 7.29963472 -52.5 5.0625 C-51.34177734 4.81612793 -50.18355469 4.56975586 -48.99023438 4.31591797 C-32.6866584 1.0192055 -16.60338572 -0.06913546 0 0 Z " fill="#FEEAB6" transform="translate(144.0625,69.6875)"/>
<path d="M0 0 C1.34989014 0.00338379 1.34989014 0.00338379 2.72705078 0.00683594 C3.4126709 0.00973633 4.09829102 0.01263672 4.8046875 0.015625 C4.80615271 0.91100622 4.80615271 0.91100622 4.80764753 1.82447594 C4.86589719 37.18899164 4.93967698 72.55344165 5.03367378 107.91788084 C5.04494218 112.16245738 5.0560806 116.40703424 5.06713867 120.65161133 C5.06934236 121.49664376 5.07154604 122.34167618 5.0738165 123.21231566 C5.10920594 136.90179802 5.13406077 150.59128032 5.15503452 164.28079148 C5.17678347 178.3235164 5.20982524 192.36618186 5.25338906 206.40885621 C5.27992143 215.07660012 5.29760511 223.74426992 5.30403354 232.41205243 C5.30928259 238.35280573 5.32548323 244.29346571 5.35035316 250.23416903 C5.36438484 253.66361023 5.3735328 257.09288432 5.36969566 260.52235603 C5.36805209 264.23862716 5.38466466 267.95437802 5.40596008 271.670578 C5.40111251 272.75715216 5.39626493 273.84372632 5.39127046 274.96322697 C5.3784851 282.01073117 5.3784851 282.01073117 8.8046875 288.015625 C11.78485458 289.50570854 14.47272771 289.14105448 17.79913807 289.14146614 C18.53101358 289.14291958 19.26288909 289.14437302 20.01694265 289.14587051 C22.49461727 289.14954975 24.97223112 289.14603521 27.4499054 289.14260864 C29.23410692 289.14375971 31.01830822 289.14534713 32.80250901 289.14733589 C37.72522508 289.15153134 42.6479219 289.14943753 47.57063806 289.14634967 C52.87204458 289.14409662 58.17344767 289.14757474 63.47485352 289.15032959 C73.86900398 289.15478757 84.26314725 289.15381061 94.65729801 289.15091695 C103.10305205 289.14866266 111.54880407 289.14835051 119.99455833 289.14944077 C121.19457516 289.149594 122.39459198 289.14974723 123.63097295 289.14990511 C126.06848223 289.15022482 128.5059915 289.15054903 130.94350078 289.1508777 C153.82737347 289.15373267 176.71124216 289.1504454 199.59511419 289.14507733 C219.24334311 289.14061099 238.89156611 289.1413838 258.53979492 289.14599609 C281.33463631 289.1513445 304.12947418 289.15345617 326.92431611 289.15038383 C329.35400053 289.15006527 331.78368495 289.1497509 334.21336937 289.14944077 C335.40893558 289.14928649 336.60450179 289.14913221 337.83629728 289.14897326 C346.27331009 289.14810878 354.71032068 289.14956955 363.14733315 289.15192032 C373.42746714 289.15472154 383.70759349 289.15397328 393.98772661 289.14863957 C399.23582976 289.14600668 404.48392017 289.14499056 409.73202324 289.14828873 C414.53282783 289.1512602 419.33360782 289.14964455 424.13441017 289.14431117 C425.87466985 289.14319063 427.61493159 289.1437702 429.35518996 289.14618696 C431.71439434 289.14921289 434.07351362 289.14612356 436.43271351 289.14146614 C437.74508199 289.14130379 439.05745046 289.14114144 440.40958768 289.14097416 C443.34761103 289.03250054 445.95494823 288.70335584 448.8046875 288.015625 C449.77712535 285.09831145 449.9340178 283.23203911 449.9433527 280.19553089 C449.94882714 279.19679001 449.95430159 278.19804912 449.95994192 277.16904336 C449.96092003 276.06886162 449.96189814 274.96867988 449.96290588 273.8351593 C449.97031285 272.08559576 449.97031285 272.08559576 449.97786945 270.30068749 C449.99059798 267.0580151 449.99887286 263.81536597 450.00529611 260.57267606 C450.01329405 257.07779608 450.02699392 253.58293798 450.04000854 250.08807373 C450.06177989 244.03125506 450.07992197 237.97443418 450.09561348 231.91759682 C450.11830611 223.16037928 450.14644978 214.40318596 450.17593276 205.64598896 C450.22361611 191.43872664 450.26687828 177.23145442 450.30737305 163.02416992 C450.34672419 149.22142771 450.3881495 135.4186943 450.43237305 121.6159668 C450.43645946 120.34020844 450.43645946 120.34020844 450.44062842 119.03867719 C450.45430783 114.77202868 450.46802812 110.5053803 450.48176873 106.23873198 C450.59574518 70.83104789 450.70255195 35.42334516 450.8046875 0.015625 C452.37496154 -0.00141439 453.9452903 -0.01344628 455.515625 -0.0234375 C456.39009277 -0.03068848 457.26456055 -0.03793945 458.16552734 -0.04541016 C466.22231251 0.14091698 471.95779813 2.42350205 477.8046875 8.015625 C482.24831144 13.12083067 483.92505032 17.2657436 483.93890858 23.95203781 C483.94336642 24.95131955 483.94782426 25.95060129 483.95241719 26.98016429 C483.95214065 28.62371862 483.95214065 28.62371862 483.95185852 30.30047607 C483.95553521 31.46614522 483.9592119 32.63181437 483.963 33.83280683 C483.97211797 37.069181 483.97673458 40.30552536 483.97938931 43.54191017 C483.98329634 47.03214936 483.9928743 50.52237392 484.00160217 54.01260376 C484.02135382 62.44115081 484.03143048 70.86969903 484.04032996 79.29826343 C484.04471441 83.26806966 484.05008076 87.23787457 484.05531883 91.20767975 C484.07232871 104.4047709 484.08682327 117.60186122 484.09406757 130.79896164 C484.09597744 134.22274527 484.09789778 137.64652889 484.09985352 141.0703125 C484.10033726 141.92126784 484.100821 142.77222317 484.1013194 143.64896503 C484.10962121 157.43644867 484.13496175 171.22384559 484.16743419 185.01129135 C484.20050503 199.16825372 484.2185163 213.32517201 484.22171181 227.4821732 C484.22387673 235.43017408 484.23262285 243.37804844 484.25817299 251.32601166 C484.27988022 258.09412559 484.28793029 264.86208227 484.27820621 271.63022706 C484.2736617 275.08242316 484.27555598 278.53429479 484.29496765 281.98644638 C484.31261631 285.73218534 484.30561376 289.47710031 484.29243469 293.22283936 C484.30888856 294.85300936 484.30888856 294.85300936 484.32567483 296.51611209 C484.25822356 304.45309575 482.63419017 309.73935876 477.4296875 315.765625 C470.98175216 321.29242672 466.39477244 323.16632787 458.0240221 323.14984608 C457.21929147 323.15219831 456.41456083 323.15455054 455.58544442 323.15697405 C452.86593498 323.16367606 450.14647319 323.16320546 447.42695618 323.16279602 C445.46666284 323.16609389 443.50637017 323.1698193 441.54607838 323.1739375 C436.14115119 323.18397427 430.7362351 323.18767698 425.3312999 323.19032681 C419.50905453 323.19422488 413.68681799 323.20380353 407.86457825 323.21253967 C393.79522061 323.23231778 379.72586224 323.24237183 365.65649417 323.25126746 C359.0353052 323.25564801 352.41411703 323.26101541 345.7929287 323.26625633 C323.79019112 323.28326967 301.78745404 323.29778967 279.78471088 323.30500507 C278.36151382 323.30547983 276.93831675 323.30595572 275.51511968 323.30643274 C274.80933607 323.30666911 274.10355245 323.30690549 273.37638145 323.30714903 C269.80048151 323.30835024 266.22458157 323.30956568 262.64868164 323.31079102 C261.58420605 323.31115124 261.58420605 323.31115124 260.49822591 323.31151874 C237.48730733 323.31941247 214.47644027 323.34284554 191.46554419 323.37534696 C167.14205131 323.40963967 142.81858858 323.42935569 118.49507111 323.43264931 C105.23404626 323.43472324 91.97309397 323.44360089 78.71209145 323.46911049 C67.42048184 323.49078115 56.12896635 323.4988858 44.83733831 323.48914371 C39.07436948 323.48458853 33.31159502 323.486556 27.54865265 323.50590515 C22.27392031 323.52346248 16.99952519 323.52259956 11.72478964 323.50700786 C9.81559345 323.50462048 7.90637436 323.50901356 5.99721328 323.52083651 C3.40258452 323.53591035 0.8091576 323.52631458 -1.7854414 323.51060963 C-2.52723618 323.52083183 -3.26903096 323.53105404 -4.03330436 323.54158601 C-10.79801822 323.45217783 -15.85487276 321.03691387 -20.9453125 316.640625 C-25.43720827 311.40007994 -28.31667452 307.17538248 -28.32674026 300.19946671 C-28.33250198 298.70260562 -28.33250198 298.70260562 -28.3383801 297.17550492 C-28.33751362 296.07620707 -28.33664713 294.97690922 -28.33575439 293.84429932 C-28.33872552 292.67877903 -28.34169664 291.51325874 -28.3447578 290.31241965 C-28.3519452 287.0718534 -28.35461767 283.83131942 -28.35535526 280.5907464 C-28.35720489 277.09778403 -28.3647518 273.60483317 -28.37149048 270.11187744 C-28.38507843 262.47133448 -28.39109931 254.83079676 -28.39550114 247.19024372 C-28.39826293 242.41999767 -28.40250018 237.64975365 -28.40700531 232.87950897 C-28.41919887 219.67387647 -28.42949782 206.46824559 -28.4328804 193.26260757 C-28.43309997 192.41723705 -28.43331953 191.57186653 -28.43354575 190.70087872 C-28.43376403 189.85347612 -28.43398231 189.00607351 -28.4342072 188.13299203 C-28.43465067 186.41580979 -28.43509723 184.69862755 -28.43554688 182.98144531 C-28.4357683 182.12966217 -28.43598973 181.27787902 -28.43621787 180.40028426 C-28.44016566 166.59914556 -28.4576187 152.79805966 -28.4809064 138.99694136 C-28.50461879 124.82984501 -28.51708221 110.66277515 -28.51824832 96.49565864 C-28.51916517 88.54043436 -28.52492005 80.58527888 -28.54306793 72.63007355 C-28.55846746 65.85570199 -28.5635903 59.08142049 -28.55532983 52.30703476 C-28.55142269 48.85097409 -28.5523558 45.39509476 -28.56638718 41.9390564 C-28.57904751 38.19084246 -28.5732615 34.44309562 -28.56280518 30.69488525 C-28.57086158 29.60451029 -28.57891798 28.51413533 -28.58721852 27.3907187 C-28.53142016 18.85278808 -26.746992 13.00910484 -20.93359375 6.58984375 C-14.86812625 1.09684734 -7.93739819 -0.02581268 0 0 Z " fill="#FE4F19" transform="translate(28.1953125,118.984375)"/>
<path d="M0 0 C0.33 0 0.66 0 1 0 C1.00059709 0.55747683 1.00119418 1.11495366 1.00180936 1.68932372 C1.03767918 34.70725567 1.09428088 67.72507895 1.17792095 100.74292337 C1.18793878 104.70467315 1.19778285 108.66642335 1.20751953 112.62817383 C1.2094609 113.4169092 1.21140228 114.20564457 1.21340248 115.01828101 C1.2444498 127.8005729 1.26141074 140.58284682 1.27319422 153.36516932 C1.28559166 166.47450906 1.3130611 179.58375427 1.35461307 192.69303435 C1.37978895 200.78654422 1.39311431 208.8798974 1.39142957 216.97344699 C1.39139639 223.1726316 1.41230138 229.37158223 1.44116783 235.57069588 C1.44971854 238.11887498 1.45138206 240.66708747 1.44580269 243.21527481 C1.43921908 246.68279719 1.45694855 250.14935079 1.48101807 253.61677551 C1.47325765 254.63524734 1.46549723 255.65371916 1.45750165 256.70305377 C1.46894924 257.62864335 1.48039683 258.55423293 1.49219131 259.50787067 C1.4937102 260.30870085 1.49522908 261.10953103 1.49679399 261.93462878 C1.84817541 264.16557693 1.84817541 264.16557693 3.82305884 265.79191226 C7.12687281 267.62535509 9.38343378 266.81153276 13 266 C15.21016488 265.34110498 17.40348992 264.62354017 19.578125 263.85546875 C21.43002441 263.21351563 21.43002441 263.21351563 23.31933594 262.55859375 C23.96157104 262.33413574 24.60380615 262.10967773 25.26550293 261.87841797 C37.37740614 257.6615654 49.35460489 254.22538009 62 252 C63.70926257 251.62925854 65.41777492 251.25501356 67.125 250.875 C80.74008434 248.27209317 94.26226063 247.67736144 108.0925293 247.73925781 C110.93104464 247.74997563 113.76892556 247.73929448 116.60742188 247.7265625 C128.20924576 247.71744379 139.5073625 248.42435556 151 250 C151.98814697 250.13003418 152.97629395 250.26006836 153.99438477 250.39404297 C174.97646656 253.34768527 196.06229228 259.57752682 215.19213867 268.70019531 C220.74350237 271.26626297 224.03514357 271.01510797 229.73461914 269.0637207 C230.65879639 268.68820068 231.58297363 268.31268066 232.53515625 267.92578125 C234.10330078 267.29965942 234.10330078 267.29965942 235.703125 266.66088867 C236.81171875 266.21592041 237.9203125 265.77095215 239.0625 265.3125 C265.23408222 255.07421488 292.76062537 247.98442956 321 247.76171875 C322.53915573 247.74716393 322.53915573 247.74716393 324.10940552 247.73231506 C327.40631051 247.70751144 330.7030112 247.69480814 334 247.6875 C335.68340485 247.68357239 335.68340485 247.68357239 337.40081787 247.67956543 C353.95728562 247.67541809 369.80053486 248.28343911 386 252 C386.72977051 252.15484863 387.45954102 252.30969727 388.21142578 252.46923828 C392.86344189 253.45835308 397.43509307 254.66573625 402 256 C402.90411621 256.26216309 403.80823242 256.52432617 404.73974609 256.79443359 C407.78834882 257.68487446 410.83254328 258.58878772 413.875 259.5 C414.82656982 259.78464111 415.77813965 260.06928223 416.75854492 260.36254883 C422.25687209 262.04618049 427.55026889 263.96035005 432.82519531 266.25415039 C436.17969881 267.40457789 438.65436082 267.00369175 442 266 C443.35899447 265.03516229 444.69772739 264.04012683 446 263 C446.11632513 266.41637953 446.18728897 269.83224897 446.25 273.25 C446.28351563 274.21808594 446.31703125 275.18617188 446.3515625 276.18359375 C446.45050563 283.3569706 446.45050563 283.3569706 444.171875 286.609375 C440.07216947 289.23436631 436.64943588 289.12772013 431.8825016 289.13422108 C431.14947225 289.13657331 430.41644289 289.13892554 429.66120052 289.14134905 C427.18562819 289.14804758 424.71010824 289.14758057 422.23452759 289.14717102 C420.44946251 289.1504691 418.66439818 289.15419454 416.87933481 289.1583125 C411.95888334 289.1683467 407.03844407 289.17205156 402.11798382 289.17470181 C396.81727261 289.17860056 391.51657111 289.18817906 386.21586609 289.19691467 C373.40867898 289.21668932 360.60149107 289.22674571 347.79429251 289.23564246 C341.76794512 289.24002297 335.74159861 289.24539032 329.71525192 289.25063133 C309.6915359 289.26764319 289.66782043 289.28213903 269.64409828 289.28938007 C264.44632593 289.29129006 259.24855358 289.29321038 254.05078125 289.29516602 C252.75885311 289.29564976 251.46692497 289.2961335 250.13584749 289.2966319 C229.19107629 289.30493843 208.24636208 289.33028606 187.30161579 289.36274669 C165.81430972 289.3957777 144.32703266 289.41382517 122.83970106 289.41702431 C110.76869445 289.41919288 98.69777101 289.42799235 86.62678909 289.45348549 C76.35031425 289.4751383 66.07394276 289.48326963 55.7974477 289.47351871 C50.55128631 289.46895849 45.30533843 289.47095985 40.05920601 289.49028015 C35.26017814 289.50780183 30.46152126 289.5070042 25.66249005 289.49138286 C23.9229285 289.48898999 22.18334198 289.49341646 20.44381876 289.50521151 C18.08515009 289.52021891 15.72781504 289.51073684 13.36918068 289.49498463 C12.05735427 289.49596144 10.74552787 289.49693824 9.39394915 289.49794465 C5.42456717 288.91557513 3.77719806 287.84938826 1 285 C0.02961334 282.08884002 -0.12439159 280.25425946 -0.12304783 277.226758 C-0.12503888 276.23846731 -0.12702993 275.25017661 -0.12908131 274.23193771 C-0.12616847 273.14342881 -0.12325563 272.05491992 -0.12025452 270.9334259 C-0.12110894 269.77930086 -0.12196337 268.62517582 -0.12284368 267.4360773 C-0.12420874 264.22759658 -0.12107306 261.019156 -0.11606562 257.81068003 C-0.11175533 254.35262274 -0.11320796 250.8945674 -0.1139679 247.43650818 C-0.11449276 241.44352078 -0.11134984 235.45054425 -0.10573006 229.45755959 C-0.09761003 220.79266361 -0.09499932 212.12777291 -0.09374207 203.46287354 C-0.09155234 189.40534045 -0.0848944 175.34781315 -0.07543945 161.2902832 C-0.06626329 147.63305694 -0.05918345 133.97583224 -0.05493164 120.31860352 C-0.05466892 119.47705893 -0.05440619 118.63551435 -0.05413551 117.76846842 C-0.05283049 113.54677224 -0.05156678 109.32507604 -0.05032361 105.10337985 C-0.03995346 70.06891576 -0.0223373 35.03445842 0 0 Z " fill="#E6BD89" transform="translate(33,120)"/>
<path d="M0 0 C5.51579836 0.08708416 10.56522508 2.12204978 15.72265625 3.9140625 C16.78444092 4.27653076 17.84622559 4.63899902 18.94018555 5.01245117 C41.74983113 12.90415407 41.74983113 12.90415407 45.16015625 17.2890625 C45.53488636 19.74534702 45.53488636 19.74534702 45.53437805 22.723526 C45.54489952 24.41662148 45.54489952 24.41662148 45.55563354 26.1439209 C45.54798981 27.38299194 45.54034607 28.62206299 45.5324707 29.89868164 C45.53612137 31.20288559 45.53977203 32.50708954 45.54353333 33.85081482 C45.55294661 37.42926794 45.54351392 41.00744777 45.5302012 44.58587956 C45.51889579 48.32722729 45.52299344 52.06856137 45.52494812 55.80992126 C45.52583128 62.09215773 45.51474533 68.37428632 45.49633789 74.65649414 C45.47516069 81.92573385 45.47166219 89.19481561 45.47789985 96.46407992 C45.48358858 103.45065277 45.47795426 110.43716985 45.4667263 117.42373466 C45.46207472 120.40018174 45.46120886 123.37659478 45.46331215 126.35304451 C45.46554036 130.5050603 45.45110719 134.65685352 45.43481445 138.80883789 C45.43729187 140.04993317 45.43976929 141.29102844 45.44232178 142.56973267 C45.43169456 144.2585984 45.43169456 144.2585984 45.42085266 145.98158264 C45.41879979 146.96400468 45.41674692 147.94642672 45.41463184 148.95861912 C45.16015625 151.2890625 45.16015625 151.2890625 43.16015625 153.2890625 C37.25565861 153.22700322 33.37411775 150.05003281 28.78515625 146.7265625 C28.04910156 146.20642578 27.31304687 145.68628906 26.5546875 145.15039062 C24.74948697 143.87268375 22.95188167 142.58556342 21.16015625 141.2890625 C20.45890625 141.73636719 19.75765625 142.18367187 19.03515625 142.64453125 C17.06660816 143.89894572 15.09510072 145.14872479 13.12109375 146.39453125 C11.33729284 147.53588143 9.56673243 148.69890203 7.82421875 149.90234375 C2.80402364 153.31646111 2.80402364 153.31646111 -0.77734375 153.1640625 C-2.83984375 152.2890625 -2.83984375 152.2890625 -3.83984375 151.2890625 C-3.93866122 149.35508761 -3.96616602 147.41745473 -3.96682739 145.48095703 C-3.96964722 144.21890442 -3.97246704 142.95685181 -3.97537231 141.65655518 C-3.97342772 140.24499498 -3.97137953 138.83343492 -3.96923828 137.421875 C-3.97059227 135.94553586 -3.97237219 134.46919705 -3.97454834 132.99285889 C-3.97912294 128.97230966 -3.97733301 124.95178597 -3.97416925 120.93123627 C-3.97164579 116.73296538 -3.97398315 112.53469675 -3.97555542 108.33642578 C-3.97737716 101.28482671 -3.9749707 94.23323811 -3.97021484 87.18164062 C-3.96477222 79.017232 -3.96653487 70.85284834 -3.97204125 62.68844032 C-3.97657227 55.69143268 -3.97722298 48.69443257 -3.97460258 41.69742393 C-3.97303974 37.51281703 -3.97284622 33.32822188 -3.97613907 29.14361572 C-3.97901762 25.21042964 -3.97704239 21.27727589 -3.97124481 17.34409332 C-3.96991713 15.8964366 -3.97031147 14.44877718 -3.97250748 13.00112152 C-3.97521862 11.03313796 -3.97122448 9.06514848 -3.96682739 7.09716797 C-3.96645037 5.993237 -3.96607334 4.88930603 -3.96568489 3.75192261 C-3.7851348 0.21834351 -3.55810926 0.36217343 0 0 Z " fill="#5D647F" transform="translate(210.83984375,73.7109375)"/>
<path d="M0 0 C0.33 0 0.66 0 1 0 C1.33 48.84 1.66 97.68 2 148 C6.47702364 149.06537205 6.47702364 149.06537205 9 149 C8.49916479 152.70618054 7.97216489 154.66664883 5 157 C-1.73423362 158.34949279 -8.68675126 156.300606 -15.2265625 154.796875 C-21.76595481 153.41588532 -28.35712216 152.69155085 -35 152 C-36.60681641 151.82984375 -36.60681641 151.82984375 -38.24609375 151.65625 C-70.27587341 148.83355216 -103.28562268 151.99195047 -134.08203125 161.30078125 C-137.20724684 162.04966156 -139.79883694 162.27310622 -143 162 C-146.32274404 159.54405875 -147.77618008 158.0743356 -148.625 154 C-147.77696159 149.92941562 -146.1674842 148.66270584 -143 146 C-140.37630323 144.94191901 -138.02329395 144.13820701 -135.3125 143.4375 C-134.18992798 143.13126709 -134.18992798 143.13126709 -133.04467773 142.81884766 C-130.70150005 142.19097083 -128.35222141 141.59299284 -126 141 C-125.29681641 140.81550293 -124.59363281 140.63100586 -123.86914062 140.44091797 C-103.619517 135.17811522 -83.15249878 133.72460147 -62.3125 133.75 C-61.11191956 133.75102722 -61.11191956 133.75102722 -59.88708496 133.7520752 C-46.25750147 133.79058278 -32.65117108 134.13274925 -19.1875 136.4375 C-18.38852295 136.56874268 -17.5895459 136.69998535 -16.76635742 136.83520508 C-11.15170145 137.76936225 -5.56721932 138.81354342 0 140 C0 134.72 0 129.44 0 124 C-1.86011719 123.814375 -1.86011719 123.814375 -3.7578125 123.625 C-8.44540442 123.10517333 -13.07008675 122.3392411 -17.71704102 121.5402832 C-28.14575833 119.75607359 -38.36664428 118.49556787 -48.94140625 118.17578125 C-60.08341556 117.77909677 -60.08341556 117.77909677 -63.5 114.875 C-65.39565124 111.24166845 -65.58860004 109.04662526 -65 105 C-63.5234375 102.81640625 -63.5234375 102.81640625 -61 101 C-57.89393081 100.58009403 -55.22888925 100.4336035 -52.125 100.5 C-51.22676514 100.50918457 -50.32853027 100.51836914 -49.40307617 100.52783203 C-32.84819565 100.94659189 -16.1974833 103.76050334 0 107 C0 90.83 0 74.66 0 58 C-3.3 57.67 -6.6 57.34 -10 57 C-13.06921658 56.5444335 -16.12764146 56.07204092 -19.1875 55.5625 C-21.53758788 55.17322164 -23.88789897 54.79223094 -26.24243164 54.43066406 C-28.18287052 54.12761544 -30.11941685 53.79909051 -32.05249023 53.45214844 C-45.67820169 51.25324185 -59.40581911 51.92692782 -73.15991211 52.19189453 C-76.50636915 52.25208857 -79.85239564 52.28772919 -83.19921875 52.3203125 C-84.22520676 52.34723175 -85.25119476 52.374151 -86.30827332 52.40188599 C-93.33596303 52.45175332 -93.33596303 52.45175332 -96.64770508 50.19873047 C-98.62632056 46.98164958 -98.46243442 44.69947535 -98 41 C-97.0625 38.6875 -97.0625 38.6875 -95 37 C-88.53152219 34.86008558 -82.00216516 34.70552663 -75.25390625 34.734375 C-74.24392075 34.73246155 -73.23393524 34.7305481 -72.19334412 34.72857666 C-70.06289418 34.72722214 -67.93243579 34.7308671 -65.80200195 34.73925781 C-62.60282967 34.74986627 -59.404232 34.7393897 -56.20507812 34.7265625 C-36.64022303 34.70908523 -19.47797456 37.10440509 0 41 C0 27.47 0 13.94 0 0 Z " fill="#B5B6BB" transform="translate(206,77)"/>
<path d="M0 0 C2.96775219 0.01611052 5.93414336 0.00001528 8.90185547 -0.01904297 C26.32268752 -0.0386124 43.40707461 1.90335911 60.40576172 5.76611328 C61.35032227 5.97671387 62.29488281 6.18731445 63.26806641 6.40429688 C85.9866292 11.62175367 85.9866292 11.62175367 89.46826172 16.39111328 C90.1160226 20.76349924 89.96784022 22.67959239 87.40576172 26.32861328 C83.67997433 28.94459166 81.97078754 28.70877615 77.46826172 28.39111328 C74.73033903 27.71288675 72.09181063 26.9787799 69.40576172 26.14111328 C62.30162183 24.0456206 55.195947 22.44740781 47.90576172 21.14111328 C47.00269287 20.97836914 46.09962402 20.815625 45.16918945 20.64794922 C35.73331396 19.00541116 26.57689738 18.23360885 16.99560547 18.22314453 C15.91428848 18.21981613 14.8329715 18.21648773 13.71888733 18.21305847 C11.43881655 18.20801836 9.15873846 18.20564924 6.87866211 18.20581055 C3.44030163 18.20363513 0.00226825 18.18547827 -3.43603516 18.16650391 C-15.30092639 18.13555132 -26.81797237 18.39565574 -38.53173828 20.39111328 C-39.45269287 20.54781494 -40.37364746 20.7045166 -41.32250977 20.8659668 C-43.632828 21.29123336 -45.92484976 21.76257333 -48.21923828 22.26611328 C-49.01177002 22.4346582 -49.80430176 22.60320312 -50.62084961 22.77685547 C-55.41187108 23.82675628 -60.05250938 25.11794482 -64.71923828 26.64111328 C-69.64276994 28.21138831 -73.38935706 29.21756741 -78.53173828 28.39111328 C-81.97324693 25.95337799 -83.29385728 24.53294209 -84.15673828 20.39111328 C-83.29466593 16.25316601 -81.81016021 15.06211186 -78.53173828 12.39111328 C-75.32256745 11.01711599 -72.03288363 10.13631603 -68.65673828 9.26611328 C-67.24509399 8.88555786 -67.24509399 8.88555786 -65.80493164 8.49731445 C-44.17231114 2.76587829 -22.37867222 -0.14371286 0 0 Z " fill="#888590" transform="translate(364.53173828125,276.60888671875)"/>
<path d="M0 0 C0.90491684 -0.00692368 1.80983368 -0.01384735 2.74217224 -0.02098083 C5.64716979 -0.03817827 8.55198518 -0.04456831 11.45703125 -0.046875 C12.44684998 -0.04821442 13.4366687 -0.04955383 14.45648193 -0.05093384 C27.83250835 -0.0469982 40.88012 0.25851989 54.0546875 2.79296875 C56.31875331 3.2122402 58.58233724 3.54569679 60.86328125 3.859375 C69.1191961 5.02705655 77.07444396 6.80792937 85.08203125 9.140625 C86.34587646 9.50184448 86.34587646 9.50184448 87.63525391 9.87036133 C92.2294829 11.27532004 95.83986065 12.67117794 99.26953125 16.203125 C99.89453125 19.640625 99.89453125 19.640625 99.26953125 23.203125 C97.20703125 26.140625 97.20703125 26.140625 94.26953125 28.203125 C88.89274234 28.65777994 84.40416763 27.55080751 79.33203125 25.953125 C34.51164342 12.73878951 -14.97571173 14.38344461 -59.56640625 27.46875 C-62.78768169 28.21640405 -65.43835672 28.4914173 -68.73046875 28.203125 C-72.05321279 25.74718375 -73.50664883 24.2774606 -74.35546875 20.203125 C-73.50326337 16.11253919 -71.92587469 14.87640578 -68.73046875 12.203125 C-66.00565524 10.86804022 -63.20856703 10.0264883 -60.29296875 9.203125 C-59.44694092 8.95602783 -58.60091309 8.70893066 -57.72924805 8.4543457 C-39.22168915 3.34650136 -19.19825856 0.09950125 0 0 Z " fill="#888590" transform="translate(354.73046875,210.796875)"/>
<path d="M0 0 C1.20527344 0.309375 2.41054687 0.61875 3.65234375 0.9375 C8.01214001 2.29587867 11.80551452 3.74301452 15.0625 7 C15.40206435 10.00756999 15.61303953 12.0981979 15.0625 15 C13 17.5 13 17.5 10.0625 19 C4.64861305 19.39905801 0.11578271 18.34363894 -5 16.75 C-48.72787077 3.9679369 -99.10733617 3.93707998 -142.4453125 18.265625 C-146.28062006 19.39577833 -148.9678232 19.63798377 -152.9375 19 C-156.37900865 16.56226471 -157.699619 15.14182881 -158.5625 11 C-157.70976645 6.90687894 -156.138939 5.67065211 -152.9375 3 C-150.19371807 1.66606055 -147.37850176 0.85490925 -144.4375 0.0625 C-143.08374268 -0.30319092 -143.08374268 -0.30319092 -141.70263672 -0.67626953 C-94.56394024 -12.73214311 -47.00865174 -12.24981153 0 0 Z " fill="#B5B6BB" transform="translate(215.9375,286)"/>
<path d="M0 0 C2.81426045 0.01082881 5.62789598 -0.00003061 8.44213867 -0.01269531 C32.90448731 -0.03351616 32.90448731 -0.03351616 38.66674805 4.44824219 C40.27540217 8.25821249 40.0711257 10.32378506 38.85424805 14.26074219 C36.15675933 17.03823085 34.71564469 18.20909425 30.80444336 18.44360352 C29.13526855 18.23900513 29.13526855 18.23900513 27.43237305 18.03027344 C-1.89970955 15.02918802 -33.72356948 17.07757828 -62.14575195 25.26074219 C-75.29817101 28.99361475 -75.29817101 28.99361475 -79.14575195 28.26074219 C-82.46849599 25.80480094 -83.92193204 24.33507779 -84.77075195 20.26074219 C-84.13558958 17.21196281 -83.41680178 15.48011107 -81.0625 13.40625 C-72.85594938 8.50176197 -61.7699275 7.11098985 -52.52075195 5.13574219 C-51.40313477 4.884375 -50.28551758 4.63300781 -49.1340332 4.37402344 C-32.83916478 0.86520735 -16.62875929 -0.07603055 0 0 Z " fill="#B5B6BB" transform="translate(142.145751953125,144.7392578125)"/>
<path d="M0 0 C2.89766852 0.01083793 5.79473146 -0.00003331 8.69238281 -0.01269531 C32.48925852 -0.03240355 32.48925852 -0.03240355 38.12207031 4.44824219 C39.81566336 8.25882655 39.59786983 10.29492023 38.37207031 14.26074219 C36.19458547 16.91455184 34.66022257 18.09738955 31.21582031 18.53417969 C28.09441337 18.58620314 25.20863048 18.44955365 22.15673828 17.76074219 C-7.96921015 12.35148895 -42.02478486 19.50177509 -70.8684082 27.68164062 C-73.90791601 28.31949894 -76.53094771 28.50133639 -79.62792969 28.26074219 C-82.95067373 25.80480094 -84.40410977 24.33507779 -85.25292969 20.26074219 C-84.61776732 17.21196281 -83.89897951 15.48011107 -81.54467773 13.40625 C-73.33812712 8.50176197 -62.25210524 7.11098985 -53.00292969 5.13574219 C-51.8853125 4.884375 -50.76769531 4.63300781 -49.61621094 4.37402344 C-33.15610999 0.82962741 -16.79636724 -0.0747016 0 0 Z " fill="#878590" transform="translate(365.6279296875,144.7392578125)"/>
<path d="M0 0 C0.93857849 0.00343414 1.87715698 0.00686829 2.84417725 0.01040649 C28.16626647 0.11935533 51.85242142 2.96700809 76.3125 9.8125 C77.33972168 10.09057495 77.33972168 10.09057495 78.38769531 10.37426758 C82.40673748 11.56815952 84.99341569 12.90067528 87.5625 16.25 C88.28375695 20.65768137 88.08251338 22.50937488 85.5 26.1875 C81.78106141 28.79866965 80.05327484 28.56911788 75.5625 28.25 C72.96272795 27.57372667 70.47885546 26.84366044 67.9375 26 C61.3944457 23.96278529 54.85559068 22.35178927 48.125 21.0625 C47.34108887 20.90813477 46.55717773 20.75376953 45.74951172 20.59472656 C43.02669838 20.09092686 40.30119704 19.65937046 37.5625 19.25 C35.71060059 18.9720459 35.71060059 18.9720459 33.82128906 18.68847656 C19.13897738 16.68478783 4.44694396 17.16117358 -10.33496094 17.44189453 C-13.73114078 17.50205002 -17.12689791 17.53770537 -20.5234375 17.5703125 C-21.56188812 17.59723175 -22.60033875 17.624151 -23.67025757 17.65188599 C-30.77171345 17.70173562 -30.77171345 17.70173562 -34.09228516 15.44873047 C-36.06117206 12.23061878 -35.8994767 9.94581357 -35.4375 6.25 C-33.96177112 3.66046334 -33.05567992 2.48028214 -30.23803711 1.43066406 C-20.17830372 -0.10959954 -10.15161527 -0.06023145 0 0 Z " fill="#878590" transform="translate(366.4375,111.75)"/>
<path d="M0 0 C0.902379 -0.00970322 1.804758 -0.01940643 2.73448181 -0.02940369 C5.67589724 -0.0544778 8.61708184 -0.06695664 11.55859375 -0.07421875 C13.05712891 -0.07814636 13.05712891 -0.07814636 14.5859375 -0.08215332 C29.45850795 -0.08634042 43.65648762 0.65369474 58.26318359 3.67382812 C61.01802708 4.24281134 63.77868912 4.75425139 66.546875 5.25390625 C92.63514869 10.05907748 92.63514869 10.05907748 98.99609375 16.23828125 C99.86264021 18.99400665 99.59472628 21.42931323 98.99609375 24.23828125 C97.55859375 26.73828125 97.55859375 26.73828125 94.99609375 28.23828125 C88.22874021 29.27058942 82.54377615 27.32034911 76.14526367 25.30786133 C70.03742447 23.43273426 63.90679591 22.12053168 57.62109375 20.98828125 C56.73075439 20.82553711 55.84041504 20.66279297 54.9230957 20.49511719 C44.89832907 18.74716158 34.94675238 18.1047592 24.78125 18.02734375 C22.69335094 17.99931937 20.60546039 17.97065535 18.51757812 17.94140625 C15.26977384 17.89993546 12.0221367 17.86298857 8.77416992 17.83691406 C5.60954418 17.80939351 2.4456104 17.76358414 -0.71875 17.71484375 C-2.17812233 17.70996445 -2.17812233 17.70996445 -3.66697693 17.70498657 C-4.57214554 17.6884201 -5.47731415 17.67185364 -6.40991211 17.65478516 C-7.59924599 17.64265488 -7.59924599 17.64265488 -8.81260681 17.63027954 C-11.55515158 17.1396698 -12.95355366 16.09162917 -15.00390625 14.23828125 C-16.06811635 11.58884152 -16.24725603 9.07551847 -16.00390625 6.23828125 C-12.02679667 -0.43758127 -7.12829103 0.06240613 0 0 Z " fill="#888690" transform="translate(355.00390625,309.76171875)"/>
<path d="M0 0 C0.84090683 -0.0033284 1.68181366 -0.0066568 2.54820251 -0.01008606 C4.3378749 -0.01515508 6.12755677 -0.01749439 7.91723633 -0.01733398 C10.59017835 -0.01948131 13.26268012 -0.03752567 15.93554688 -0.05664062 C27.28994779 -0.09449193 38.34354249 0.62054041 49.58984375 2.16796875 C50.68385498 2.31403564 51.77786621 2.46010254 52.9050293 2.6105957 C63.85021301 4.15455311 74.62547979 6.20041591 85.27734375 9.16796875 C86.14399658 9.40483398 87.01064941 9.64169922 87.90356445 9.88574219 C92.5250599 11.24449043 96.1894728 12.57717702 99.58984375 16.16796875 C100.45639021 18.92369415 100.18847628 21.35900073 99.58984375 24.16796875 C98.15234375 26.66796875 98.15234375 26.66796875 95.58984375 28.16796875 C89.54624656 29.08987341 84.66032884 27.71249174 78.90234375 25.91796875 C57.58856594 19.29354426 35.22617118 17.03593836 12.96484375 17.15625 C11.87252945 17.16182419 11.87252945 17.16182419 10.75814819 17.16751099 C7.17045966 17.1921671 3.58526608 17.24268444 -0.00146484 17.32910156 C-1.29906738 17.3494043 -2.59666992 17.36970703 -3.93359375 17.390625 C-5.08778809 17.41906494 -6.24198242 17.44750488 -7.43115234 17.47680664 C-10.73759367 17.13402281 -12.05608032 16.46569526 -14.41015625 14.16796875 C-15.47436635 11.51852902 -15.65350603 9.00520597 -15.41015625 6.16796875 C-11.53377248 -0.33881829 -6.96174729 0.00964781 0 0 Z " fill="#B5B6BB" transform="translate(131.41015625,309.83203125)"/>
<path d="M0 0 C1.38494698 -0.02189647 2.76979815 -0.05125336 4.15441895 -0.08843994 C6.09615622 -0.13615376 8.03871249 -0.14587938 9.98101807 -0.15420532 C11.10081055 -0.16765991 12.22060303 -0.1811145 13.37432861 -0.19497681 C17.40047897 0.60078836 18.88800003 2.23131813 21.40679932 5.40438843 C21.96929932 8.96688843 21.96929932 8.96688843 21.40679932 12.40438843 C19.18816902 15.31155916 17.88735003 16.24420486 14.40679932 17.40438843 C11.88800277 17.534529 9.39190416 17.61405237 6.87164307 17.65048218 C5.33379323 17.68158131 3.79595165 17.71309095 2.25811768 17.7449646 C1.05395706 17.76797134 1.05395706 17.76797134 -0.17453003 17.79144287 C-24.36719843 18.28331255 -47.29674269 20.69971719 -70.66741943 27.56454468 C-74.22714667 28.58636224 -76.91019672 28.88181487 -80.59320068 28.40438843 C-83.97442059 25.95839956 -85.36256852 24.51142283 -86.21820068 20.40438843 C-85.37280904 16.34650853 -83.73775195 15.06840505 -80.59320068 12.40438843 C-78.10881872 11.35464957 -75.92176661 10.58276339 -73.34320068 9.90438843 C-72.61431641 9.70353638 -71.88543213 9.50268433 -71.13446045 9.29574585 C-47.62861887 3.03900466 -24.27670742 0.35098938 0 0 Z " fill="#B5B7BB" transform="translate(143.59320068359375,243.59561157226563)"/>
<path d="M0 0 C1.29574951 -0.01780518 2.59149902 -0.03561035 3.92651367 -0.05395508 C5.74759644 -0.05238403 5.74759644 -0.05238403 7.60546875 -0.05078125 C9.22231567 -0.05525269 9.22231567 -0.05525269 10.87182617 -0.05981445 C14.22438315 0.36464793 16.1072605 1.31918162 18.8125 3.3125 C20.35836876 6.40423752 20.10609521 8.90679552 19.8125 12.3125 C17.59386971 15.21967073 16.29305071 16.15231643 12.8125 17.3125 C10.29370345 17.44264057 7.79760484 17.52216394 5.27734375 17.55859375 C3.73949391 17.58969288 2.20165234 17.62120252 0.66381836 17.65307617 C-0.54034225 17.67608292 -0.54034225 17.67608292 -1.76882935 17.69955444 C-25.96149775 18.19142413 -48.89104201 20.60782877 -72.26171875 27.47265625 C-75.82144598 28.49447381 -78.50449604 28.78992644 -82.1875 28.3125 C-85.56871991 25.86651113 -86.95686783 24.41953441 -87.8125 20.3125 C-86.96710836 16.25462011 -85.33205127 14.97651662 -82.1875 12.3125 C-79.70311803 11.26276114 -77.51606593 10.49087497 -74.9375 9.8125 C-74.20861572 9.61164795 -73.47973145 9.4107959 -72.72875977 9.20385742 C-48.66332793 2.79816553 -24.84249176 0.2207805 0 0 Z " fill="#888590" transform="translate(368.1875,243.6875)"/>
<path d="M0 0 C16.5 0 33 0 50 0 C50 10.89 50 21.78 50 33 C33.5 33 17 33 0 33 C0 22.11 0 11.22 0 0 Z " fill="#E3001D" transform="translate(231,409)"/>
<path d="M0 0 C1.58458008 0.0148645 1.58458008 0.0148645 3.20117188 0.0300293 C14.16292451 0.27982145 24.8012915 1.96653128 35.55810547 3.98730469 C37.99468585 4.44084296 40.43286885 4.859199 42.87890625 5.2578125 C49.71141987 6.39778443 56.36914715 7.94620062 63 9.9375 C63.66008057 10.13077881 64.32016113 10.32405762 65.00024414 10.52319336 C69.14356627 11.83638035 72.21110669 13.43933793 75.3125 16.5 C75.9375 19.9375 75.9375 19.9375 75.3125 23.5 C73.25 26.4375 73.25 26.4375 70.3125 28.5 C64.93513143 28.95470396 60.44778232 27.84628167 55.375 26.25 C41.46008164 22.18051546 27.24317477 19.92297403 12.8046875 18.76171875 C12.07986176 18.70179749 11.35503601 18.64187622 10.60824585 18.58013916 C7.01469192 18.28648787 3.42259816 18.02146806 -0.17626953 17.80224609 C-1.48450684 17.70379395 -2.79274414 17.6053418 -4.140625 17.50390625 C-5.30754883 17.42986572 -6.47447266 17.3558252 -7.67675781 17.27954102 C-11.53999986 16.27927084 -12.63701151 14.86244312 -14.6875 11.5 C-15.21376273 7.75037808 -15.35137609 5.56334308 -13.32421875 2.31640625 C-9.13346037 -0.57056063 -4.97078952 -0.08966698 0 0 Z " fill="#888590" transform="translate(378.6875,177.5)"/>
<path d="M0 0 C2.5625 2.875 2.5625 2.875 3.1875 5.875 C2.37633915 9.76857208 1.60662997 11.26574574 -1.4375 13.875 C-3.5144043 14.46850586 -3.5144043 14.46850586 -5.94921875 14.90234375 C-6.8422168 15.06557129 -7.73521484 15.22879883 -8.65527344 15.39697266 C-9.5734082 15.55472168 -10.49154297 15.7124707 -11.4375 15.875 C-12.28602539 16.02372559 -13.13455078 16.17245117 -14.00878906 16.32568359 C-15.73081759 16.62543923 -17.45315769 16.9234096 -19.17578125 17.21972656 C-28.34963529 18.80955149 -37.32362759 20.71189641 -46.27124023 23.30004883 C-50.41996689 24.47400803 -54.07926186 25.32496559 -58.4375 24.875 C-61.76024404 22.41905875 -63.21368008 20.9493356 -64.0625 16.875 C-63.22374488 12.84897544 -61.53025078 11.53323208 -58.4375 8.875 C-55.625 7.6875 -55.625 7.6875 -52.4375 6.875 C-51.21160156 6.55789062 -49.98570312 6.24078125 -48.72265625 5.9140625 C-47.29441781 5.56710275 -45.86602055 5.22079639 -44.4375 4.875 C-42.72778116 4.44564455 -41.01815024 4.01593893 -39.30859375 3.5859375 C-6.36571791 -4.58272748 -6.36571791 -4.58272748 0 0 Z " fill="#888590" transform="translate(344.4375,181.125)"/>
<path d="M0 0 C1.92392578 -0.05607422 1.92392578 -0.05607422 3.88671875 -0.11328125 C7.3125 0.3125 7.3125 0.3125 9.73828125 2.1484375 C11.3125 4.3125 11.3125 4.3125 11.8125 7.25 C11.16091 11.24098876 10.4017491 12.6645722 7.3125 15.3125 C4.05235485 16.40801436 0.70777697 16.81510274 -2.6875 17.3125 C-5.12714773 17.7378604 -7.56449094 18.1765492 -10 18.625 C-10.66499512 18.74617188 -11.32999023 18.86734375 -12.01513672 18.9921875 C-18.7911884 20.26161707 -25.47499971 21.89415332 -32.15356445 23.59887695 C-43.80731726 26.49457604 -43.80731726 26.49457604 -49.6875 26.3125 C-53.29699917 23.93023055 -54.43235227 22.53720909 -55.3125 18.3125 C-54.47374488 14.28647544 -52.78025078 12.97073208 -49.6875 10.3125 C-46.875 9.125 -46.875 9.125 -43.6875 8.3125 C-42.46933594 7.99667969 -41.25117187 7.68085938 -39.99609375 7.35546875 C-38.56021502 7.00649656 -37.12398704 6.65895967 -35.6875 6.3125 C-33.90754566 5.87111966 -32.12759812 5.42971189 -30.34765625 4.98828125 C-20.21534739 2.50992556 -10.49258919 0.20157654 0 0 Z " fill="#B5B6BB" transform="translate(112.6875,179.6875)"/>
<path d="M0 0 C2.77399568 0.56087913 5.52530942 1.1833724 8.27880859 1.83740234 C9.24987549 2.06411621 10.22094238 2.29083008 11.22143555 2.52441406 C29.92206602 6.99749815 29.92206602 6.99749815 33.46630859 11.58740234 C34.22102557 18.37985517 34.22102557 18.37985517 31.90380859 22.08740234 C27.13942899 25.01932825 22.09698366 23.60440082 16.91943359 22.38037109 C14.8495575 21.85366155 12.78187441 21.31826947 10.71630859 20.77490234 C9.69537109 20.51386719 8.67443359 20.25283203 7.62255859 19.98388672 C5.57922921 19.45879256 3.53815425 18.92484191 1.49951172 18.38183594 C-0.54174812 17.84720462 -2.59040565 17.34013917 -4.64501953 16.859375 C-5.6240625 16.62138184 -6.60310547 16.38338867 -7.61181641 16.13818359 C-8.48741211 15.93491455 -9.36300781 15.73164551 -10.26513672 15.5222168 C-13.05623301 14.37207606 -14.01977058 13.16910253 -15.53369141 10.58740234 C-16.21913079 6.56044597 -15.88335284 5.09004065 -13.53369141 1.71240234 C-9.14590433 -1.3956135 -5.10535628 -0.83137908 0 0 Z " fill="#B5B7BB" transform="translate(197.53369140625,248.41259765625)"/>
<path d="M0 0 C2.05131394 0.42806968 4.07769625 0.91421178 6.10839844 1.43115234 C6.83833008 1.61162109 7.56826172 1.79208984 8.3203125 1.97802734 C10.54442594 2.53429714 12.76393283 3.10665565 14.98339844 3.68115234 C15.6643457 3.85195312 16.34529297 4.02275391 17.046875 4.19873047 C29.62416726 7.36947642 29.62416726 7.36947642 33.98339844 11.68115234 C34.90510299 14.45710959 34.67116827 16.8549385 33.98339844 19.68115234 C32.17089844 22.24365234 32.17089844 22.24365234 28.98339844 23.68115234 C19.74623097 24.50071619 9.97980126 20.74377995 1.17871094 18.28027344 C-0.73101725 17.75909095 -2.65425141 17.2879009 -4.57910156 16.82568359 C-5.54847656 16.59236328 -6.51785156 16.35904297 -7.51660156 16.11865234 C-8.33128906 15.93173828 -9.14597656 15.74482422 -9.98535156 15.55224609 C-12.60947154 14.42690233 -13.56610011 13.11074228 -15.01660156 10.68115234 C-15.70204094 6.65419597 -15.36626299 5.18379065 -13.01660156 1.80615234 C-8.8248963 -1.16297222 -4.89767326 -0.77437788 0 0 Z " fill="#888590" transform="translate(420.0166015625,248.31884765625)"/>
<path d="M0 0 C1.98521911 3.36624109 1.91821685 5.59176517 1.4375 9.4375 C-0.13248061 12.25612016 -1.17960247 13.27699461 -4.17871094 14.53417969 C-5.20770508 14.80649414 -6.23669922 15.07880859 -7.296875 15.359375 C-8.42867188 15.66230469 -9.56046875 15.96523438 -10.7265625 16.27734375 C-11.90992188 16.57769531 -13.09328125 16.87804687 -14.3125 17.1875 C-15.48039062 17.50332031 -16.64828125 17.81914062 -17.8515625 18.14453125 C-29.07258994 21.08337177 -29.07258994 21.08337177 -34.5625 20.4375 C-37.94371991 17.99151113 -39.33186783 16.54453441 -40.1875 12.4375 C-39.32700193 8.30710926 -37.83550137 7.09602985 -34.5625 4.4375 C-31.44650544 3.18709631 -28.26961996 2.42957673 -25 1.6875 C-24.14986328 1.47996094 -23.29972656 1.27242188 -22.42382812 1.05859375 C-20.84492093 0.67470259 -19.26427047 0.29785651 -17.68139648 -0.06933594 C-16.2596852 -0.40023314 -14.841745 -0.74773807 -13.42797852 -1.11108398 C-8.77992011 -2.23583991 -4.13506778 -2.52138279 0 0 Z " fill="#888590" transform="translate(320.5625,317.5625)"/>
<path d="M0 0 C1.98521911 3.36624109 1.91821685 5.59176517 1.4375 9.4375 C-0.13248061 12.25612016 -1.17960247 13.27699461 -4.17871094 14.53417969 C-5.20770508 14.80649414 -6.23669922 15.07880859 -7.296875 15.359375 C-8.42867187 15.66230469 -9.56046875 15.96523438 -10.7265625 16.27734375 C-11.90992187 16.57769531 -13.09328125 16.87804687 -14.3125 17.1875 C-15.48039062 17.50332031 -16.64828125 17.81914062 -17.8515625 18.14453125 C-29.07258994 21.08337177 -29.07258994 21.08337177 -34.5625 20.4375 C-37.94371991 17.99151113 -39.33186783 16.54453441 -40.1875 12.4375 C-39.32700193 8.30710926 -37.83550137 7.09602985 -34.5625 4.4375 C-31.44650544 3.18709631 -28.26961996 2.42957673 -25 1.6875 C-24.14986328 1.47996094 -23.29972656 1.27242188 -22.42382812 1.05859375 C-20.84492093 0.67470259 -19.26427047 0.29785651 -17.68139648 -0.06933594 C-16.2596852 -0.40023314 -14.841745 -0.74773807 -13.42797852 -1.11108398 C-8.77992011 -2.23583991 -4.13506778 -2.52138279 0 0 Z " fill="#B5B7BB" transform="translate(97.5625,317.5625)"/>
<path d="M0 0 C1.75 1.1875 1.75 1.1875 3.75 4.1875 C4.1875 7.0625 4.1875 7.0625 3.75 10.1875 C-0.10803827 15.04772399 -3.92172858 16.47214571 -9.6875 18 C-10.42548828 18.21591797 -11.16347656 18.43183594 -11.92382812 18.65429688 C-16.09701367 19.82278883 -19.88219048 20.63266818 -24.25 20.1875 C-27.57274404 17.73155875 -29.02618008 16.2618356 -29.875 12.1875 C-29.02576573 8.11117551 -27.42282633 6.85736839 -24.25 4.1875 C-21.67819816 2.95422615 -19.05254754 2.15096518 -16.3125 1.375 C-15.27706055 1.05112305 -15.27706055 1.05112305 -14.22070312 0.72070312 C-9.42598079 -0.71089644 -4.86268579 -1.75596987 0 0 Z " fill="#B5B7BB" transform="translate(87.25,119.8125)"/>
<path d="M0 0 C2.625 2.875 2.625 2.875 3.3125 5.875 C2.38233752 9.93389084 0.81624491 11.2142369 -2.375 13.875 C-5.11340335 15.12377644 -7.90768466 15.91776179 -10.8125 16.6875 C-11.55048828 16.90341797 -12.28847656 17.11933594 -13.04882812 17.34179688 C-17.22201367 18.51028883 -21.00719048 19.32016818 -25.375 18.875 C-28.69774404 16.41905875 -30.15118008 14.9493356 -31 10.875 C-30.15076573 6.79867551 -28.54782633 5.54486839 -25.375 2.875 C-22.80319816 1.64172615 -20.17754754 0.83846518 -17.4375 0.0625 C-16.40206055 -0.26137695 -16.40206055 -0.26137695 -15.34570312 -0.59179688 C-9.63973093 -2.29547578 -5.28590646 -3.32816332 0 0 Z " fill="#888590" transform="translate(311.375,121.125)"/>
<path d="M0 0 C1.59298721 0.52572531 3.18281154 1.06111965 4.76953125 1.60546875 C5.57583984 1.86650391 6.38214844 2.12753906 7.21289062 2.39648438 C8.37594727 2.78803711 8.37594727 2.78803711 9.5625 3.1875 C10.26270264 3.42315674 10.96290527 3.65881348 11.68432617 3.90161133 C13.85588112 4.92159681 15.09039371 5.91611716 16.58203125 7.79296875 C17.22979213 12.16535471 17.08160975 14.08144786 14.51953125 17.73046875 C10.79177326 20.34783074 9.08795976 20.1102229 4.58203125 19.79296875 C1.7900024 19.21780876 -0.89290471 18.41404565 -3.60546875 17.54296875 C-4.30349609 17.33800781 -5.00152344 17.13304687 -5.72070312 16.921875 C-9.88347323 15.61482064 -12.78547874 14.32954623 -15.41796875 10.79296875 C-16.20071438 8.02906695 -16.0753842 5.58269691 -15.41796875 2.79296875 C-10.93359249 -2.48276803 -6.16838001 -1.84657674 0 0 Z " fill="#888590" transform="translate(437.41796875,153.20703125)"/>
</svg>
