<?xml version="1.0" encoding="UTF-8"?>
<svg version="1.1" xmlns="http://www.w3.org/2000/svg" width="512" height="512">
<path d="M0 0 C1.01790619 0.00215515 2.03581238 0.0043103 3.08456421 0.00653076 C17.69363523 0.05620146 32.02575853 0.30709809 46.375 3.3125 C47.34985352 3.51117676 48.32470703 3.70985352 49.32910156 3.91455078 C97.7109774 14.03517194 141.69928269 35.9516877 177.375 70.3125 C178.3640332 71.26068604 178.3640332 71.26068604 179.37304688 72.22802734 C188.86130305 81.37247479 197.6012044 90.66984009 205.375 101.3125 C206.23306152 102.46355017 207.09113451 103.61459177 207.94921875 104.765625 C213.98736829 112.95680614 219.34595521 121.47054105 224.375 130.3125 C224.73948242 130.94430176 225.10396484 131.57610352 225.47949219 132.22705078 C246.45955914 168.88198681 256.78445627 210.9870529 256.69067383 253.03979492 C256.6875221 255.97938487 256.71104926 258.9179558 256.73632812 261.85742188 C256.78098737 275.23056192 255.57551542 288.12666711 253.375 301.3125 C253.09281616 303.01805054 253.09281616 303.01805054 252.80493164 304.75805664 C252.33867402 307.3537622 251.8199418 309.92524939 251.25 312.5 C251.04536133 313.42594971 250.84072266 314.35189941 250.62988281 315.3059082 C240.29405661 359.75659585 217.98592102 400.49190564 186.375 433.3125 C185.74287598 433.97185547 185.11075195 434.63121094 184.45947266 435.31054688 C175.31502521 444.79880305 166.01765991 453.5387044 155.375 461.3125 C154.22394983 462.17056152 153.07290823 463.02863451 151.921875 463.88671875 C143.73224019 469.92427396 135.22961724 475.30707302 126.375 480.3125 C125.66778809 480.7146875 124.96057617 481.116875 124.23193359 481.53125 C98.02919713 496.28361537 69.08869203 505.81885806 39.375 510.3125 C38.25254883 510.48910156 37.13009766 510.66570312 35.97363281 510.84765625 C24.36052257 512.5045586 12.84320055 512.71123513 1.125 512.6875 C-0.39302216 512.68668427 -0.39302216 512.68668427 -1.94171143 512.68585205 C-18.47030572 512.64511956 -34.40413999 511.74174222 -50.625 508.3125 C-51.66688477 508.09287598 -52.70876953 507.87325195 -53.78222656 507.64697266 C-95.03449434 498.64890931 -133.61111405 479.92831216 -165.625 452.3125 C-166.37007813 451.67828125 -167.11515625 451.0440625 -167.8828125 450.390625 C-181.38779833 438.57948485 -194.05918743 425.82889772 -204.625 411.3125 C-205.48149066 410.16255169 -206.33826433 409.01281411 -207.1953125 407.86328125 C-213.2359414 399.67160474 -218.59505071 391.15604922 -223.625 382.3125 C-223.98948242 381.68069824 -224.35396484 381.04889648 -224.72949219 380.39794922 C-239.66085402 354.31089649 -249.13420268 324.97749753 -253.625 295.3125 C-253.80232666 294.19367432 -253.97965332 293.07484863 -254.16235352 291.92211914 C-255.84376341 280.20014053 -255.98234341 268.57751024 -255.9375 256.75 C-255.93426727 255.21939438 -255.93426727 255.21939438 -255.93096924 253.65786743 C-255.88133352 239.03039476 -255.63419712 224.67986162 -252.625 210.3125 C-252.42632324 209.33764648 -252.22764648 208.36279297 -252.02294922 207.35839844 C-241.90232806 158.9765226 -219.9858123 114.98821731 -185.625 79.3125 C-184.99287598 78.65314453 -184.36075195 77.99378906 -183.70947266 77.31445312 C-174.56502521 67.82619695 -165.26765991 59.0862956 -154.625 51.3125 C-153.47394983 50.45443848 -152.32290823 49.59636549 -151.171875 48.73828125 C-142.98224019 42.70072604 -134.47961724 37.31792698 -125.625 32.3125 C-124.91778809 31.9103125 -124.21057617 31.508125 -123.48193359 31.09375 C-100.34654164 18.0683259 -75.17537591 9.31948539 -49.1875 4 C-48.46860596 3.85264404 -47.74971191 3.70528809 -47.0090332 3.5534668 C-31.36274391 0.57960912 -15.88931954 -0.06050362 0 0 Z " fill="#A772F1" transform="translate(255.625,-0.3125)"/>
<path d="M0 0 C105.6 0 211.2 0 320 0 C320 11.17422425 319.98674794 22.22477998 319.4412384 33.36801147 C319.40127054 34.19610699 319.36130268 35.0242025 319.32012367 35.87739182 C319.27893599 36.72996189 319.2377483 37.58253197 319.1953125 38.4609375 C319.11058268 40.28608214 319.02629985 42.11124759 318.94242859 43.93643188 C318.76540175 47.7744644 318.5859718 51.6123728 318.40444946 55.45019531 C317.93259142 65.43246973 317.47639609 75.41546769 317.01953125 85.3984375 C316.97437819 86.38210045 316.92922512 87.3657634 316.88270378 88.37923431 C316.01474685 107.30843046 315.25758257 126.23962884 314.59619141 145.17724609 C314.2103593 156.1297106 313.70621004 167.06326326 313 178 C292.01763056 186.93607548 270.58371951 193.58463347 248 197 C246.87754883 197.17660156 245.75509766 197.35320312 244.59863281 197.53515625 C232.98552257 199.1920586 221.46820055 199.39873513 209.75 199.375 C208.73798523 199.37445618 207.72597046 199.37391235 206.68328857 199.37335205 C190.15469428 199.33261956 174.22086001 198.42924222 158 195 C156.95811523 194.78037598 155.91623047 194.56075195 154.84277344 194.33447266 C113.59050566 185.33640931 75.01388595 166.61581216 43 139 C41.88238281 138.04867187 41.88238281 138.04867187 40.7421875 137.078125 C34.97975961 132.0384423 29.51751151 126.68052054 24.0625 121.3125 C23.33538818 120.60681885 22.60827637 119.9011377 21.85913086 119.17407227 C19.50833048 116.83736573 17.25234801 114.43172053 15 112 C14.52335907 111.51763885 14.04671814 111.03527771 13.55563354 110.53829956 C3.73335426 100.48678172 2.3961593 92.16991721 2.4375 78.4375 C2.40348057 76.57093591 2.36381079 74.7044673 2.31884766 72.83813477 C2.22870697 68.91944257 2.16350393 65.00143352 2.11376953 61.08203125 C1.97147947 51.84418028 1.47531566 42.62118664 1.01980591 33.39456177 C0.78990435 28.69977322 0.57543265 24.00438706 0.3671875 19.30859375 C0.32983994 18.51235596 0.29249237 17.71611816 0.25401306 16.89575195 C0.00439191 11.24637222 0 5.66959854 0 0 Z " fill="#3F3F3F" transform="translate(47,313)"/>
<path d="M0 0 C3.04172806 0.01384481 6.08035713 -0.02027905 9.12182617 -0.05834961 C30.45033852 -0.14296803 46.79380515 5.25491683 62.24487305 20.57641602 C63.61500643 22.21296423 64.95690025 23.87445196 66.24487305 25.57641602 C67.89675701 27.260135 69.56448097 28.92144271 71.24487305 30.57641602 C72.61191299 31.93219234 73.97857545 33.28834933 75.3449707 34.64477539 C76.1157193 35.4090686 76.8864679 36.17336182 77.68057251 36.96081543 C81.16393245 40.41745321 84.64205014 43.87934505 88.11987305 47.34155273 C89.9550075 49.16658613 91.7919268 50.98982653 93.63061523 52.8112793 C96.29061856 55.44703161 98.94411751 58.08918306 101.59643555 60.73266602 C102.41834381 61.54425171 103.24025208 62.3558374 104.08706665 63.1920166 C104.85151093 63.95630981 105.6159552 64.72060303 106.40356445 65.50805664 C107.0746524 66.17470337 107.74574036 66.8413501 108.43716431 67.52819824 C110.38546573 69.73571404 111.77196128 72.03358946 113.24487305 74.57641602 C114.42999258 75.88842201 115.6583932 77.16301088 116.93237305 78.38891602 C117.86629883 79.29577148 117.86629883 79.29577148 118.8190918 80.22094727 C119.28959961 80.66825195 119.76010742 81.11555664 120.24487305 81.57641602 C118.71014337 86.29866118 117.00542179 90.93496933 115.24487305 95.57641602 C109.96487305 95.57641602 104.68487305 95.57641602 99.24487305 95.57641602 C99.24487305 105.47641602 99.24487305 115.37641602 99.24487305 125.57641602 C104.52487305 125.57641602 109.80487305 125.57641602 115.24487305 125.57641602 C120.43060542 136.93563932 120.43060542 136.93563932 119.61987305 139.73266602 C118.08828052 141.78639236 116.46562735 143.54902299 114.61987305 145.32641602 C113.98823242 145.94000977 113.3565918 146.55360352 112.70581055 147.18579102 C112.22370117 147.64469727 111.7415918 148.10360352 111.24487305 148.57641602 C112.70232729 151.93977195 114.55605158 154.12175607 117.15893555 156.68579102 C117.91948242 157.43989258 118.6800293 158.19399414 119.46362305 158.97094727 C120.25768555 159.74825195 121.05174805 160.52555664 121.86987305 161.32641602 C122.67166992 162.11918945 123.4734668 162.91196289 124.29956055 163.72875977 C126.2769015 165.68256095 128.25876213 167.63153704 130.24487305 169.57641602 C131.35039195 168.64051098 132.45422758 167.70261744 133.55737305 166.76391602 C134.17225586 166.2418457 134.78713867 165.71977539 135.4206543 165.18188477 C137.26140007 163.6170034 137.26140007 163.6170034 138.828125 161.86572266 C139.52941528 161.22751587 139.52941528 161.22751587 140.24487305 160.57641602 C145.50787856 160.98663369 150.42290267 163.58333493 155.24487305 165.57641602 C155.24487305 170.52641602 155.24487305 175.47641602 155.24487305 180.57641602 C165.14487305 180.57641602 175.04487305 180.57641602 185.24487305 180.57641602 C185.24487305 175.62641602 185.24487305 170.67641602 185.24487305 165.57641602 C195.55230886 160.54540568 195.55230886 160.54540568 198.33862305 160.67016602 C200.92215336 161.89840174 202.52700448 163.57265402 204.49487305 165.63891602 C205.55448242 166.73913086 205.55448242 166.73913086 206.63549805 167.86157227 C207.1665918 168.4274707 207.69768555 168.99336914 208.24487305 169.57641602 C211.60822898 168.11896178 213.7902131 166.26523748 216.35424805 163.66235352 C217.10834961 162.90180664 217.86245117 162.14125977 218.6394043 161.35766602 C219.41670898 160.56360352 220.19401367 159.76954102 220.99487305 158.95141602 C221.78764648 158.14961914 222.58041992 157.34782227 223.3972168 156.52172852 C225.35101798 154.54438756 227.29999408 152.56252693 229.24487305 150.57641602 C227.73357457 147.36516589 226.23044246 145.48666258 223.55737305 143.13891602 C220.27041032 139.89988816 220.27041032 139.89988816 220.05737305 137.20141602 C220.44924805 136.33516602 220.84112305 135.46891602 221.24487305 134.57641602 C221.73213867 133.43366211 221.73213867 133.43366211 222.22924805 132.26782227 C223.19678383 130.02075548 224.21753993 127.79678114 225.24487305 125.57641602 C230.19487305 125.57641602 235.14487305 125.57641602 240.24487305 125.57641602 C240.24487305 115.67641602 240.24487305 105.77641602 240.24487305 95.57641602 C235.29487305 95.57641602 230.34487305 95.57641602 225.24487305 95.57641602 C220.22330033 85.28831581 220.22330033 85.28831581 220.30737305 82.51391602 C221.65410327 79.73067356 223.58211064 77.95765325 225.80737305 75.82641602 C226.63366211 75.02719727 227.45995117 74.22797852 228.3112793 73.40454102 C228.94936523 72.80125977 229.58745117 72.19797852 230.24487305 71.57641602 C234.959176 75.54185609 239.50517202 79.63514603 243.94287109 83.90698242 C244.5714502 84.50971481 245.2000293 85.1124472 245.84765625 85.73344421 C251.6119734 91.27289228 257.33182892 96.85790863 263.03738689 102.45780373 C266.85554741 106.20380361 270.68740778 109.93293643 274.55664062 113.6262207 C278.32266399 117.22185224 282.04667144 120.8566051 285.74610329 124.52067184 C287.14949131 125.89732481 288.56659453 127.26015945 289.99817467 128.60747147 C300.23317306 138.26617374 304.51624463 146.21630874 306.0015049 160.28733444 C306.24343398 162.56288042 306.56118442 164.81495596 306.90612793 167.07698059 C308.49593623 177.77822641 308.58463546 188.50221213 308.56054688 199.30371094 C308.55739515 202.24330088 308.5809223 205.18187182 308.60620117 208.12133789 C308.65086041 221.49447794 307.44538847 234.39058313 305.24487305 247.57641602 C304.96268921 249.28196655 304.96268921 249.28196655 304.67480469 251.02197266 C304.20854707 253.61767821 303.68981485 256.1891654 303.11987305 258.76391602 C302.91523438 259.68986572 302.7105957 260.61581543 302.49975586 261.56982422 C292.16392966 306.02051186 269.85579407 346.75582166 238.24487305 379.57641602 C237.61274902 380.23577148 236.980625 380.89512695 236.3293457 381.57446289 C227.18489826 391.06271907 217.88753295 399.80262042 207.24487305 407.57641602 C206.09382288 408.43447753 204.94278127 409.29255053 203.79174805 410.15063477 C192.44495556 418.51570692 180.42116841 425.50841905 167.99487305 432.13891602 C167.17220947 432.58106445 166.3495459 433.02321289 165.50195312 433.47875977 C164.73133545 433.88352539 163.96071777 434.28829102 163.16674805 434.70532227 C162.48193359 435.06698486 161.79711914 435.42864746 161.09155273 435.80126953 C159.24487305 436.57641602 159.24487305 436.57641602 156.24487305 436.57641602 C156.18331868 426.41517827 156.32531211 416.29326837 156.76049805 406.13891602 C156.81709246 404.76481613 156.87343443 403.39070582 156.92955017 402.0165863 C157.08193001 398.30915711 157.23871082 394.60192646 157.3965416 390.8947258 C157.49557986 388.55975194 157.59330327 386.22472673 157.69058228 383.88967896 C159.41746129 342.44648953 161.33123316 301.01132465 163.24487305 259.57641602 C155.65487305 259.57641602 148.06487305 259.57641602 140.24487305 259.57641602 C139.70862305 257.32829102 139.17237305 255.08016602 138.61987305 252.76391602 C135.30905651 240.00391001 129.35873024 229.83483896 118.0925293 222.53344727 C110.19890402 218.06622642 103.20203187 215.22164401 94.05737305 215.76000977 C73.5142707 216.83935393 58.42324037 207.65594213 41.24487305 197.57641602 C41.0103688 193.43155347 40.86973705 189.2884145 40.74487305 185.13891602 C40.6778418 183.97424805 40.61081055 182.80958008 40.54174805 181.60961914 C40.39822144 175.24062576 40.69196369 171.39322612 45.0534668 166.55297852 C46.43922139 165.2155642 47.83501235 163.88839378 49.24487305 162.57641602 C55.32513708 154.35828977 60.40066151 144.72859648 64.1784668 135.22875977 C65.24487305 133.57641602 65.24487305 133.57641602 67.19799805 132.88891602 C67.9559668 132.78579102 68.71393555 132.68266602 69.49487305 132.57641602 C73.88600027 131.75749197 76.78801362 130.53943838 80.24487305 127.57641602 C86.34696224 118.52849066 85.31050546 103.06968003 84.24487305 92.57641602 C82.70601538 87.15724914 80.69070458 84.47665074 75.93237305 81.51391602 C74.60206055 81.04985352 74.60206055 81.04985352 73.24487305 80.57641602 C73.09018555 82.40172852 73.09018555 82.40172852 72.93237305 84.26391602 C72.70782621 86.03534108 72.47813022 87.80611685 72.24487305 89.57641602 C72.10758789 91.07881836 72.10758789 91.07881836 71.9675293 92.61157227 C70.38651728 103.36506719 64.08626259 108.74176693 56.24487305 115.57641602 C54.33461963 112.71103589 53.91895858 111.65885903 53.46704102 108.41552734 C53.34706757 107.58068314 53.22709412 106.74583893 53.10348511 105.88569641 C52.982565 104.98570419 52.8616449 104.08571198 52.73706055 103.15844727 C52.54154099 101.76162971 52.54154099 101.76162971 52.34207153 100.33659363 C52.06782076 98.3642341 51.79740183 96.39133855 51.53051758 94.41796875 C51.1236238 91.41658287 50.70281094 88.41739725 50.2800293 85.41821289 C50.01486838 83.49840657 49.75051958 81.57848788 49.48706055 79.65844727 C49.36209198 78.7685762 49.23712341 77.87870514 49.10836792 76.96186829 C48.41599329 71.7807137 48.12444399 66.8037187 48.24487305 61.57641602 C47.02864258 61.77557617 47.02864258 61.77557617 45.7878418 61.97875977 C44.68053711 62.15536133 43.57323242 62.33196289 42.43237305 62.51391602 C41.35342773 62.68793945 40.27448242 62.86196289 39.1628418 63.04125977 C27.45730056 64.64012233 15.85383364 64.81291387 4.05737305 64.82641602 C3.12910706 64.82875244 2.20084106 64.83108887 1.2444458 64.83349609 C-13.30581993 64.84731729 -27.39116712 64.07449599 -41.75512695 61.57641602 C-41.73350998 62.49179893 -41.73350998 62.49179893 -41.7114563 63.42567444 C-41.63088388 69.47327528 -42.08037396 75.22542586 -42.99731445 81.19750977 C-43.18996384 82.49737572 -43.18996384 82.49737572 -43.38650513 83.82350159 C-43.6569753 85.63482997 -43.93108887 87.44561786 -44.20874023 89.25585938 C-44.63254993 92.02977486 -45.04021245 94.80575023 -45.4465332 97.58227539 C-45.71250217 99.34999794 -45.97939592 101.11758165 -46.24731445 102.88500977 C-46.36823456 103.71310654 -46.48915466 104.54120331 -46.61373901 105.39439392 C-47.18683704 109.06459298 -47.66650785 111.44348736 -49.75512695 114.57641602 C-58.64446553 108.79966484 -63.20924791 103.22318644 -65.76635742 92.77514648 C-66.89873165 87.39318808 -67.9080353 82.01057093 -68.75512695 76.57641602 C-68.95879883 75.35567383 -69.1624707 74.13493164 -69.37231445 72.87719727 C-71.47973348 54.70608422 -69.38926483 38.38952136 -57.75512695 23.57641602 C-50.69483725 15.23034998 -42.84832958 8.86652139 -32.75512695 4.57641602 C-31.91731689 4.21668701 -31.07950684 3.85695801 -30.21630859 3.48632812 C-20.30201766 -0.16382649 -10.45161563 -0.06626094 0 0 Z " fill="#7C56D8" transform="translate(203.755126953125,53.423583984375)"/>
<path d="M0 0 C2.6877438 0.14209669 5.37513302 0.2885723 8.0625 0.4375 C8.81466797 0.47681641 9.56683594 0.51613281 10.34179688 0.55664062 C11.45844727 0.61948242 11.45844727 0.61948242 12.59765625 0.68359375 C13.27320557 0.72025146 13.94875488 0.75690918 14.64477539 0.79467773 C16.50832268 0.95713687 18.3634162 1.21624743 20.2109375 1.50927734 C24.51474158 2.06666434 28.69382018 2.16199506 33.02734375 2.16796875 C33.89275284 2.17129715 34.75816193 2.17462555 35.64979553 2.17805481 C37.48454258 2.18310247 39.31929875 2.1854638 41.15405273 2.18530273 C43.87044994 2.18744707 46.58641122 2.20550655 49.30273438 2.22460938 C62.94938831 2.26673582 76.42151886 1.32353265 90 0 C90.08547592 0.63449066 90.17095184 1.26898132 90.25901794 1.92269897 C91.14699865 8.5089459 92.03993505 15.09450723 92.93579102 21.6796875 C93.26975396 24.1394749 93.60244026 26.59943598 93.93383789 29.05957031 C94.40958853 32.5896543 94.88988263 36.11909427 95.37109375 39.6484375 C95.51904892 40.75367767 95.66700409 41.85891785 95.81944275 42.99765015 C95.95951248 44.01855743 96.09958221 45.03946472 96.24389648 46.09130859 C96.42709694 47.44366104 96.42709694 47.44366104 96.61399841 48.82333374 C96.90030354 51.03741181 96.90030354 51.03741181 98 53 C110.19316399 43.78220139 112.82782372 33.79449519 115 19 C119.30162062 19.84936458 121.11477129 21.67088994 124 25 C127.38484913 30.29942966 127.39519996 34.73678915 127.25 40.8125 C127.24484375 41.66392578 127.2396875 42.51535156 127.234375 43.39257812 C127.01430087 61.45241137 127.01430087 61.45241137 121 68 C117.46080047 70.51967703 114.28258941 71.91677855 109.9296875 72.19921875 C106.74006361 72.7069997 106.74006361 72.7069997 105.34765625 75.7734375 C104.92355469 76.96195312 104.49945313 78.15046875 104.0625 79.375 C103.56732784 80.66303807 103.0645939 81.94819226 102.5546875 83.23046875 C102.30041992 83.87032715 102.04615234 84.51018555 101.78417969 85.16943359 C97.89315048 94.25253976 90.95064426 103.04935574 84 110 C83.84193469 111.92478813 83.748865 113.8549921 83.68359375 115.78515625 C83.64169922 116.95498047 83.59980469 118.12480469 83.55664062 119.33007812 C83.51732422 120.56177734 83.47800781 121.79347656 83.4375 123.0625 C83.37272461 124.91584961 83.37272461 124.91584961 83.30664062 126.80664062 C83.20015802 129.87097335 83.09814576 132.93539073 83 136 C83.87422607 136.26353271 84.74845215 136.52706543 85.64916992 136.79858398 C88.9462715 137.98073603 91.62328026 139.41175287 94.61328125 141.22265625 C108.37788975 149.20128424 119.11355525 153.60875003 135.40625 152.98046875 C147.87050112 152.59670245 159.2273781 158.18717589 168.25 166.5 C177.17247735 175.96237248 179.86021656 185.16129936 182 198 C91.91 198 1.82 198 -91 198 C-91 184.75346436 -86.17661572 175.53389313 -77.1953125 166.10546875 C-67.17972885 156.56780714 -55.22385149 152.78874952 -41.69018555 152.9777832 C-27.53216934 153.08253802 -17.97715327 149.16612935 -6 142 C-3.80301224 140.76948243 -1.59005028 139.57302331 0.625 138.375 C1.44226563 137.90835938 2.25953125 137.44171875 3.1015625 136.9609375 C5 136 5 136 7 136 C6.97718063 131.60302024 6.89984042 127.20863425 6.8125 122.8125 C6.80669922 121.56662109 6.80089844 120.32074219 6.79492188 119.03710938 C6.78036523 111.97881267 6.78036523 111.97881267 3.6796875 105.88671875 C2.79539062 105.26410156 1.91109375 104.64148438 1 104 C-3.56017808 99.31708421 -6.77943844 94.70703504 -9.421875 88.75 C-9.83993408 87.80769531 -10.25799316 86.86539063 -10.6887207 85.89453125 C-11.51092595 83.9887511 -12.30216104 82.06926122 -13.05932617 80.13671875 C-15.06309902 75.11169585 -15.06309902 75.11169585 -19.2043457 71.99072266 C-21.57452194 71.43838336 -21.57452194 71.43838336 -23.88574219 71.24462891 C-27.41449067 70.83633722 -29.38181668 69.3137434 -32 67 C-38.69192742 57.54121797 -38.46325413 42.13367171 -37 31 C-35.06460302 25.69603231 -32.69737414 22.13158276 -28 19 C-27.01 19 -26.02 19 -25 19 C-24.91137695 19.60884033 -24.82275391 20.21768066 -24.73144531 20.8449707 C-22.77066795 33.39180937 -20.95555851 42.56280568 -10.44921875 50.3671875 C-9.64097656 50.90601563 -8.83273438 51.44484375 -8 52 C-6.14339696 44.32316229 -4.933332 36.57572949 -3.76782227 28.77124023 C-3.4386423 26.57013814 -3.10346741 24.37000898 -2.76757812 22.16992188 C-1.65109147 14.79399343 -0.65187009 7.43424876 0 0 Z " fill="#FEDBBF" transform="translate(162,115)"/>
<path d="M0 0 C52.8 0 105.6 0 160 0 C160 20.46 160 40.92 160 62 C163.3 62.66 166.6 63.32 170 64 C176.32348486 67.75743303 180.69903712 71.87443752 183 79 C183.92584881 85.68577545 183.95526274 92.31437316 180.3828125 98.22265625 C174.60647515 105.64704465 170.49685715 107.15094286 161 110 C160.67 138.05 160.34 166.1 160 195 C111.46109134 185.29221827 67.70132843 163.38547947 32 129 C31.34064453 128.36787598 30.68128906 127.73575195 30.00195312 127.08447266 C27.80184247 124.96408342 25.61768522 122.8283613 23.4375 120.6875 C22.76549561 120.03700684 22.09349121 119.38651367 21.40112305 118.71630859 C19.20280577 116.53200344 17.1013069 114.27780865 15 112 C14.29887589 111.29029556 14.29887589 111.29029556 13.58358765 110.56625366 C3.74844268 100.49972637 2.39610395 92.18830227 2.4375 78.4375 C2.40348057 76.57093591 2.36381079 74.7044673 2.31884766 72.83813477 C2.22870697 68.91944257 2.16350393 65.00143352 2.11376953 61.08203125 C1.97147947 51.84418028 1.47531566 42.62118664 1.01980591 33.39456177 C0.78990435 28.69977322 0.57543265 24.00438706 0.3671875 19.30859375 C0.32983994 18.51235596 0.29249237 17.71611816 0.25401306 16.89575195 C0.00439191 11.24637222 0 5.66959854 0 0 Z " fill="#595959" transform="translate(47,313)"/>
<path d="M0 0 C9.9 0 19.8 0 30 0 C30 4.95 30 9.9 30 15 C31.5675 15.474375 33.135 15.94875 34.75 16.4375 C35.63171875 16.70433594 36.5134375 16.97117187 37.421875 17.24609375 C38.27265625 17.49488281 39.1234375 17.74367188 40 18 C40.6703125 18.28875 41.340625 18.5775 42.03125 18.875 C44.24325689 19.23609775 44.24325689 19.23609775 46.359375 17.12890625 C47.14828125 16.28199219 47.9371875 15.43507813 48.75 14.5625 C49.54921875 13.71816406 50.3484375 12.87382813 51.171875 12.00390625 C51.77515625 11.34261719 52.3784375 10.68132812 53 10 C56.46629835 11.48653506 58.69022036 13.45722351 61.328125 16.1328125 C62.12734375 16.93847656 62.9265625 17.74414062 63.75 18.57421875 C64.575 19.41597656 65.4 20.25773437 66.25 21.125 C67.09046875 21.97449219 67.9309375 22.82398437 68.796875 23.69921875 C70.86915683 25.79504923 72.93662393 27.89540713 75 30 C73.48870152 33.21125012 71.98556941 35.08975344 69.3125 37.4375 C66.55539445 39.945631 66.55539445 39.945631 65.875 43.4375 C66.24625 44.283125 66.6175 45.12875 67 46 C67.52444945 47.43618466 68.0450634 48.87377384 68.5625 50.3125 C69.036875 51.529375 69.51125 52.74625 70 54 C74.95 54.33 79.9 54.66 85 55 C85 64.9 85 74.8 85 85 C80.05 85.33 75.1 85.66 70 86 C69.319375 87.5675 68.63875 89.135 67.9375 90.75 C67.55464844 91.63171875 67.17179687 92.5134375 66.77734375 93.421875 C65.9188786 96.26904585 65.78697389 97.31401361 67 100 C68.8394603 102.20149485 68.8394603 102.20149485 71.0625 104.25 C71.79597656 104.95640625 72.52945313 105.6628125 73.28515625 106.390625 C73.85105469 106.92171875 74.41695312 107.4528125 75 108 C73.51346494 111.46629835 71.54277649 113.69022036 68.8671875 116.328125 C68.06152344 117.12734375 67.25585938 117.9265625 66.42578125 118.75 C65.58402344 119.575 64.74226563 120.4 63.875 121.25 C63.02550781 122.09046875 62.17601562 122.9309375 61.30078125 123.796875 C59.20495077 125.86915683 57.10459287 127.93662393 55 130 C51.78874988 128.48870152 49.91024656 126.98556941 47.5625 124.3125 C45.0751782 121.57480474 45.0751782 121.57480474 41.625 120.875 C40.75875 121.24625 39.8925 121.6175 39 122 C37.39833255 122.52846896 35.79394542 123.04873821 34.1875 123.5625 C32.805625 124.036875 31.42375 124.51125 30 125 C30 129.95 30 134.9 30 140 C20.1 140 10.2 140 0 140 C0 135.05 0 130.1 0 125 C-1.546875 124.525625 -3.09375 124.05125 -4.6875 123.5625 C-5.55761719 123.29566406 -6.42773438 123.02882813 -7.32421875 122.75390625 C-8.20722656 122.50511719 -9.09023438 122.25632812 -10 122 C-10.8353125 121.71125 -11.670625 121.4225 -12.53125 121.125 C-15.18630278 120.72436873 -15.18630278 120.72436873 -17.45703125 122.87109375 C-18.23433594 123.71800781 -19.01164062 124.56492187 -19.8125 125.4375 C-20.60269531 126.28183594 -21.39289063 127.12617188 -22.20703125 127.99609375 C-22.79871094 128.65738281 -23.39039063 129.31867188 -24 130 C-29.06623768 125.76183463 -33.80038069 121.32591037 -38.4375 116.625 C-39.07365234 115.98433594 -39.70980469 115.34367187 -40.36523438 114.68359375 C-41.91250332 113.12469121 -43.45736492 111.56348584 -45 110 C-43.49053489 106.81913482 -41.92058175 104.70130094 -39.375 102.25 C-38.74335938 101.63640625 -38.11171875 101.0228125 -37.4609375 100.390625 C-36.73777344 99.70226562 -36.73777344 99.70226562 -36 99 C-36.20496094 98.40832031 -36.40992188 97.81664062 -36.62109375 97.20703125 C-36.89050781 96.41683594 -37.15992188 95.62664062 -37.4375 94.8125 C-37.70433594 94.03519531 -37.97117187 93.25789063 -38.24609375 92.45703125 C-38.99513423 90.01585787 -39.49921642 87.50391792 -40 85 C-45.28 85 -50.56 85 -56 85 C-56 75.1 -56 65.2 -56 55 C-50.72 55 -45.44 55 -40 55 C-39.67 53.02 -39.34 51.04 -39 49 C-38.443125 47.96875 -37.88625 46.9375 -37.3125 45.875 C-35.68069964 43.18330766 -35.68069964 43.18330766 -36.69140625 41.0546875 C-38.1273217 38.80008592 -39.70111155 37.10263332 -41.625 35.25 C-42.57246094 34.32960938 -42.57246094 34.32960938 -43.5390625 33.390625 C-44.02117187 32.93171875 -44.50328125 32.4728125 -45 32 C-43.51346494 28.53370165 -41.54277649 26.30977964 -38.8671875 23.671875 C-38.06152344 22.87265625 -37.25585938 22.0734375 -36.42578125 21.25 C-35.58402344 20.425 -34.74226563 19.6 -33.875 18.75 C-33.02550781 17.90953125 -32.17601562 17.0690625 -31.30078125 16.203125 C-29.20495077 14.13084317 -27.10459287 12.06337607 -25 10 C-23.8944811 10.93590504 -22.79064547 11.87379858 -21.6875 12.8125 C-20.76517578 13.59560547 -20.76517578 13.59560547 -19.82421875 14.39453125 C-18 16 -18 16 -16.41015625 17.70703125 C-15.94480469 18.13371094 -15.47945313 18.56039062 -15 19 C-11.74408444 18.8191158 -9.38296117 17.73403499 -6.375 16.4375 C-3 15 -3 15 0 15 C0 10.05 0 5.1 0 0 Z " fill="#E1E1E2" transform="translate(359,94)"/>
<path d="M0 0 C3.04172806 0.01384481 6.08035713 -0.02027905 9.12182617 -0.05834961 C29.22356474 -0.13810094 45.11336806 4.42751853 60.18237305 18.42016602 C72.76848528 31.57837426 77.01896667 47.12546324 76.7019043 64.86157227 C75.94278654 80.98137766 73.48441063 98.8620113 61.55737305 110.38891602 C60.79070312 111.14205078 60.79070312 111.14205078 60.00854492 111.91040039 C58.75852943 113.13705111 57.50232625 114.35739092 56.24487305 115.57641602 C54.33461963 112.71103589 53.91895858 111.65885903 53.46704102 108.41552734 C53.34706757 107.58068314 53.22709412 106.74583893 53.10348511 105.88569641 C52.982565 104.98570419 52.8616449 104.08571198 52.73706055 103.15844727 C52.54154099 101.76162971 52.54154099 101.76162971 52.34207153 100.33659363 C52.06782076 98.3642341 51.79740183 96.39133855 51.53051758 94.41796875 C51.1236238 91.41658287 50.70281094 88.41739725 50.2800293 85.41821289 C50.01486838 83.49840657 49.75051958 81.57848788 49.48706055 79.65844727 C49.36209198 78.7685762 49.23712341 77.87870514 49.10836792 76.96186829 C48.41599329 71.7807137 48.12444399 66.8037187 48.24487305 61.57641602 C47.02864258 61.77557617 47.02864258 61.77557617 45.7878418 61.97875977 C44.68053711 62.15536133 43.57323242 62.33196289 42.43237305 62.51391602 C41.35342773 62.68793945 40.27448242 62.86196289 39.1628418 63.04125977 C27.45730056 64.64012233 15.85383364 64.81291387 4.05737305 64.82641602 C3.12910706 64.82875244 2.20084106 64.83108887 1.2444458 64.83349609 C-13.30581993 64.84731729 -27.39116712 64.07449599 -41.75512695 61.57641602 C-41.73350998 62.49179893 -41.73350998 62.49179893 -41.7114563 63.42567444 C-41.63088388 69.47327528 -42.08037396 75.22542586 -42.99731445 81.19750977 C-43.18996384 82.49737572 -43.18996384 82.49737572 -43.38650513 83.82350159 C-43.6569753 85.63482997 -43.93108887 87.44561786 -44.20874023 89.25585938 C-44.63254993 92.02977486 -45.04021245 94.80575023 -45.4465332 97.58227539 C-45.71250217 99.34999794 -45.97939592 101.11758165 -46.24731445 102.88500977 C-46.36823456 103.71310654 -46.48915466 104.54120331 -46.61373901 105.39439392 C-47.18683704 109.06459298 -47.66650785 111.44348736 -49.75512695 114.57641602 C-58.64446553 108.79966484 -63.20924791 103.22318644 -65.76635742 92.77514648 C-66.89873165 87.39318808 -67.9080353 82.01057093 -68.75512695 76.57641602 C-68.95879883 75.35567383 -69.1624707 74.13493164 -69.37231445 72.87719727 C-71.47973348 54.70608422 -69.38926483 38.38952136 -57.75512695 23.57641602 C-50.69483725 15.23034998 -42.84832958 8.86652139 -32.75512695 4.57641602 C-31.91731689 4.21668701 -31.07950684 3.85695801 -30.21630859 3.48632812 C-20.30201766 -0.16382649 -10.45161563 -0.06626094 0 0 Z " fill="#403F3F" transform="translate(203.755126953125,53.423583984375)"/>
<path d="M0 0 C0.08547592 0.63449066 0.17095184 1.26898132 0.25901794 1.92269897 C1.14699865 8.5089459 2.03993505 15.09450723 2.93579102 21.6796875 C3.26975396 24.1394749 3.60244026 26.59943598 3.93383789 29.05957031 C4.40958853 32.5896543 4.88988263 36.11909427 5.37109375 39.6484375 C5.51904892 40.75367767 5.66700409 41.85891785 5.81944275 42.99765015 C5.95951248 44.01855743 6.09958221 45.03946472 6.24389648 46.09130859 C6.36603012 46.99287689 6.48816376 47.89444519 6.61399841 48.82333374 C6.90030354 51.03741181 6.90030354 51.03741181 8 53 C20.19316399 43.78220139 22.82782372 33.79449519 25 19 C29.30162062 19.84936458 31.11477129 21.67088994 34 25 C37.38484913 30.29942966 37.39519996 34.73678915 37.25 40.8125 C37.24484375 41.66392578 37.2396875 42.51535156 37.234375 43.39257812 C37.01430087 61.45241137 37.01430087 61.45241137 31 68 C27.46080047 70.51967703 24.28258941 71.91677855 19.9296875 72.19921875 C16.74006361 72.7069997 16.74006361 72.7069997 15.34765625 75.7734375 C14.92355469 76.96195312 14.49945313 78.15046875 14.0625 79.375 C13.56732784 80.66303807 13.0645939 81.94819226 12.5546875 83.23046875 C12.30041992 83.87032715 12.04615234 84.51018555 11.78417969 85.16943359 C7.89315048 94.25253976 0.95064426 103.04935574 -6 110 C-6.04839156 111.8717704 -6.0365666 113.74514876 -6 115.6171875 C-5.9087757 137.50797766 -5.9087757 137.50797766 -11.25 143.875 C-13.578125 146.0546875 -13.578125 146.0546875 -16 148 C-17.65 149.65 -19.3 151.3 -21 153 C-28.92 153 -36.84 153 -45 153 C-45 103.5 -45 54 -45 3 C-29.16 2.01 -29.16 2.01 -13 1 C-4 0 -4 0 0 0 Z " fill="#FDC0A5" transform="translate(252,115)"/>
<path d="M0 0 C7.26 0 14.52 0 22 0 C22 3.96 22 7.92 22 12 C22.886875 12.144375 23.77375 12.28875 24.6875 12.4375 C28 13 28 13 30.5 13.9375 C33.01700071 14.26384712 33.01700071 14.26384712 34.64453125 12.7265625 C36.1714863 11.20318346 37.60967597 9.64832231 39 8 C43.25314786 9.67642324 46.12101814 12.7175909 49.3125 15.875 C49.87517578 16.40480469 50.43785156 16.93460938 51.01757812 17.48046875 C52.61328125 19.0546875 52.61328125 19.0546875 55 22 C54.59710232 26.25183441 52.04032037 28.19355043 49 31 C49.495 32.36125 49.495 32.36125 50 33.75 C51 37 51 37 51 41 C54.96 41 58.92 41 63 41 C63 48.26 63 55.52 63 63 C59.37 63.33 55.74 63.66 52 64 C49.75850642 68.38217647 49.75850642 68.38217647 49 73.125 C50.49877796 75.93520868 52.67747893 77.85613439 55 80 C53.34136495 84.32504836 50.128959 87.09418825 46.875 90.25 C46.31167969 90.80429687 45.74835938 91.35859375 45.16796875 91.9296875 C43.78313972 93.29104485 42.39216796 94.64614859 41 96 C38.40117486 94.80594521 36.99580968 93.995269 35.0625 91.8125 C33.15146026 89.70803902 33.15146026 89.70803902 30.5625 90.125 C28.01033577 90.99647071 25.50396297 91.99841481 23 93 C22.67 96.63 22.34 100.26 22 104 C14.74 104 7.48 104 0 104 C0 100.04 0 96.08 0 92 C-0.886875 91.855625 -1.77375 91.71125 -2.6875 91.5625 C-6 91 -6 91 -8.5 90.0625 C-11.01700071 89.73615288 -11.01700071 89.73615288 -12.64453125 91.2734375 C-14.1714863 92.79681654 -15.60967597 94.35167769 -17 96 C-21.32504836 94.34136495 -24.09418825 91.128959 -27.25 87.875 C-27.80429687 87.31167969 -28.35859375 86.74835938 -28.9296875 86.16796875 C-30.29104485 84.78313972 -31.64614859 83.39216796 -33 82 C-31.80701654 79.39810847 -31.02872576 78.02462208 -28.8125 76.125 C-26.6519877 74.09130293 -26.6519877 74.09130293 -27.1875 71.0625 C-27.455625 70.051875 -27.72375 69.04125 -28 68 C-28.495 65.525 -28.495 65.525 -29 63 C-32.96 63 -36.92 63 -41 63 C-41 55.74 -41 48.48 -41 41 C-37.04 41 -33.08 41 -29 41 C-28.67 39.35 -28.34 37.7 -28 36 C-27.5359375 34.576875 -27.5359375 34.576875 -27.0625 33.125 C-26.63025271 28.85924171 -26.63025271 28.85924171 -33 23 C-28.05 18.05 -23.1 13.1 -18 8 C-14.535 10.97 -14.535 10.97 -11 14 C-10.34 14.33 -9.68 14.66 -9 15 C-6.99152635 14.01712992 -4.99180409 13.01622658 -3 12 C-2.01 12 -1.02 12 0 12 C0 8.04 0 4.08 0 0 Z " fill="#C3C3C4" transform="translate(426,231)"/>
<path d="M0 0 C4.95 0 9.9 0 15 0 C15 14.19 15 28.38 15 43 C11.04 44.32 7.08 45.64 3 47 C-3.33422783 51.04686778 -7.57524932 54.72574795 -10 62 C-10.77933912 71.18506817 -10.83220436 79.39959676 -5 87 C0.66675842 93.03320007 6.94691396 94.31563799 15 97 C15 111.19 15 125.38 15 140 C10.05 140 5.1 140 0 140 C0 135.05 0 130.1 0 125 C-1.546875 124.525625 -3.09375 124.05125 -4.6875 123.5625 C-5.55761719 123.29566406 -6.42773438 123.02882813 -7.32421875 122.75390625 C-8.20722656 122.50511719 -9.09023438 122.25632812 -10 122 C-10.8353125 121.71125 -11.670625 121.4225 -12.53125 121.125 C-15.18630278 120.72436873 -15.18630278 120.72436873 -17.45703125 122.87109375 C-18.23433594 123.71800781 -19.01164062 124.56492187 -19.8125 125.4375 C-20.60269531 126.28183594 -21.39289063 127.12617188 -22.20703125 127.99609375 C-22.79871094 128.65738281 -23.39039063 129.31867188 -24 130 C-29.06623768 125.76183463 -33.80038069 121.32591037 -38.4375 116.625 C-39.07365234 115.98433594 -39.70980469 115.34367187 -40.36523438 114.68359375 C-41.91250332 113.12469121 -43.45736492 111.56348584 -45 110 C-43.49053489 106.81913482 -41.92058175 104.70130094 -39.375 102.25 C-38.74335938 101.63640625 -38.11171875 101.0228125 -37.4609375 100.390625 C-36.73777344 99.70226562 -36.73777344 99.70226562 -36 99 C-36.20496094 98.40832031 -36.40992188 97.81664062 -36.62109375 97.20703125 C-36.89050781 96.41683594 -37.15992188 95.62664062 -37.4375 94.8125 C-37.70433594 94.03519531 -37.97117187 93.25789063 -38.24609375 92.45703125 C-38.99513423 90.01585787 -39.49921642 87.50391792 -40 85 C-45.28 85 -50.56 85 -56 85 C-56 75.1 -56 65.2 -56 55 C-50.72 55 -45.44 55 -40 55 C-39.67 53.02 -39.34 51.04 -39 49 C-38.443125 47.96875 -37.88625 46.9375 -37.3125 45.875 C-35.68069964 43.18330766 -35.68069964 43.18330766 -36.69140625 41.0546875 C-38.1273217 38.80008592 -39.70111155 37.10263332 -41.625 35.25 C-42.57246094 34.32960938 -42.57246094 34.32960938 -43.5390625 33.390625 C-44.02117187 32.93171875 -44.50328125 32.4728125 -45 32 C-43.51346494 28.53370165 -41.54277649 26.30977964 -38.8671875 23.671875 C-38.06152344 22.87265625 -37.25585938 22.0734375 -36.42578125 21.25 C-35.58402344 20.425 -34.74226563 19.6 -33.875 18.75 C-33.02550781 17.90953125 -32.17601562 17.0690625 -31.30078125 16.203125 C-29.20495077 14.13084317 -27.10459287 12.06337607 -25 10 C-23.8944811 10.93590504 -22.79064547 11.87379858 -21.6875 12.8125 C-20.76517578 13.59560547 -20.76517578 13.59560547 -19.82421875 14.39453125 C-18 16 -18 16 -16.41015625 17.70703125 C-15.94480469 18.13371094 -15.47945313 18.56039062 -15 19 C-11.74408444 18.8191158 -9.38296117 17.73403499 -6.375 16.4375 C-3 15 -3 15 0 15 C0 10.05 0 5.1 0 0 Z " fill="#FEFDFE" transform="translate(359,94)"/>
<path d="M0 0 C0 21.12 0 42.24 0 64 C-24.15709459 64 -24.15709459 64 -34.3125 62.5 C-35.36244141 62.35691406 -36.41238281 62.21382812 -37.49414062 62.06640625 C-39.99816083 61.72338978 -42.49922438 61.36566484 -45 61 C-44.97838303 61.91538292 -44.97838303 61.91538292 -44.95632935 62.84925842 C-44.87575692 68.89685927 -45.32524701 74.64900984 -46.2421875 80.62109375 C-46.43483688 81.9209597 -46.43483688 81.9209597 -46.63137817 83.24708557 C-46.90184835 85.05841396 -47.17596192 86.86920184 -47.45361328 88.67944336 C-47.87742298 91.45335884 -48.2850855 94.22933422 -48.69140625 97.00585938 C-48.95737522 98.77358192 -49.22426897 100.54116563 -49.4921875 102.30859375 C-49.6131076 103.13669052 -49.73402771 103.96478729 -49.85861206 104.81797791 C-50.43171009 108.48817696 -50.9113809 110.86707134 -53 114 C-61.88933857 108.22324882 -66.45412096 102.64677043 -69.01123047 92.19873047 C-70.1436047 86.81677207 -71.15290834 81.43415492 -72 76 C-72.20367187 74.77925781 -72.40734375 73.55851562 -72.6171875 72.30078125 C-74.72460653 54.1296682 -72.63413788 37.81310534 -61 23 C-44.09759186 3.01942973 -26.30455763 0 0 0 Z " fill="#5A595A" transform="translate(207,54)"/>
<path d="M0 0 C3.63 0 7.26 0 11 0 C11 10.89 11 21.78 11 33 C7.7 34.32 4.4 35.64 1 37 C-4.6241681 42.73894704 -5.35600285 46.2039525 -5.28125 54.015625 C-4.79086567 59.21914765 -2.29358756 61.74137427 1.3125 65.25 C4.50284413 67.51525281 4.50284413 67.51525281 11 69 C11 79.89 11 90.78 11 102 C7.37 102 3.74 102 0 102 C0 98.37 0 94.74 0 91 C-0.886875 90.855625 -1.77375 90.71125 -2.6875 90.5625 C-6 90 -6 90 -8.5 89.0625 C-11.01700071 88.73615288 -11.01700071 88.73615288 -12.64453125 90.2734375 C-14.1714863 91.79681654 -15.60967597 93.35167769 -17 95 C-21.32504836 93.34136495 -24.09418825 90.128959 -27.25 86.875 C-27.80429687 86.31167969 -28.35859375 85.74835938 -28.9296875 85.16796875 C-30.29104485 83.78313972 -31.64614859 82.39216796 -33 81 C-31.80701654 78.39810847 -31.02872576 77.02462208 -28.8125 75.125 C-26.6519877 73.09130293 -26.6519877 73.09130293 -27.1875 70.0625 C-27.455625 69.051875 -27.72375 68.04125 -28 67 C-28.495 64.525 -28.495 64.525 -29 62 C-32.96 62 -36.92 62 -41 62 C-41 54.74 -41 47.48 -41 40 C-37.04 40 -33.08 40 -29 40 C-28.67 38.35 -28.34 36.7 -28 35 C-27.5359375 33.576875 -27.5359375 33.576875 -27.0625 32.125 C-26.63025271 27.85924171 -26.63025271 27.85924171 -33 22 C-28.05 17.05 -23.1 12.1 -18 7 C-14.535 9.97 -14.535 9.97 -11 13 C-10.34 13.33 -9.68 13.66 -9 14 C-6.99152635 13.01712992 -4.99180409 12.01622658 -3 11 C-2.01 11 -1.02 11 0 11 C0 7.37 0 3.74 0 0 Z " fill="#E0E0E1" transform="translate(426,232)"/>
<path d="M0 0 C13.11889916 2.8844329 23.53126064 8.31325747 32 19 C37.46927431 27.64955604 39.25017498 34.50104988 41 45 C10.64 45 -19.72 45 -51 45 C-47.21947503 37.43895006 -43.32857375 30.43879581 -38.69824219 23.43237305 C-36.08841979 19.44852835 -33.73104185 15.59260035 -31.83984375 11.21484375 C-25.30081034 -3.10439978 -14.46956183 -2.40941657 0 0 Z " fill="#E1E1E2" transform="translate(303,268)"/>
<path d="M0 0 C7.45059677 6.42292825 11.37743684 15.79359939 15.38867188 24.59765625 C17.42027443 28.88741582 19.85944503 32.73647089 22.5625 36.625 C26 41.78449905 26 41.78449905 26 44 C-4.03 44 -34.06 44 -65 44 C-65 30.75346436 -60.17661572 21.53389313 -51.1953125 12.10546875 C-38.55465854 0.06799952 -16.83247212 -5.8876616 0 0 Z " fill="#FEFEFE" transform="translate(136,269)"/>
<path d="M0 0 C1.40234375 1.35546875 1.40234375 1.35546875 2.9375 3.1875 C3.55238281 3.91066406 4.16726562 4.63382812 4.80078125 5.37890625 C5.52652344 6.24386719 6.25226563 7.10882813 7 8 C8.86957162 10.21297681 10.74556775 12.42039276 12.625 14.625 C13.13023193 15.21812988 13.63546387 15.81125977 14.15600586 16.42236328 C18.51544526 21.50622996 23.03656947 26.4256349 27.63525391 31.29345703 C29.87498784 33.67128088 32.02567865 36.03224421 34.0625 38.58984375 C37.75805634 43.18693702 42.1227108 47.06535803 46.5 51 C50.1055783 54.24096926 53.58216689 57.56211255 57 61 C48.80386954 61.6076193 40.61734894 62.06660297 32.40415192 62.34711647 C28.58727196 62.48193354 24.7859345 62.66359603 20.97802734 62.96142578 C-3.49733253 64.8260258 -3.49733253 64.8260258 -10.921875 58.51721191 C-16.0054625 52.3184026 -19.37089377 45.53315026 -22.55395508 38.1807251 C-24.60997097 33.65830587 -27.2329986 29.61190494 -30 25.5 C-34 19.31886097 -34 19.31886097 -34 17 C-41.92 17 -49.84 17 -58 17 C-58 16.67 -58 16.34 -58 16 C-57.37770508 16.0220752 -56.75541016 16.04415039 -56.11425781 16.06689453 C-39.49573984 16.47854589 -28.17002441 13.52591909 -14 5 C-11.82266692 3.75126883 -9.63231767 2.53056635 -7.4375 1.3125 C-6.63183594 0.83425781 -5.82617188 0.35601562 -4.99609375 -0.13671875 C-3 -1 -3 -1 0 0 Z " fill="#E2E1E2" transform="translate(170,252)"/>
<path d="M0 0 C6.35293271 1.95934361 12.06227611 4.96305048 17.93334961 8.02246094 C19.82087667 9.00435757 21.71384221 9.97514967 23.60742188 10.9453125 C24.80763385 11.56704821 26.00751589 12.18942137 27.20703125 12.8125 C28.2947583 13.37582031 29.38248535 13.93914062 30.50317383 14.51953125 C33 16 33 16 34 18 C33.21826172 19.72973633 33.21826172 19.72973633 31.9296875 21.83203125 C31.45128418 22.62101807 30.97288086 23.41000488 30.47998047 24.22290039 C29.95033691 25.07746826 29.42069336 25.93203613 28.875 26.8125 C28.0708667 28.13012329 28.0708667 28.13012329 27.25048828 29.47436523 C25.50907988 32.32172161 23.75541211 35.16125873 22 38 C20.79152167 39.96345243 19.58318774 41.92699374 18.375 43.890625 C9.79440604 57.80839094 9.79440604 57.80839094 7 62 C-0.93835649 63.7539196 -12.71986089 64.34775148 -20.24023438 61.00390625 C-24.21350131 58.29313327 -27.03301146 54.74210146 -30 51 C-31.38358375 49.73370969 -32.79521011 48.49629961 -34.25 47.3125 C-35.1575 46.549375 -36.065 45.78625 -37 45 C-36.57003898 40.53915445 -33.4646274 37.98516766 -30.5 34.9375 C-26.68994418 30.92481158 -23.01379904 26.89429805 -19.5625 22.5625 C-15.3977377 17.36420294 -10.9181449 12.51431432 -6.34008789 7.68188477 C-5.80633545 7.11655029 -5.27258301 6.55121582 -4.72265625 5.96875 C-4.24578369 5.46794922 -3.76891113 4.96714844 -3.27758789 4.45117188 C-1.78165971 2.81708088 -1.78165971 2.81708088 0 0 Z " fill="#C4C3C4" transform="translate(245,251)"/>
<path d="M0 0 C6.66788509 4.4628617 10.32018837 10.16611212 12 18 C12.80396325 25.87883984 10.13376193 33.73272049 5.25 39.9375 C-0.19347072 45.69873677 -7.35470472 48.08049901 -15.125 48.375 C-22.12343787 48.29090662 -27.61614466 46.00549177 -32.8515625 41.35546875 C-39.59382979 33.99875838 -40.58181377 27.42163918 -40.33984375 17.59765625 C-39.68658454 10.68211911 -37.2148983 6.90806276 -32.25 2.1875 C-22.56500242 -5.62470799 -10.72669087 -6.52929009 0 0 Z " fill="#7C57D8" transform="translate(388,142)"/>
<path d="M0 0 C0.70125 0.45890625 1.4025 0.9178125 2.125 1.390625 C10.97960218 7.11724272 18.74967302 11.2449236 29 13.75 C31.97 14.4925 34.94 15.235 38 16 C38 24.91 38 33.82 38 43 C45.59 43 53.18 43 61 43 C57.62716686 48.62138857 57.62716686 48.62138857 55.07421875 51.3046875 C54.52443359 51.88863281 53.97464844 52.47257812 53.40820312 53.07421875 C52.84037109 53.66847656 52.27253906 54.26273437 51.6875 54.875 C47.32117981 59.47911515 43.09692342 64.15311026 39 69 C35.02879992 67.18480495 32.54504892 64.60604907 29.6875 61.375 C28.95358032 60.55878174 28.95358032 60.55878174 28.20483398 59.72607422 C26.7967346 58.15635154 25.3970987 56.57951234 24 55 C23.38898438 54.31421875 22.77796875 53.6284375 22.1484375 52.921875 C20.41725619 50.96043804 18.70623503 48.98319903 17 47 C16.54447754 46.47083984 16.08895508 45.94167969 15.61962891 45.39648438 C8.28676712 36.8736917 8.28676712 36.8736917 6.42358398 34.62451172 C4.84680673 32.76061714 4.84680673 32.76061714 2.15234375 30.4375 C-1.7629313 25.7238588 -0.50697672 18.86954323 -0.3125 13.125 C-0.28994141 11.86429688 -0.26738281 10.60359375 -0.24414062 9.3046875 C-0.18537581 6.20190501 -0.10325851 3.10156801 0 0 Z " fill="#FEC0A6" transform="translate(169,225)"/>
<path d="M0 0 C5.72792555 2.44361599 9.28668585 7.26436397 12.55859375 12.4140625 C14.6434555 18.66864774 14.77550957 26.69694728 12.05859375 32.7890625 C8.54943147 38.68345609 3.09808676 43.33865454 -3.44140625 45.4140625 C-10.77723279 46.2842433 -17.45419162 46.03644971 -23.44140625 41.4140625 C-28.20364345 36.89700979 -31.9690275 32.51823627 -32.7421875 25.80078125 C-32.77785242 17.5859619 -31.88833147 11.70502418 -26.12890625 5.6015625 C-18.87899405 -1.5131532 -9.62169002 -2.3092056 0 0 Z " fill="#C3C3C3" transform="translate(216.44140625,376.5859375)"/>
<path d="M0 0 C1.6678314 26.90482901 1.6678314 26.90482901 -4.1875 33.875 C-6.54296875 36.0546875 -6.54296875 36.0546875 -9 38 C-9.6703125 38.90363281 -10.340625 39.80726563 -11.03125 40.73828125 C-15.74755438 44.3313605 -20.5723685 43.52889917 -26.3125 43.3125 C-30.169375 43.209375 -34.02625 43.10625 -38 43 C-38 34.09 -38 25.18 -38 16 C-35.6075 15.443125 -33.215 14.88625 -30.75 14.3125 C-20.19723521 11.71651771 -11.05216908 8.46030144 -2.64453125 1.35546875 C-1 0 -1 0 0 0 Z " fill="#F8A891" transform="translate(245,225)"/>
<path d="M0 0 C5.67458259 1.89152753 9.32628019 5.65256038 12 11 C12.5072965 16.55531248 12.76260422 21.41830236 10.3125 26.5 C5.43136871 31.77689869 2.04291033 34.16738235 -5.125 34.5 C-11.2697123 34.4727809 -14.21479233 33.22800254 -18.51171875 28.921875 C-22.82149669 23.35649246 -22.74406341 17.85273214 -22 11 C-17.23019465 1.10707039 -10.15273798 -0.77655503 0 0 Z " fill="#7C57D8" transform="translate(442,266)"/>
<path d="M0 0 C0 15.18 0 30.36 0 46 C-9.90288481 44.89967947 -12.97296414 43.34495975 -19.375 36.4375 C-23.67972531 29.98041204 -24.00785361 23.26832566 -22.5703125 15.75390625 C-20.46128844 9.07533005 -15.76267852 4.78422987 -10 1.0625 C-7 0 -7 0 0 0 Z " fill="#E0E0E0" transform="translate(207,376)"/>
<path d="M0 0 C3.70390021 2.02666238 5.65363011 3.48044516 8 7 C8.61414419 11.25912987 8.43727155 14.97241187 6.75 18.9375 C4.43633869 21.66431511 2.35897841 22.7909264 -1.18359375 23.3359375 C-5.22427879 23.4059667 -7.41841295 23.35885159 -10.9375 21.1875 C-14.32148756 17.59842228 -15.55330952 15.13404487 -15.4609375 10.13671875 C-14.61684071 6.22382939 -11.9177214 3.60780798 -9 1 C-5.89046621 -0.5547669 -3.43733239 -0.28644437 0 0 Z " fill="#434241" transform="translate(237,151)"/>
<path d="M0 0 C3.83298121 3.20900752 4.54895318 4.72598502 5 9.6875 C4.59022984 14.35887978 3.13298761 16.63772536 0.0625 20.0625 C-3.68735024 21.93742512 -7.21562317 22.02259442 -11.3125 21.25 C-14.88302209 19.31658451 -17.00701966 17.16644101 -18.3125 13.25 C-18.71359454 8.99839783 -18.57628256 6.7493027 -16.5625 2.9375 C-11.92623943 -2.60025568 -6.52345032 -3.44635111 0 0 Z " fill="#5C5B5B" transform="translate(187.3125,152.75)"/>
<path d="M0 0 C7.59 0 15.18 0 23 0 C23 8.58 23 17.16 23 26 C19.70962086 23.36769669 17.39530987 21.51164131 14.8125 18.4375 C11.01486644 13.97758598 7.03584189 9.6985074 3.0390625 5.41796875 C1 3 1 3 0 0 Z " fill="#FEDBC0" transform="translate(184,268)"/>
<path d="M0 0 C0 5.94 0 11.88 0 18 C-6.6 18 -13.2 18 -20 18 C-15.97836114 13.97836114 -11.91114435 10.05943619 -7.75 6.1875 C-6.79480469 5.2912793 -6.79480469 5.2912793 -5.8203125 4.37695312 C-5.21445313 3.81298828 -4.60859375 3.24902344 -3.984375 2.66796875 C-3.43491211 2.15516357 -2.88544922 1.6423584 -2.31933594 1.11401367 C-1 0 -1 0 0 0 Z " fill="#FEFEFE" transform="translate(207,295)"/>
<path d="M0 0 C4.11866904 3.41761899 8.11313049 6.94494358 12 10.625 C13.175625 11.72714844 13.175625 11.72714844 14.375 12.8515625 C16 15 16 15 15.9375 17.2109375 C15 19 15 19 12 20 C7.87822224 18.59296743 3.9898217 16.75895365 0 15 C0 10.05 0 5.1 0 0 Z " fill="#7F59D9" transform="translate(389,94)"/>
<path d="M0 0 C3.54853783 -0.2342724 6.61493999 -0.150714 10 1 C12.54172888 4.01830304 14.03202562 7.18090109 15 11 C14.5402832 13.15893555 14.5402832 13.15893555 14 15 C11.66265901 12.69152056 9.33081534 10.37756659 7 8.0625 C6.33226562 7.40314453 5.66453125 6.74378906 4.9765625 6.06445312 C4.34492188 5.43603516 3.71328125 4.80761719 3.0625 4.16015625 C2.47597656 3.57886963 1.88945312 2.99758301 1.28515625 2.39868164 C0 1 0 1 0 0 Z " fill="#825BD8" transform="translate(135,186)"/>
</svg>
