<?xml version="1.0" encoding="UTF-8"?>
<svg version="1.1" xmlns="http://www.w3.org/2000/svg" width="512" height="512">
<path d="M0 0 C4.15552068 0.00770047 8.31102344 0.00052264 12.4665451 -0.0041585 C19.43940097 -0.00958628 26.4121609 -0.00250335 33.38500214 0.01186323 C41.397831 0.02818397 49.41043069 0.02289334 57.42325401 0.00638402 C64.35549541 -0.00731647 71.28766862 -0.00910906 78.2199192 -0.00129998 C82.33722045 0.0033299 86.4544147 0.00413304 90.57170868 -0.00590944 C129.81188629 -0.08867368 129.81188629 -0.08867368 147.13695526 6.02797651 C148.23064423 6.40538984 148.23064423 6.40538984 149.34642792 6.79042768 C162.50304057 11.53851935 174.31708313 18.49817643 185.07445526 27.40297651 C185.93425995 28.09907026 186.79406464 28.79516401 187.67992401 29.51235151 C202.91078883 42.45268317 214.47236562 61.15923776 216.24584198 81.35463667 C217.55832981 101.13536959 211.7375736 119.531713 198.64476776 134.62172651 C165.2846239 170.71963294 121.67456332 187.85867507 73.07445526 192.40297651 C71.95039276 192.51512495 70.82633026 192.62727339 69.66820526 192.74282026 C15.33789938 197.29111422 -47.69405106 189.64999489 -90.92554474 153.40297651 C-95.03086368 149.84503343 -98.99366356 146.15081219 -102.92554474 142.40297651 C-103.6796463 141.70172651 -104.43374786 141.00047651 -105.21070099 140.27797651 C-119.04485624 127.05689558 -127.59134914 109.14782311 -128.39868927 89.98549604 C-128.67623401 67.81724047 -118.09152769 48.26217786 -103.18335724 32.50453901 C-74.89258105 4.50021482 -37.80242892 -0.09220384 0 0 Z " fill="#F49632" transform="translate(211.92554473876953,276.59702348709106)"/>
<path d="M0 0 C20.18329154 17.51658721 34.69391106 42.66140579 37.015625 69.6171875 C39.03229681 100.67953523 31.46381263 128.7681434 11.015625 152.6171875 C10.29826172 153.53371094 10.29826172 153.53371094 9.56640625 154.46875 C-5.51787938 173.39974457 -31.32943163 185.3094013 -54.984375 188.6171875 C-87.53068081 190.97526314 -115.84893181 184.044849 -141.171875 162.9296875 C-161.35892672 145.46970768 -174.05476555 120.03921015 -176.984375 93.6171875 C-179.0954189 63.87243265 -171.8808712 35.89781362 -152.609375 12.8046875 C-113.66503638 -32.06493303 -45.83125288 -38.33780285 0 0 Z " fill="#F24C1B" transform="translate(325.984375,67.3828125)"/>
</svg>
